<?xml version="1.0" encoding="UTF-8" standalone="no"?>
<!-- Created with Inkscape (http://www.inkscape.org/) -->

<svg
   xmlns:dc="http://purl.org/dc/elements/1.1/"
   xmlns:cc="http://creativecommons.org/ns#"
   xmlns:rdf="http://www.w3.org/1999/02/22-rdf-syntax-ns#"
   xmlns:svg="http://www.w3.org/2000/svg"
   xmlns="http://www.w3.org/2000/svg"
   xmlns:xlink="http://www.w3.org/1999/xlink"
   xmlns:sodipodi="http://sodipodi.sourceforge.net/DTD/sodipodi-0.dtd"
   xmlns:inkscape="http://www.inkscape.org/namespaces/inkscape"
   width="210mm"
   height="297mm"
   viewBox="0 0 210 297"
   version="1.1"
   id="svg5907"
   inkscape:version="0.92.1 r15371"
   sodipodi:docname="beyonce-swing.svg">
  <defs
     id="defs5901">
    <linearGradient
       inkscape:collect="always"
       id="linearGradient6539">
      <stop
         style="stop-color:#4c3300;stop-opacity:1;"
         offset="0"
         id="stop6535" />
      <stop
         style="stop-color:#4c3300;stop-opacity:0;"
         offset="1"
         id="stop6537" />
    </linearGradient>
    <linearGradient
       inkscape:collect="always"
       xlink:href="#linearGradient6539"
       id="linearGradient6543"
       x1="69.536804"
       y1="25.955856"
       x2="55.174564"
       y2="105.36064"
       gradientUnits="userSpaceOnUse" />
    <linearGradient
       inkscape:collect="always"
       xlink:href="#linearGradient6539"
       id="linearGradient6551"
       x1="69.536804"
       y1="25.955856"
       x2="55.174564"
       y2="105.36064"
       gradientUnits="userSpaceOnUse" />
  </defs>
  <sodipodi:namedview
     id="base"
     pagecolor="#ffffff"
     bordercolor="#666666"
     borderopacity="1.0"
     inkscape:pageopacity="0.0"
     inkscape:pageshadow="2"
     inkscape:zoom="0.64121094"
     inkscape:cx="62.685705"
     inkscape:cy="811.56364"
     inkscape:document-units="mm"
     inkscape:current-layer="layer18"
     showgrid="false"
     showguides="false"
     inkscape:window-width="1875"
     inkscape:window-height="1056"
     inkscape:window-x="45"
     inkscape:window-y="24"
     inkscape:window-maximized="1" />
  <metadata
     id="metadata5904">
    <rdf:RDF>
      <cc:Work
         rdf:about="">
        <dc:format>image/svg+xml</dc:format>
        <dc:type
           rdf:resource="http://purl.org/dc/dcmitype/StillImage" />
        <dc:title></dc:title>
      </cc:Work>
    </rdf:RDF>
  </metadata>
  <g
     inkscape:label="hair copy"
     id="g6555"
     inkscape:groupmode="layer"
     sodipodi:insensitive="true">
    <path
       inkscape:connector-curvature="0"
       id="path6553"
       d="m 82.277248,17.969266 -12.130027,17.010224 1.416066,20.746683 -5.542372,11.025883 -1.090925,19.187613 -10.882,16.439521 5.21109,2.73412 8.00386,2.29732 75.09372,2.18787 -4.12537,-21.802279 -4.95157,-12.791551 -3.03559,-18.894592 -4.12499,-0.03023 -0.26677,-23.163516 -14.25967,-12.186995 -6.3607,-4.14545 -9.246158,0.438913 z"
       style="fill:#f3cf86;fill-opacity:1;fill-rule:nonzero;stroke:url(#linearGradient6551);stroke-width:0.26458332px;stroke-linecap:butt;stroke-linejoin:miter;stroke-opacity:0" />
  </g>
  <g
     inkscape:groupmode="layer"
     id="layer10"
     inkscape:label="hair"
     sodipodi:insensitive="true">
    <path
       style="fill:url(#linearGradient6543);fill-opacity:1;fill-rule:nonzero;stroke:url(#linearGradient6551);stroke-width:0.26458332px;stroke-linecap:butt;stroke-linejoin:miter;stroke-opacity:0"
       d="m 82.277248,17.969266 -12.130027,17.010224 1.416066,20.746683 -5.542372,11.025883 -1.090925,19.187613 -10.882,16.439521 5.21109,2.73412 8.00386,2.29732 75.09372,2.18787 -4.12537,-21.802279 -4.95157,-12.791551 -3.03559,-18.894592 -4.12499,-0.03023 -0.26677,-23.163516 -14.25967,-12.186995 -6.3607,-4.14545 -9.246158,0.438913 z"
       id="path6505"
       inkscape:connector-curvature="0" />
  </g>
  <g
     inkscape:groupmode="layer"
     id="layer13"
     inkscape:label="idle 1"
     style="display:none">
    <path
       style="fill:#ad7351;fill-opacity:1;stroke:#000000;stroke-width:0.26458332px;stroke-linecap:butt;stroke-linejoin:miter;stroke-opacity:0.61341852"
       d="m 68.157084,86.989017 -4.924129,21.032353 -10.032534,35.71694 14.564222,5.20718 66.300427,0.36658 9.27451,-5.74641 -11.96155,-48.681879 z"
       id="path6578"
       inkscape:connector-curvature="0" />
  </g>
  <g
     inkscape:groupmode="layer"
     id="layer9"
     inkscape:label="dress"
     sodipodi:insensitive="true">
    <path
       style="fill:#d8e247;fill-opacity:1;stroke:#000000;stroke-width:0.26458332px;stroke-linecap:butt;stroke-linejoin:miter;stroke-opacity:0.00958467"
       d="m 84.324231,74.425047 -16.548147,11.642262 5.672185,15.345731 -2.758808,20.5844 4.117581,7.97841 -9.464503,22.08417 6.657501,0.93351 -5.015444,23.4555 5.020281,2.6038 -3.674229,10.20111 36.477552,0.46207 37.49196,4.20151 -5.25814,-13.68518 -11.13921,-27.73061 8.09174,-0.19451 -8.98832,-25.045 L 115.51439,110.6429 128.31757,90.595986 116.71981,68.64124 114.62573,92.554016 94.40851,114.44061 82.526144,84.495176 Z"
       id="path6502"
       inkscape:connector-curvature="0" />
  </g>
  <g
     inkscape:groupmode="layer"
     id="layer11"
     inkscape:label="skin"
     sodipodi:insensitive="true">
    <path
       style="fill:#ad7351;fill-opacity:1;stroke:#000000;stroke-width:0.26458332px;stroke-linecap:butt;stroke-linejoin:miter;stroke-opacity:0"
       d="m 80.972664,32.848494 2.378742,27.30147 4.907672,12.143602 -3.934847,2.131481 -0.147563,22.036421 7.569668,17.893902 10.998714,-6.75287 11.88068,-15.048486 2.09408,-23.912774 -4.14539,-1.055156 -1.71396,-27.902924 -10.24185,-11.387298 -15.494247,4.841531 z"
       id="path6558"
       inkscape:connector-curvature="0" />
  </g>
  <g
     inkscape:label="outline"
     inkscape:groupmode="layer"
     id="layer1"
     sodipodi:insensitive="true">
    <path
       style="opacity:1;vector-effect:none;fill:#080808;fill-opacity:1;stroke:#000000;stroke-width:0.17998733px;stroke-linecap:butt;stroke-linejoin:miter;stroke-miterlimit:4;stroke-dasharray:none;stroke-dashoffset:0;stroke-opacity:0.99041533"
       id="path6458"
       d="m 85.124365,33.137393 c -0.580598,0.697993 -0.984317,1.501327 -1.327515,2.334627 -0.365822,0.917249 -0.39256,1.908605 -0.501247,2.876546 -0.177847,1.39066 -0.229685,2.792466 -0.266987,4.192573 -0.03003,1.684251 -0.03296,3.368782 -0.04162,5.053233 0.04954,1.910906 0.215113,3.815535 0.349876,5.721589 0.149702,2.046736 0.482684,4.071585 0.869903,6.084662 0.509629,1.980734 1.230374,3.903519 1.994284,5.798764 0.646581,1.588866 1.624061,2.995277 2.741315,4.284717 0.930784,1.06921 2.082304,1.801334 3.379328,2.338602 1.581328,0.628669 7.029973,0.512139 0.127826,0.474575 1.749214,-0.0014 3.460998,-0.36512 5.153791,-0.767539 2.345154,-0.5922 4.431911,-1.540397 6.481271,-2.80953 1.98121,-1.230536 3.36543,-2.662028 4.75898,-4.504069 1.4276,-1.885272 2.21299,-3.90688 2.82051,-6.168637 0.60932,-2.635265 0.67717,-5.348179 0.73356,-8.039796 0.0482,-2.705344 -0.28338,-5.389933 -0.85839,-8.028531 -0.1482,-0.787805 -0.41453,-1.542306 -0.67879,-2.296019 0,0 4.09232,-0.12734 4.09232,-0.12734 v 0 c 0.22634,0.77235 0.44613,1.547382 0.57668,2.343279 0.50613,2.676588 0.88519,5.385837 0.81036,8.116868 -0.057,2.722272 -0.0857,5.466807 -0.69796,8.134617 -0.30979,1.184486 -0.62249,2.381427 -1.12775,3.502316 -0.44917,0.996449 -1.07822,1.909011 -1.67237,2.820547 -0.6527,0.880742 -1.31549,1.785184 -2.10076,2.555981 -0.81354,0.798538 -1.78416,1.424622 -2.70171,2.090903 -0.72709,0.466405 -1.39836,0.924007 -2.1721,1.31295 -1.35865,0.682961 -2.82008,1.175671 -4.2659,1.632042 -1.684671,0.4208 -3.388128,0.823756 -5.132934,0.863728 -2.703416,-4e-5 -5.603028,0.324229 -8.209257,-0.635485 -1.299529,-0.612852 -2.444097,-1.411466 -3.372266,-2.525022 -1.100922,-1.34282 -2.084603,-2.78319 -2.708264,-4.415818 -0.764128,-1.919393 -1.482225,-3.870493 -1.989404,-5.87446 -0.403341,-2.027172 -0.704361,-4.072269 -0.871652,-6.13338 -0.14077,-1.915835 -0.335523,-3.828195 -0.368094,-5.750615 -0.0078,-1.687507 -0.01605,-3.37533 0.01456,-5.062649 0.02854,-1.411548 0.07217,-2.823556 0.221814,-4.228472 0.110046,-1.00411 0.128788,-2.031207 0.484997,-2.990085 0.347004,-0.869914 0.779189,-1.685989 1.301894,-2.464571 0,0 4.151696,0.288899 4.151696,0.288899 z"
       inkscape:connector-curvature="0" />
    <path
       style="opacity:1;vector-effect:none;fill:#080808;fill-opacity:1;stroke:#000000;stroke-width:0.17998733px;stroke-linecap:butt;stroke-linejoin:miter;stroke-miterlimit:4;stroke-dasharray:none;stroke-dashoffset:0;stroke-opacity:0.99041533"
       id="path6464"
       d="m 85.208703,69.714204 c 0.781971,0.467126 1.226994,1.064271 1.644276,1.855851 0.392702,0.837939 0.585305,1.75634 0.77217,2.65864 0.135251,0.67392 0.180719,1.359888 0.191612,2.045672 0.0326,1.084257 -0.318232,2.127522 -0.643514,3.147378 -0.416707,1.28063 -0.907035,2.529995 -1.525587,3.72602 -0.369683,0.634839 -0.544048,1.324147 -0.61772,2.046951 -0.12005,1.283338 0.08338,2.564531 0.248516,3.834341 0.350419,2.31037 0.950069,4.56989 1.559849,6.8223 0.832713,2.56188 1.66574,5.122883 2.469453,7.694223 0.806952,2.40092 1.822761,4.71485 3.00921,6.9502 0.728715,1.2986 1.461298,2.59487 2.091542,3.94483 0.08721,0.13219 0.187116,0.36927 0.38048,0.40871 0.06449,0.0131 0.258588,-0.0408 0.192799,-0.0426 -1.305841,-0.0363 -2.613692,0.001 -3.918558,-0.0608 -0.10714,-0.005 0.208808,-0.058 0.301925,-0.11129 0.13674,-0.0782 0.254122,-0.18617 0.381182,-0.27926 1.354904,-1.18228 2.630607,-2.45072 3.897667,-3.72559 1.672363,-1.71211 3.299946,-3.46128 4.735515,-5.3781 1.30489,-1.80283 2.36974,-3.75627 3.64963,-5.575373 1.17271,-1.6445 2.52189,-3.14565 3.83923,-4.67215 0.84417,-0.9624 1.7426,-1.87473 2.64937,-2.77763 0.51926,-0.46519 1.0248,-0.94223 1.46407,-1.48436 0.37462,-0.47883 0.63142,-1.02403 0.85221,-1.58625 0.32925,-1.15094 0.31132,-2.372178 0.34875,-3.559448 0.0853,-2.224624 -0.0412,-4.44824 -0.13131,-6.670509 -0.0712,-2.124692 -0.23473,-4.244554 -0.32854,-6.368409 -0.0524,-1.30429 -0.10619,-2.608559 -0.13543,-3.913611 0,0 4.13231,-0.0027 4.13231,-0.0027 v 0 c -0.0112,1.300079 -0.0144,2.600539 0.0295,3.900135 0.0787,2.124535 0.23605,4.244805 0.30144,6.369694 0.0775,2.230385 0.21201,4.459934 0.17622,6.692645 -0.004,1.231523 0.0446,2.492453 -0.2467,3.697723 -0.20802,0.61007 -0.48525,1.18969 -0.8569,1.71858 -0.43932,0.56802 -0.92562,1.09459 -1.49764,1.534 -0.92677,0.89545 -1.85793,1.78789 -2.72798,2.73944 -1.32783,1.5121 -2.67903,3.00489 -3.87087,4.63022 -1.29883,1.811523 -2.35536,3.776153 -3.66781,5.579863 -0.23402,0.32742 -0.4549,0.66464 -0.70206,0.98226 -1.23012,1.58084 -2.69352,2.96675 -4.028322,4.45508 -1.246433,1.27238 -2.489258,2.54739 -3.777447,3.77754 -0.06605,0.0607 -0.648828,0.59871 -0.657739,0.59927 -2.472653,0.15468 -4.002199,1.10592 -4.903946,-0.70131 -0.590833,-1.34197 -1.268088,-2.64007 -1.965413,-3.92949 -1.148154,-2.27405 -2.179042,-4.60056 -2.981532,-7.02184 -0.793736,-2.58004 -1.628327,-5.145653 -2.477925,-7.707893 -0.621327,-2.27147 -1.226059,-4.54934 -1.629987,-6.87145 -0.19605,-1.29955 -0.429217,-2.61002 -0.349065,-3.929044 0.06558,-0.78109 0.244687,-1.531873 0.653182,-2.212079 0.651454,-1.159318 1.16342,-2.37252 1.552699,-3.646681 0.301117,-0.977584 0.630825,-1.977101 0.575562,-3.01378 -0.02001,-0.660234 -0.04746,-1.322093 -0.174395,-1.972326 -0.172102,-0.863171 -0.356246,-1.742368 -0.75666,-2.532288 -0.409741,-0.69609 -0.9187,-1.265174 -1.670446,-1.604512 0,0 4.14309,-0.460588 4.14309,-0.460588 z"
       inkscape:connector-curvature="0" />
    <path
       style="opacity:1;vector-effect:none;fill:#080808;fill-opacity:1;stroke:#000000;stroke-width:0.17998733px;stroke-linecap:butt;stroke-linejoin:miter;stroke-miterlimit:4;stroke-dasharray:none;stroke-dashoffset:0;stroke-opacity:0.99041533"
       id="path6468"
       d="m 63.624389,85.778406 c 1.577871,-1.50856 3.486015,-2.614301 5.349071,-3.726843 3.616298,-2.069978 7.379605,-3.872856 11.13877,-5.665986 1.401018,-0.660016 2.803976,-1.315623 4.212003,-1.96053 0,0 3.94032,0.456262 3.94032,0.456262 v 0 c -1.452924,0.626057 -2.89697,1.271453 -4.331807,1.938149 -3.756805,1.745368 -7.503338,3.538131 -11.080663,5.631857 -1.770532,1.083903 -3.574646,2.165038 -5.075998,3.615994 0,0 -4.151696,-0.288903 -4.151696,-0.288903 z"
       inkscape:connector-curvature="0" />
    <path
       style="opacity:1;vector-effect:none;fill:#080808;fill-opacity:1;stroke:#000000;stroke-width:0.17998733px;stroke-linecap:butt;stroke-linejoin:miter;stroke-miterlimit:4;stroke-dasharray:none;stroke-dashoffset:0;stroke-opacity:0.99041533"
       id="path6470"
       d="m 116.73497,67.586084 c -0.13647,1.540737 0.17277,3.054501 0.54401,4.540994 0.52134,2.119603 1.44047,4.095766 2.53336,5.973793 0.97626,1.599831 2.06374,3.124031 3.16306,4.640156 0.92671,1.226855 1.88004,2.432118 2.73207,3.712823 0.6266,0.908987 1.20497,1.847677 1.75249,2.805677 0.27826,0.44903 0.59801,0.87762 0.85761,1.33646 0.27079,0.23861 0.35832,0.55864 0.47444,0.88128 0.1802,0.55081 0.46231,1.0716 0.74062,1.57982 0.35373,0.653 0.80248,1.24126 1.21868,1.85302 0.44803,0.64376 0.92529,1.26632 1.38003,1.90518 0.42563,0.57184 0.8714,1.12649 1.2963,1.69892 0,0 -4.12913,0.26313 -4.12913,0.26313 v 0 c -0.4218,-0.57342 -0.8681,-1.12747 -1.28755,-1.70264 -0.47105,-0.63398 -0.94571,-1.26562 -1.3959,-1.91471 -0.43096,-0.61718 -0.85617,-1.23595 -1.21911,-1.897 -0.28604,-0.53132 -0.58358,-1.06396 -0.77495,-1.63812 -0.11254,-0.29777 -0.28287,-0.54829 -0.47353,-0.80275 -0.28532,-0.44224 -0.53298,-0.9059 -0.81452,-1.35068 -0.52719,-0.95002 -1.08877,-1.87854 -1.69963,-2.77763 -0.8497,-1.270188 -1.79345,-2.471104 -2.70128,-3.699727 -1.09459,-1.524568 -2.16723,-3.066665 -3.12204,-4.683959 -1.09289,-1.918762 -2.00291,-3.937359 -2.55487,-6.083309 -0.38947,-1.520112 -0.69831,-3.063651 -0.68071,-4.640728 0,0 4.16055,0 4.16055,0 z"
       inkscape:connector-curvature="0" />
    <path
       style="opacity:1;vector-effect:none;fill:#080808;fill-opacity:1;stroke:#000000;stroke-width:0.17998733px;stroke-linecap:butt;stroke-linejoin:miter;stroke-miterlimit:4;stroke-dasharray:none;stroke-dashoffset:0;stroke-opacity:0.99041533"
       id="path6474"
       d="m 74.807042,129.97585 c -0.445361,1.26803 -0.81792,2.55989 -1.141427,3.86392 -0.382558,1.47323 -0.645525,2.97314 -0.981876,4.45676 -0.33412,1.56915 -0.922241,3.05234 -1.554977,4.51951 -0.665714,1.37905 -1.431038,2.71183 -2.240423,4.0115 -0.394781,0.70269 -0.974193,1.30762 -1.123694,2.11795 0.04267,1.1796 0.7956,2.0271 1.620167,2.78635 2.002752,1.56532 4.514365,2.14457 6.932659,2.7397 3.312289,0.7169 6.694663,0.96328 10.071139,1.13491 1.741228,0.11111 3.488868,0.0256 5.225098,0.20166 0.937368,0.17586 1.828548,0.51929 2.734712,0.80973 1.957621,0.57193 3.986753,0.82455 6.00334,1.09107 2.49778,0.30737 5.01374,0.42254 7.52768,0.49389 -6.02278,-0.0218 -3.28339,0.0384 -1.93672,-0.0874 0.4581,-0.0428 0.90455,-0.13128 1.35339,-0.22851 1.39271,-0.32384 2.72656,-0.84221 4.0675,-1.32871 1.32388,-0.5146 2.69038,-0.89738 4.055,-1.28441 0.83086,-0.20315 1.64513,-0.45938 2.43937,-0.77577 0.95768,-0.3708 1.92062,-0.72898 2.87164,-1.11671 0.90693,-0.4587 1.84779,-0.83201 2.81398,-1.14399 0.93215,-0.29165 1.90678,-0.39143 2.87721,-0.44935 1.16921,-0.0409 2.33802,0.002 3.50516,-0.0889 0.18272,-0.0462 0.44862,-0.0593 0.55847,-0.26094 0.2511,-0.4609 -0.28003,-1.49113 -0.45375,-1.89858 -0.76872,-1.59471 -1.64758,-3.1337 -2.45024,-4.71202 -1.17647,-2.36557 -1.92747,-4.90889 -2.70248,-7.42561 -0.78135,-2.70472 -1.5325,-5.4161 -2.40807,-8.09222 -0.27645,-0.97907 -0.58013,-1.95005 -0.87367,-2.92404 0,0 4.0481,-0.11218 4.0481,-0.11218 v 0 c 0.26026,0.97362 0.52964,1.94464 0.80697,2.91355 0.83061,2.68739 1.55795,5.40356 2.36606,8.09751 0.76681,2.50548 1.56824,5.01941 2.77874,7.35244 0.82272,1.58836 1.74117,3.12555 2.51617,4.73835 0.28859,0.68013 0.96332,2.07181 0.27288,2.72767 -0.10652,0.10119 -0.26039,0.13616 -0.3906,0.20424 -1.16248,0.11149 -2.32459,0.0991 -3.49153,0.10783 -0.96731,0.0324 -1.94253,0.0952 -2.8817,0.34479 -0.96717,0.2782 -1.91606,0.62653 -2.80499,1.10251 -0.93895,0.40913 -1.90526,0.75462 -2.86208,1.11903 -0.79565,0.34901 -1.6112,0.64907 -2.46438,0.8257 -1.38029,0.36787 -2.76369,0.73043 -4.09765,1.24823 -1.33247,0.46855 -2.63688,1.02172 -4.00656,1.37922 -2.42781,0.6602 -5.02548,0.31707 -7.49178,0.38594 -2.4947,-0.0961 -4.990815,-0.23033 -7.469255,-0.54202 -2.061721,-0.26948 -4.134304,-0.54411 -6.13153,-1.14278 -0.90794,-0.27286 -1.802499,-0.61762 -2.751164,-0.72157 -1.671233,-0.14347 -3.353399,-0.089 -5.026297,-0.21587 -3.38465,-0.19843 -6.777459,-0.46259 -10.093689,-1.20691 -2.487354,-0.6285 -5.057291,-1.26108 -7.079404,-2.9313 -0.930702,-0.9137 -1.674445,-1.8219 -1.722324,-3.18133 0.135371,-0.92788 0.684834,-1.52118 1.185242,-2.28418 0.83535,-1.26519 1.592742,-2.58465 2.264317,-3.94385 0.623692,-1.44487 1.225445,-2.89726 1.54792,-4.44585 0.344869,-1.48382 0.589918,-2.98953 0.978197,-4.46385 0.324714,-1.31262 0.713757,-2.60673 1.056669,-3.91419 0,0 4.15448,0.14912 4.15448,0.14912 z"
       inkscape:connector-curvature="0" />
    <path
       style="opacity:1;vector-effect:none;fill:#080808;fill-opacity:1;stroke:#000000;stroke-width:0.17998733px;stroke-linecap:butt;stroke-linejoin:miter;stroke-miterlimit:4;stroke-dasharray:none;stroke-dashoffset:0;stroke-opacity:0.99041533"
       id="path6476"
       d="m 72.000052,152.99317 c -0.667491,1.59716 -1.140623,3.26715 -1.535881,4.94953 -0.551299,2.38328 -0.877435,4.80827 -1.251274,7.22319 -0.24759,1.54224 -0.478206,3.08782 -0.758836,4.62453 -0.171243,0.83666 -0.407854,1.65551 -0.632007,2.4785 -0.213357,0.64648 -0.42927,1.29148 -0.576323,1.95665 -0.156659,0.73384 -0.452214,1.47442 -0.261134,2.22346 1.327134,0.43467 2.738142,0.64891 4.109593,0.92272 2.798561,0.52124 5.471827,1.49692 8.18455,2.33174 2.832064,0.91971 5.759069,1.38991 8.715769,1.65241 3.242049,0.21459 6.493865,0.19604 9.741338,0.20099 -0.661117,-9e-5 -1.322331,0.011 -1.983353,0 -0.615084,-0.0105 1.230351,-0.002 1.845527,-0.002 2.941059,-0.003 5.875979,-0.0153 8.815879,-0.10925 5.01406,-0.15375 10.0099,-0.63322 15.01042,-1.00565 3.97094,-0.4059 7.97319,-0.62275 11.90266,-1.35226 0.54372,-0.20013 1.55074,-0.23277 1.91774,-0.81759 0.27169,-0.43296 -0.16916,-1.10122 -0.33312,-1.45642 -0.9159,-1.64787 -1.93494,-3.23431 -2.86249,-4.87603 -1.01664,-1.81923 -2.09412,-3.60567 -2.99951,-5.48398 -0.71613,-1.55452 -1.30399,-3.15818 -1.71987,-4.818 -0.2074,-0.98225 -0.48176,-1.94772 -0.63247,-2.94123 -0.0815,-0.59582 -0.0889,-1.19776 -0.0925,-1.79801 0.007,-0.73797 -0.1327,-1.46925 -0.2644,-2.19289 -0.0946,-0.74431 -0.29955,-1.46584 -0.43755,-2.20185 -0.016,-0.27285 -0.10876,-0.52793 -0.18608,-0.78696 0,0 4.16208,-0.11555 4.16208,-0.11555 v 0 c 0.074,0.27193 0.14887,0.54449 0.17404,0.82649 0.13441,0.73499 0.32028,1.45961 0.41624,2.20168 0.14297,0.74758 0.28695,1.50368 0.29436,2.26686 0.003,0.58103 0.007,1.16347 0.0775,1.74114 0.13205,0.97735 0.37065,1.93366 0.5627,2.90018 0.4093,1.63023 0.94708,3.2211 1.67736,4.73836 0.88692,1.87405 1.96291,3.64784 2.97674,5.4547 0.95939,1.64567 1.9949,3.24475 2.92085,4.90919 0.26542,0.57561 0.6753,1.28978 0.37075,1.9511 -0.34575,0.75076 -1.4534,0.84245 -2.10573,1.04581 -4.00759,0.74058 -8.08814,0.94159 -12.137,1.36035 -4.98832,0.37417 -9.97156,0.85933 -14.97292,1.02673 -5.40712,0.19633 -10.816879,0.13109 -16.226798,0.14129 -3.271707,-0.005 -6.549135,0.019 -9.813825,-0.22638 -2.958966,-0.29394 -5.883159,-0.80979 -8.71736,-1.73413 -2.721038,-0.84527 -5.416046,-1.79183 -8.231982,-2.28316 -0.263934,-0.0511 -1.940393,-0.3744 -2.252174,-0.43886 -0.568433,-0.11749 -1.398864,-0.19327 -1.853643,-0.62052 -0.09442,-0.0887 -0.140407,-0.21779 -0.210611,-0.32666 -0.134445,-0.81513 0.09196,-1.60005 0.285842,-2.39119 0.129143,-0.67731 0.320033,-1.33887 0.562343,-1.98478 0.228475,-0.81492 0.493862,-1.61888 0.676054,-2.44683 0.326229,-1.52847 0.571622,-3.07252 0.853363,-4.60969 0.420879,-2.41553 0.750906,-4.84766 1.264548,-7.24644 0.366266,-1.69461 0.829222,-3.36436 1.376104,-5.01004 0,0 4.154481,0.14911 4.154481,0.14911 z"
       inkscape:connector-curvature="0" />
    <path
       style="opacity:1;vector-effect:none;fill:#080808;fill-opacity:1;stroke:#000000;stroke-width:0.17998733px;stroke-linecap:butt;stroke-linejoin:miter;stroke-miterlimit:4;stroke-dasharray:none;stroke-dashoffset:0;stroke-opacity:0.99041533"
       id="path6478"
       d="m 72.004879,179.05308 c -0.579081,1.02445 -1.0675,2.094 -1.53576,3.17231 -0.562625,1.38369 -1.159,2.75724 -1.603943,4.18437 -0.247303,0.92628 -0.65051,1.87036 -0.534528,2.84418 0.05429,0.086 0.09089,0.1862 0.162881,0.25806 0.71277,0.71163 2.541857,0.95286 3.472771,1.12071 3.317468,0.56867 6.695727,0.60771 10.051948,0.6819 0.770595,0.0106 1.541229,0.0185 2.311787,0.0316 0.455844,0.008 -1.823032,0.006 -1.367639,-0.0157 1.598459,-0.0761 3.200694,-0.0265 4.800222,-0.0753 1.504918,-0.0459 3.069619,-0.14408 4.573531,-0.22934 3.067613,-0.19331 6.136802,-0.35854 9.208441,-0.47145 2.88225,-0.21595 5.70599,-0.0186 8.55798,0.25058 3.03174,0.45487 6.07541,0.81785 9.11271,1.23191 4.40832,0.64979 8.84949,0.95958 13.29795,1.14697 2.51199,0.0892 5.02548,0.12832 7.53892,0.14184 0.4216,0.002 1.68639,0.01 1.26483,0.003 -1.00053,-0.015 -2.00117,-0.0197 -3.00175,-0.0294 0.50906,-0.0639 1.32588,-0.0321 1.63914,-0.56328 0.13104,-0.22221 0.14381,-0.46672 0.18358,-0.71361 0.14437,-1.0988 -0.24277,-2.1038 -0.67976,-3.08734 -0.6907,-1.47095 -1.61294,-2.81704 -2.53483,-4.14984 -1.18351,-1.51506 -2.46501,-2.96695 -3.93692,-4.20791 0,0 4.05558,-0.345 4.05558,-0.345 v 0 c 1.42854,1.3144 2.70985,2.78309 3.90789,4.30872 0.94093,1.35687 1.8998,2.72065 2.59527,4.22389 0.46456,1.05685 0.85215,2.14062 0.72304,3.31711 -0.18113,1.37352 -0.5365,1.70112 -1.96806,1.83546 -4.50857,0.0286 -9.01756,0.0425 -13.52326,-0.15897 -4.46777,-0.20066 -8.92786,-0.52569 -13.35629,-1.17253 -3.10603,-0.40468 -6.21552,-0.78198 -9.32174,-1.18521 -0.37393,-0.034 -1.26722,-0.11691 -1.66194,-0.14693 -0.21823,-0.0165 -0.43673,-0.0297 -0.65522,-0.0425 -0.22178,-0.0129 -0.88766,-0.0297 -0.66556,-0.0345 0.80271,-0.0175 5.0811,-0.0444 2.4087,-0.005 -3.14879,0.0827 -6.295108,0.23267 -9.439041,0.42596 -1.187709,0.0674 -3.43015,0.20143 -4.604016,0.23958 -4.405719,0.14324 -8.818339,0.10004 -13.224926,0.0642 -3.427623,-0.0752 -6.877864,-0.11683 -10.263465,-0.71589 -1.096427,-0.21715 -2.951958,-0.44746 -3.636732,-1.48307 -0.08131,-0.12295 -0.112341,-0.27257 -0.168512,-0.40886 -0.08238,-1.04013 0.304249,-2.02345 0.595235,-3.00831 0.453445,-1.43938 1.068759,-2.81975 1.613973,-4.22583 0.458876,-1.07731 0.928663,-2.14803 1.443378,-3.20003 0,0 4.164135,0.1932 4.164135,0.1932 z"
       inkscape:connector-curvature="0" />
    <path
       style="opacity:1;vector-effect:none;fill:#080808;fill-opacity:1;stroke:#000000;stroke-width:0.17998733px;stroke-linecap:butt;stroke-linejoin:miter;stroke-miterlimit:4;stroke-dasharray:none;stroke-dashoffset:0;stroke-opacity:0.99041533"
       id="path6480"
       d="m 69.076015,85.857752 c 0.288277,1.888555 0.910738,3.696965 1.674781,5.440085 0.870116,1.75196 1.710586,3.52273 2.403176,5.35339 0.384379,1.06308 0.755554,2.1401 0.971752,3.2515 0.179943,1.182063 0.203218,2.384313 0.153044,3.576903 -0.02046,1.36455 -0.358037,2.67705 -0.823953,3.94989 -0.336012,0.9107 -0.67091,1.82205 -0.992864,2.73779 -0.243949,0.81471 -0.480122,1.63155 -0.729085,2.44476 -0.353081,0.89494 -0.571246,1.82056 -0.685885,2.77317 -0.08226,0.95581 -0.229261,1.90311 -0.29762,2.86052 -0.07302,1.24918 -0.104234,2.50113 -0.0599,3.75168 0.104443,0.98002 0.04819,0.48584 0.169165,1.48248 0,0 -4.068265,0.0499 -4.068265,0.0499 v 0 c -0.126324,-1.0118 -0.068,-0.50679 -0.175136,-1.51499 -0.06254,-1.26475 -0.03684,-2.53357 0.01699,-3.79845 0.06927,-0.96371 0.198489,-1.91783 0.296693,-2.87839 0.10803,-0.97656 0.314576,-1.92947 0.682852,-2.84445 0.235072,-0.82291 0.48231,-1.64213 0.721276,-2.46389 0.315833,-0.92522 0.68398,-1.83328 1.032441,-2.74677 0.470867,-1.22681 0.811286,-2.49466 0.829092,-3.81873 0.0394,-1.16136 5.4e-4,-2.33028 -0.188406,-3.478813 -0.229539,-1.08221 -0.546403,-2.14701 -0.91418,-3.1899 -0.66162,-1.82631 -1.486193,-3.58625 -2.333502,-5.33265 -0.780054,-1.78278 -1.382481,-3.62777 -1.828489,-5.523118 0,0 4.146024,-0.08186 4.146024,-0.08186 z"
       inkscape:connector-curvature="0" />
    <path
       style="opacity:1;vector-effect:none;fill:#080808;fill-opacity:1;stroke:#000000;stroke-width:0.14849004px;stroke-linecap:butt;stroke-linejoin:miter;stroke-miterlimit:4;stroke-dasharray:none;stroke-dashoffset:0;stroke-opacity:0.99041533"
       id="path6482"
       d="m 131.37803,94.883781 c -0.78307,0.967229 -1.6656,1.895403 -2.55605,2.818074 -0.97709,1.045658 -2.013,2.063518 -2.98222,3.112665 -0.92473,1.04205 -1.64094,2.16148 -2.33718,3.28041 -0.6911,0.95915 -1.02884,1.98243 -1.1998,3.03626 -0.1428,1.25551 -0.12864,2.51609 -0.13356,3.77444 -0.0454,1.37654 0.16462,2.74934 0.50147,4.1047 0.25885,1.18467 0.65937,2.35 1.24207,3.4798 0.46774,0.80995 0.95861,1.61268 1.51962,2.39446 0,0 -4.12559,0.123 -4.12559,0.123 v 0 c -0.52394,-0.79639 -0.97979,-1.61218 -1.44438,-2.4253 -0.57835,-1.14587 -0.96746,-2.32773 -1.22201,-3.52704 -0.32507,-1.37144 -0.5271,-2.75868 -0.49396,-4.14954 -0.006,-1.26762 -0.0283,-2.53747 0.094,-3.80303 0.15415,-1.08459 0.49773,-2.1368 1.22077,-3.11878 0.71257,-1.12744 1.41717,-2.264 2.33187,-3.32396 0.97154,-1.054667 2.02808,-2.068496 3.01181,-3.117586 0.87769,-0.9034 1.75326,-1.819643 2.41855,-2.805501 0,0 4.15455,0.146928 4.15455,0.146928 z"
       inkscape:connector-curvature="0" />
    <path
       style="opacity:1;vector-effect:none;fill:#080808;fill-opacity:1;stroke:#000000;stroke-width:0.17998733px;stroke-linecap:butt;stroke-linejoin:miter;stroke-miterlimit:4;stroke-dasharray:none;stroke-dashoffset:0;stroke-opacity:0.99041533"
       id="path6484"
       d="m 96.465279,27.968972 c 0.85781,-0.910009 1.725619,-1.810233 2.621736,-2.682956 1.002615,-0.923881 2.037155,-1.812082 3.056875,-2.716699 0.69039,-0.604467 1.45284,-1.071502 2.30542,-1.403199 2.30861,-0.707447 4.76932,-0.440331 7.14339,-0.436777 1.25948,0.0983 2.33876,0.874467 3.39939,1.496348 1.38232,0.85455 2.74167,1.748953 4.15072,2.559615 1.22775,0.634741 2.44864,1.279199 3.64285,1.976202 0.94833,0.591033 1.72547,1.39772 2.4055,2.275338 0.83888,1.131451 1.67317,2.265583 2.49521,3.409477 0.6995,0.890072 1.28376,1.859633 1.86777,2.826613 0.42819,0.678185 0.69057,1.423581 0.8958,2.194028 0.32905,1.26216 0.42645,2.564392 0.497,3.861779 0.0331,1.958737 0.0361,3.917831 0.0431,5.876793 -0.0263,1.881216 -0.23347,3.751021 -0.38428,5.624375 -0.13456,1.092596 -0.28373,2.181692 -0.36163,3.280169 -0.12333,0.867363 -0.23176,1.734576 -0.28768,2.609077 -0.0478,1.008466 -0.18326,2.009879 -0.25346,3.01713 -0.0566,0.848523 -0.0653,1.699076 -0.0659,2.549156 -0.004,0.370678 -0.002,0.741369 -5.4e-4,1.112054 0,0 -4.14381,3.4e-5 -4.14381,3.4e-5 v 0 c 0.001,-0.37176 0.003,-0.743519 0.003,-1.115278 0.0126,-0.859354 0.0266,-1.71913 0.085,-2.576854 0.0807,-1.003875 0.21624,-2.003721 0.25244,-3.010374 0.0468,-0.877365 0.14361,-1.747892 0.28596,-2.61517 0.0836,-1.102505 0.25009,-2.194251 0.42047,-3.28612 0.18198,-1.859232 0.42601,-3.715936 0.42151,-5.587846 0.003,-1.951307 0.0156,-3.904559 -0.0901,-5.853692 -0.0773,-1.270214 -0.17635,-2.548615 -0.55168,-3.772283 -0.2158,-0.730772 -0.48539,-1.43508 -0.88808,-2.086166 -0.55806,-0.959459 -1.13775,-1.907555 -1.80779,-2.794334 -0.81797,-1.142916 -1.66835,-2.262632 -2.51681,-3.38272 -0.7031,-0.818401 -1.46319,-1.589358 -2.4096,-2.127814 -1.1827,-0.693324 -2.39104,-1.335754 -3.59973,-1.981936 -1.39105,-0.838399 -2.75759,-1.716463 -4.14729,-2.556599 -1.06929,-0.608977 -2.15639,-1.288343 -3.42813,-1.288226 7.21242,-0.04273 2.66189,-0.160171 1.01397,0.309278 -0.85144,0.271669 -1.59189,0.691506 -2.29394,1.246979 -1.03049,0.897914 -2.09149,1.761916 -3.0936,2.693104 -0.88234,0.855862 -1.76477,1.719921 -2.52973,2.684384 0,0 -4.153504,-0.32689 -4.153504,-0.32689 z"
       inkscape:connector-curvature="0" />
    <path
       style="opacity:1;vector-effect:none;fill:#080808;fill-opacity:1;stroke:#000000;stroke-width:0.17998733px;stroke-linecap:butt;stroke-linejoin:miter;stroke-miterlimit:4;stroke-dasharray:none;stroke-dashoffset:0;stroke-opacity:0.99041533"
       id="path6492"
       d="m 79.342633,31.89876 c 0.795409,-0.819085 1.731292,-1.460292 2.702039,-2.049842 0.853102,-0.507901 1.763875,-0.905341 2.68358,-1.274172 0.90732,-0.369082 1.816279,-0.730131 2.755376,-1.010326 1.277786,-0.361667 2.593058,-0.535585 3.913785,-0.635204 1.454935,-0.07503 2.912483,-0.07472 4.368962,-0.07769 2.505422,0.17544 5.025155,-0.165742 7.523875,0.101926 0.95672,0.187052 1.87346,0.538425 2.76883,0.917822 1.19105,0.579167 2.38961,1.154806 3.54971,1.795115 1.13965,0.576848 2.14718,1.361417 3.07695,2.229789 0.78453,0.807473 1.31354,1.804238 1.71764,2.844435 0.44989,1.261854 0.51752,2.605116 0.57881,3.930269 0.0426,1.17742 0.0484,2.355683 0.0581,3.533702 0.004,0.542318 0.002,0.278037 0.005,0.792841 0,0 -4.14064,-0.0016 -4.14064,-0.0016 v 0 c 0.007,-0.514511 0.003,-0.250429 0.0116,-0.792252 0.016,-1.17108 0.0267,-2.342781 -0.0137,-3.51352 -0.0606,-1.280998 -0.14143,-2.580088 -0.6011,-3.791478 -0.41301,-0.9785 -0.92483,-1.924558 -1.70736,-2.660929 -0.93105,-0.824926 -1.91464,-1.582856 -3.03757,-2.133338 -1.17459,-0.618239 -2.3635,-1.217591 -3.58043,-1.747634 -0.89137,-0.350374 -1.80403,-0.685849 -2.760717,-0.79781 -1.629747,-0.138916 -6.401848,-0.0206 0.586077,-0.06833 -1.454031,-0.0014 -2.908718,-0.0056 -4.36189,0.05163 -1.308655,0.07473 -2.617387,0.207995 -3.886247,0.554066 -0.938248,0.242688 -1.827698,0.605692 -2.724795,0.966989 -0.91557,0.375609 -1.846553,0.718922 -2.711397,1.208016 -0.943933,0.552756 -1.890924,1.122722 -2.62124,1.954511 0,0 -4.153507,-0.326887 -4.153507,-0.326887 z"
       inkscape:connector-curvature="0" />
    <path
       style="opacity:1;vector-effect:none;fill:#080808;fill-opacity:1;stroke:#000000;stroke-width:0.17998733px;stroke-linecap:butt;stroke-linejoin:miter;stroke-miterlimit:4;stroke-dasharray:none;stroke-dashoffset:0;stroke-opacity:0.99041533"
       id="path6494"
       d="m 95.229674,18.897931 c -1.076885,-0.415557 -2.19452,-0.6982 -3.310707,-0.98429 -1.320312,-0.308405 -2.646026,-0.570515 -3.995056,-0.711801 -1.440028,-0.125029 -4.067512,-0.145203 2.541804,-0.04594 0.15545,0.0023 -0.310843,0.01186 -0.465697,0.02569 -0.456888,0.04078 -0.462108,0.05684 -0.902989,0.155431 -0.960099,0.224437 -1.856773,0.626615 -2.729173,1.07619 -1.199819,0.699185 -2.302661,1.554949 -3.354808,2.457558 -1.337003,1.223965 -2.555924,2.574316 -3.752149,3.934644 -0.972104,1.130448 -1.839139,2.340387 -2.647844,3.591109 -0.906173,1.41658 -1.457367,3.008444 -1.987224,4.592791 -0.589215,1.647619 -1.035262,3.326969 -1.272825,5.059905 -0.257245,1.7131 -0.0989,3.41601 0.236116,5.103194 0.600159,2.322063 1.04347,4.675104 1.445467,7.038098 0.260862,1.835465 0.596223,3.676899 0.617852,5.535241 -0.107362,1.681002 -1.306838,2.767784 -2.471175,3.838597 -1.694464,1.467184 -3.263342,3.052466 -4.61531,4.840401 -0.958695,1.296086 -1.383939,2.821972 -1.644737,4.386927 -0.263325,1.751456 -0.213398,3.508375 0.01226,5.258131 0.328738,1.793375 0.633247,3.588171 0.796023,5.404845 0.179136,1.530478 -0.177799,3.021243 -0.919652,4.366213 -0.199263,0.361262 -0.437481,0.69962 -0.656223,1.049434 -1.636588,2.301688 -3.42041,4.486768 -4.896409,6.898538 -1.140012,1.98933 -1.65237,4.23715 -2.209452,6.43866 -0.333926,1.38676 -0.791683,2.770003 -0.875871,4.202383 0.06848,0.99197 0.514884,1.90827 1.087185,2.70343 1.339061,1.49324 3.356055,1.79298 5.241508,2.06988 0.916903,0.12003 1.839784,0.17563 2.762354,0.22744 0,0 -4.029986,0.61074 -4.029986,0.61074 v 0 c -0.897642,-0.0701 -1.795723,-0.14173 -2.686808,-0.27521 -1.979443,-0.33436 -4.035601,-0.74769 -5.371584,-2.38552 -0.59615,-0.89558 -1.094258,-1.88385 -1.126574,-2.98145 0.129797,-1.45945 0.631743,-2.858333 0.986973,-4.272233 0.579643,-2.24064 1.102875,-4.53279 2.274824,-6.55501 1.471741,-2.40796 3.239035,-4.60032 4.864487,-6.903551 1.083538,-1.746837 1.712237,-3.059678 1.494773,-5.158601 -0.15187,-1.810647 -0.425523,-3.603675 -0.766375,-5.38841 -0.229351,-1.786708 -0.3017,-3.584443 -0.04867,-5.375403 0.260443,-1.634613 0.698337,-3.230364 1.701165,-4.581592 1.364741,-1.798834 2.924667,-3.413657 4.613678,-4.912855 1.071025,-0.983612 2.24457,-1.964889 2.394442,-3.505361 0.01844,-1.832978 -0.239826,-3.659182 -0.505946,-5.468782 -0.400186,-2.362719 -0.864855,-4.709979 -1.490756,-7.024843 -0.354908,-1.730558 -0.547527,-3.479553 -0.275987,-5.24015 0.253661,-1.756913 0.703329,-3.459414 1.301474,-5.131942 0.527293,-1.61298 1.054837,-3.243159 1.952846,-4.696453 0.813087,-1.27431 1.682556,-2.508015 2.675373,-3.650833 1.206095,-1.367667 2.443683,-2.714104 3.749955,-3.986375 1.034496,-0.934777 2.140147,-1.793187 3.307003,-2.55753 0.868639,-0.478349 1.764362,-0.923056 2.729789,-1.170199 0.454655,-0.142773 0.907655,-0.271331 1.389641,-0.276134 1.886641,-0.0188 3.728751,-0.134705 5.586465,0.0846 1.342264,0.175186 2.664777,0.455278 3.98118,0.768964 1.148497,0.293852 2.293662,0.606773 3.400034,1.037178 0,0 -4.134687,0.484262 -4.134687,0.484262 z"
       inkscape:connector-curvature="0" />
    <path
       style="opacity:1;vector-effect:none;fill:#080808;fill-opacity:1;stroke:#000000;stroke-width:0.17998733px;stroke-linecap:butt;stroke-linejoin:miter;stroke-miterlimit:4;stroke-dasharray:none;stroke-dashoffset:0;stroke-opacity:0.99041533"
       id="path6496"
       d="m 95.985843,17.022804 c 1.416504,-0.219226 2.814053,-0.540879 4.229727,-0.766049 2.99513,-0.423327 6.02534,-0.310527 9.03963,-0.299531 1.52668,0.03955 2.39187,0.302897 3.61309,1.207428 1.36325,1.054802 2.51464,2.360383 3.72181,3.586707 1.18381,1.268004 2.39797,2.505721 3.64763,3.708819 0.93691,1.026002 1.94067,1.987746 2.86155,3.027904 0.91568,1.017828 1.91413,1.975087 2.65682,3.130331 0.76452,1.284341 1.43253,2.616375 2.03736,3.981721 0.61456,1.359757 0.81315,2.825252 0.92034,4.297329 0.0713,1.429429 0.0714,2.861138 0.0601,4.291899 -0.042,1.259609 0.0921,2.512319 0.37161,3.738956 0.25369,0.91975 0.79583,1.712419 1.27791,2.522999 0.82074,1.230194 1.63872,2.462872 2.50486,3.661643 0.98113,1.45971 2.08988,2.821712 2.99487,4.331444 0.68842,1.246051 1.04484,2.621366 1.28262,4.014166 0.28194,1.832442 0.22875,3.6746 -0.0422,5.501736 -0.38335,2.304425 -1.2192,4.493539 -1.85729,6.732264 -0.35685,1.32501 -0.60067,2.683408 -0.59327,4.057725 0.0724,1.318079 0.73212,2.462186 1.35752,3.58794 0.59484,1.019829 1.18096,2.04476 1.70137,3.105256 0.40392,0.843198 0.89443,1.637784 1.38257,2.433426 0.59213,0.85651 1.13469,1.73324 1.55849,2.68518 0.50611,1.31135 0.80569,2.68652 1.12286,4.052 0.41767,1.76622 0.537,3.57917 0.61908,5.38617 0.0847,1.424983 0.0233,2.855433 0.11719,4.279333 0.0665,1.19768 0.25033,2.38094 0.45204,3.56176 0.0555,0.69675 0.63328,1.862 -0.0577,2.4389 -0.17601,0.14693 -0.40652,0.21216 -0.60977,0.31824 -0.32616,0.062 -0.64939,0.14195 -0.97847,0.18583 -1.86856,0.24917 -3.76913,0.24961 -5.64851,0.33015 -1.73826,0.0745 -3.47559,0.16928 -5.21339,0.25354 -3.67111,0.2192 -7.37256,0.22552 -11.00692,0.84029 -0.12128,0.0286 -1.21047,0.24043 -1.20969,0.53539 1.8e-4,0.0946 0.0997,0.16075 0.14745,0.24236 0.35964,0.3877 0.81352,0.66233 1.30336,0.8522 0,0 -4.12867,0.47198 -4.12867,0.47198 v 0 c -0.52205,-0.27917 -1.03369,-0.6114 -1.33794,-1.13552 -0.43935,-1.04318 0.31295,-1.3199 1.23051,-1.53182 3.74618,-0.61326 7.55469,-0.61774 11.33664,-0.83666 1.70928,-0.0879 3.41778,-0.19133 5.12743,-0.27157 2.10616,-0.0988 4.22244,-0.12216 6.31259,-0.43228 0.21912,-0.0451 0.63549,-0.0484 0.79211,-0.29953 0.29265,-0.46916 -0.15764,-1.38835 -0.15049,-1.89246 -0.20314,-1.19581 -0.40376,-2.39357 -0.4642,-3.60715 -0.0711,-1.42652 0.0184,-2.85766 -0.0557,-4.285013 -0.0776,-1.78253 -0.20065,-3.57021 -0.63197,-5.30843 -0.33302,-1.33926 -0.64179,-2.69073 -1.17073,-3.97021 -0.44359,-0.92702 -0.99887,-1.78126 -1.56912,-2.63502 -0.49843,-0.803154 -0.98287,-1.615788 -1.38218,-2.473999 -0.51178,-1.051911 -1.08461,-2.071795 -1.66508,-3.086923 -0.64929,-1.188985 -1.31091,-2.4065 -1.38204,-3.790632 -0.0112,-1.420425 0.28248,-2.814578 0.67531,-4.175861 0.67442,-2.209106 1.51576,-4.379974 1.86169,-6.675066 0.25672,-1.78745 0.28002,-3.584597 -0.0158,-5.372246 -0.24576,-1.342448 -0.6068,-2.665614 -1.2757,-3.866045 -0.89317,-1.496485 -1.97536,-2.860186 -2.95881,-4.297221 -0.88661,-1.212766 -1.74787,-2.445406 -2.58498,-3.692752 -0.51103,-0.842693 -1.05109,-1.683947 -1.27801,-2.65693 -0.26469,-1.258793 -0.36933,-2.541873 -0.33578,-3.828449 -0.005,-1.420397 0.0163,-2.842179 -0.0618,-4.261096 -0.10564,-1.4249 -0.30885,-2.842536 -0.90565,-4.1568 -0.60357,-1.345184 -1.27767,-2.656612 -2.05587,-3.910317 -0.77995,-1.106935 -1.73414,-2.073778 -2.64338,-3.07404 -0.93013,-1.02055 -1.9206,-1.984886 -2.85512,-3.001819 -1.22557,-1.216265 -2.41849,-2.463507 -3.60394,-3.718831 -1.21027,-1.21409 -2.36669,-2.510232 -3.77055,-3.505816 -1.21821,-0.772432 -2.1315,-0.956178 -3.57126,-0.975843 7.34882,-0.04682 0.58931,-0.05084 -1.0041,0.246466 -1.38426,0.200362 -2.75028,0.496142 -4.11809,0.785753 0,0 -4.123888,-0.593306 -4.123888,-0.593306 z"
       inkscape:connector-curvature="0" />
    <path
       style="opacity:1;vector-effect:none;fill:#080808;fill-opacity:1;stroke:#000000;stroke-width:0.26458332px;stroke-linecap:butt;stroke-linejoin:miter;stroke-miterlimit:4;stroke-dasharray:none;stroke-dashoffset:0;stroke-opacity:0.99041533"
       id="path6500"
       d="m 72.893451,122.30489 c 0.203732,1.1546 0.780584,2.16754 1.552797,3.03242 1.102641,1.17702 2.560103,1.87925 3.999571,2.55032 2.027407,1.01119 4.265092,1.24605 6.49014,1.41662 0.440806,0.0207 0.881446,0.0454 1.322424,0.062 5.26642,0.19887 -7.189851,0.17485 -1.805802,-0.0397 0.479753,-0.0191 0.959381,-0.0412 1.439053,-0.0623 0.463899,-0.0204 0.927769,-0.0414 1.391652,-0.0621 2.80524,-0.21449 5.610487,-0.40491 8.422016,-0.51309 2.475624,-0.10284 4.940288,-0.34691 7.404138,-0.59714 2.26311,-0.26147 4.52396,-0.54212 6.78667,-0.8071 1.62328,-0.17799 3.25312,-0.28622 4.88509,-0.33604 3.16403,-0.0501 6.32895,-0.028 9.49325,-0.0191 1.60011,0.004 3.20022,0.008 4.80034,0.008 0.69101,-0.0891 1.36255,0.0862 2.04234,0.15155 0.10235,0.01 0.41109,-0.008 0.30847,-0.001 -6.30008,0.39409 -4.76622,1.85096 -6.41937,0.17399 -0.64136,-0.43582 -1.28076,-0.86863 -1.80747,-1.4413 -0.85639,-0.70171 -1.55402,-1.56111 -2.28434,-2.38678 -1.12484,-1.26653 -2.24458,-2.54205 -3.23211,-3.91975 -0.97549,-1.45238 -1.80217,-2.99952 -2.56538,-4.57191 -0.52713,-1.17132 -0.94018,-2.38417 -1.19557,-3.64263 0,0 6.08778,-0.12153 6.08778,-0.12153 v 0 c 0.24271,1.20367 0.64734,2.36596 1.13467,3.49216 0.74667,1.54529 1.57725,3.05577 2.56222,4.46346 1.00359,1.3485 2.0996,2.62757 3.24541,3.85717 0.74744,0.81729 1.50636,1.61621 2.34073,2.34615 0.59377,0.52494 1.29093,0.92598 1.82903,1.51214 0.0707,0.1039 0.33532,0.28696 0.2121,0.31169 -1.97189,0.39584 -3.97945,0.58829 -5.97423,0.84498 -0.0903,0.0116 -0.17955,-0.0305 -0.2699,-0.0415 -0.65223,-0.0795 -1.3087,-0.0994 -1.96546,-0.0842 -1.61696,-0.002 -3.23392,0.001 -4.85088,-2.6e-4 -2.63112,-0.001 1.00255,5.3e-4 4.82914,-2.7e-4 0.18432,-5e-5 -0.36863,-0.001 -0.55295,-0.001 -0.3963,-5.3e-4 -0.77989,-2.6e-4 -1.1763,0.002 -0.19709,10e-4 -0.39417,0.003 -0.59126,0.005 -1.65713,0.0273 -3.31343,0.1057 -4.96314,0.26991 -2.26711,0.24715 -4.52916,0.53793 -6.79276,0.81472 -2.48318,0.23843 -4.9621,0.51177 -7.45561,0.6273 -2.813251,0.0915 -5.622131,0.25376 -8.425794,0.50745 -4.695301,0.20279 -9.404413,0.42463 -14.098764,0.0813 -2.270297,-0.21717 -4.522216,-0.55755 -6.573877,-1.62171 -1.493176,-0.72443 -2.98531,-1.52444 -4.082468,-2.8047 -0.766813,-0.97915 -1.325367,-2.06697 -1.615885,-3.28369 0,0 6.120289,-0.17037 6.120289,-0.17037 z"
       inkscape:connector-curvature="0" />
  </g>
  <g
     inkscape:groupmode="layer"
     id="layer12"
     inkscape:label="idle"
     sodipodi:insensitive="true"
     style="display:none">
    <path
       style="opacity:1;vector-effect:none;fill:#000000;fill-opacity:1;fill-rule:nonzero;stroke:#000000;stroke-width:0.26458332px;stroke-linecap:butt;stroke-linejoin:miter;stroke-miterlimit:4;stroke-dasharray:none;stroke-dashoffset:0;stroke-opacity:0"
       id="path6573"
       d="m 68.157084,86.989019 c -0.730512,2.019507 -1.350706,4.076536 -1.969516,6.132293 -0.961877,3.190317 -1.750581,6.420779 -2.401332,9.687308 -0.743897,3.60859 -1.426797,7.22572 -1.852112,10.88655 -0.304996,2.294 -0.521999,4.59753 -0.802312,6.89428 -0.257728,1.89814 -0.68048,3.767 -1.048242,5.64538 -0.408012,1.84594 -0.749041,3.70776 -1.039752,5.57578 -0.162489,1.44872 -0.288055,2.89761 -0.481169,4.34306 -0.134355,0.90469 -0.216855,1.80035 -0.08879,2.70714 0.169024,0.81061 0.159655,1.64556 0.306507,2.45732 0.09734,0.77385 0.330983,1.50356 0.540819,2.24958 0.128558,0.72059 0.423923,1.37926 0.789918,2.00711 0.311976,0.59315 0.697318,1.18011 1.192038,1.63736 0.06688,0.0556 0.133752,0.11111 0.200629,0.16667 0,0 -6.118445,0.49963 -6.118445,0.49963 v 0 c -0.06528,-0.0691 -0.130567,-0.1381 -0.19585,-0.20715 -0.454435,-0.55566 -0.874088,-1.13928 -1.189815,-1.787 -0.359368,-0.67959 -0.643964,-1.38992 -0.799238,-2.14602 -0.222459,-0.76405 -0.410929,-1.52929 -0.531262,-2.31744 -0.131519,-0.82185 -0.148034,-1.65915 -0.305326,-2.47873 -0.122706,-0.96494 -0.04363,-1.91638 0.119943,-2.87489 0.220893,-1.44694 0.371375,-2.89683 0.535694,-4.351 0.300106,-1.87394 0.648153,-3.74318 1.062101,-5.59492 0.349353,-1.86811 0.762677,-3.72459 1.046165,-5.60471 0.2803,-2.30225 0.559933,-4.60372 0.928595,-6.89416 0.485468,-3.66603 1.155766,-7.30136 1.87488,-10.92831 0.645504,-3.280009 1.39945,-6.529807 2.329429,-9.742317 0.586872,-2.045922 1.194294,-4.085838 1.776148,-6.133184 0,0 6.120291,0.17037 6.120291,0.17037 z"
       inkscape:connector-curvature="0" />
    <path
       style="opacity:1;vector-effect:none;fill:#000000;fill-opacity:1;fill-rule:nonzero;stroke:#000000;stroke-width:0.26458332px;stroke-linecap:butt;stroke-linejoin:miter;stroke-miterlimit:4;stroke-dasharray:none;stroke-dashoffset:0;stroke-opacity:0"
       id="path6575"
       d="m 131.89965,94.246 c 0.2993,1.919521 0.86275,3.785111 1.46056,5.629283 0.63535,1.846197 1.33778,3.669377 1.89983,5.539927 0.36829,1.52278 0.70517,3.05065 1.1537,4.55249 0.39939,1.4295 0.82199,2.85415 1.30521,4.25815 0.67891,1.87024 1.3078,3.75878 1.90001,5.65849 0.54331,1.8441 1.0262,3.70691 1.47321,5.57671 0.49528,1.75215 0.94195,3.51735 1.41322,5.27626 0.401,1.59457 0.70594,3.21412 0.94525,4.84058 0.20083,1.54103 0.24459,3.09615 0.28153,4.64793 0.0856,1.14706 -0.0105,2.25579 -0.39259,3.33984 -0.53865,1.23098 -1.45438,2.26069 -2.42682,3.17004 -0.95794,0.90985 -2.13254,1.4611 -3.34703,1.93553 -1.12323,0.41612 -2.3137,0.55823 -3.50066,0.64084 0,0 -6.02386,-0.9219 -6.02386,-0.9219 v 0 c 1.1784,-0.0412 2.36716,-0.11924 3.50302,-0.4601 1.19267,-0.39382 2.36461,-0.88086 3.32791,-1.70885 0.96012,-0.79039 1.8144,-1.75482 2.37973,-2.86794 0.37929,-1.00849 0.48807,-2.03938 0.42124,-3.11679 -0.0173,-1.52589 -0.0573,-3.05522 -0.26425,-4.56926 -0.24154,-1.60186 -0.53367,-3.2001 -0.92001,-4.77345 -0.46639,-1.76582 -0.93579,-3.53054 -1.41712,-5.29209 -0.43951,-1.85668 -0.90117,-3.71072 -1.45633,-5.53643 -0.58746,-1.89703 -1.21513,-3.78205 -1.92316,-5.63767 -0.49607,-1.41272 -0.94419,-2.84144 -1.33406,-4.28724 -0.43201,-1.50246 -0.74115,-3.03457 -1.12699,-4.54904 -0.55958,-1.86064 -1.21882,-3.68961 -1.84243,-5.52935 -0.60028,-1.863849 -1.14867,-3.742034 -1.60941,-5.645587 0,0 6.1203,-0.170373 6.1203,-0.170373 z"
       inkscape:connector-curvature="0" />
  </g>
  <g
     inkscape:groupmode="layer"
     id="layer15"
     inkscape:label="bat 1"
     style="display:inline"
     sodipodi:insensitive="true">
    <path
       style="fill:#bcaa85;fill-opacity:1;stroke:#000000;stroke-width:0.30095655px;stroke-linecap:butt;stroke-linejoin:miter;stroke-opacity:0.33865817"
       d="m 143.3101,84.108404 24.52069,-18.856466 25.08338,-31.129849 -15.16899,-4.733835 -21.9862,22.154024 z"
       id="path6603"
       inkscape:connector-curvature="0" />
  </g>
  <g
     inkscape:groupmode="layer"
     id="layer19"
     inkscape:label="swing 1"
     style="display:inline">
    <path
       style="fill:#ad7351;fill-opacity:1;stroke:#000000;stroke-width:0.23716749px;stroke-linecap:butt;stroke-linejoin:miter;stroke-opacity:0"
       d="m 133.48095,101.10727 21.93908,14.12272 -25.36987,1.58172 -20.53585,-0.93178 -5.97338,2.39813 -29.268666,-4.25358 -14.229352,0.90156 -0.950072,-16.64492 26.791068,2.56573 24.286422,-1.93696 13.30055,-1.22524 z"
       id="path6690"
       inkscape:connector-curvature="0" />
  </g>
  <g
     inkscape:groupmode="layer"
     id="layer18"
     inkscape:label="swing">
    <path
       style="opacity:1;vector-effect:none;fill:#020202;fill-opacity:1;fill-rule:nonzero;stroke:#000000;stroke-width:0.26458332px;stroke-linecap:butt;stroke-linejoin:miter;stroke-miterlimit:4;stroke-dasharray:none;stroke-dashoffset:0;stroke-opacity:0"
       id="path6681"
       d="m 64.339927,94.326873 c 1.367467,1.511121 3.12888,2.579585 4.916072,3.519072 2.737218,1.389771 5.633482,1.915228 8.651399,2.245965 3.746762,0.32096 7.51202,0.30888 11.269495,0.3185 -1.244195,-0.0139 -2.493531,0.0721 -3.732588,-0.0418 -0.69601,-0.0639 1.396651,-0.0616 2.093997,-0.10876 3.021732,-0.20436 6.01023,-0.680757 9.003419,-1.125114 4.287679,-0.661717 8.591339,-1.214294 12.888529,-1.810318 2.19357,-0.41322 4.37654,-0.878357 6.56619,-1.312694 0.95516,-0.20837 1.91373,-0.381997 2.84968,-0.665847 0.79409,-0.209057 1.58269,-0.438027 2.37123,-0.667724 0.92702,-0.2392 1.83109,-0.548074 2.77225,-0.728623 0.70134,-0.107987 1.41037,-0.139288 2.11835,-0.166201 0,0 6.01922,0.936031 6.01922,0.936031 v 0 c -0.7007,0.0127 -1.40144,0.0295 -2.09989,0.0921 -0.95124,0.10963 -1.84331,0.39931 -2.76103,0.654317 -0.7864,0.21632 -1.5616,0.477097 -2.35084,0.670757 -0.39381,0.1032 -0.77741,0.266937 -1.17176,0.360627 -0.57799,0.13732 -1.1865,0.16037 -1.75719,0.338027 -2.24212,0.48538 -4.52038,0.815967 -6.75861,1.327854 -4.33128,0.569847 -8.66701,1.116034 -12.98379,1.788171 -2.263947,0.342077 -4.531995,0.720037 -6.806836,0.983417 -3.984636,0.46134 -8.006628,0.43179 -12.010581,0.38438 -3.776567,-0.0177 -7.563384,-0.001 -11.325463,-0.37673 -3.119382,-0.38819 -5.944256,-0.977457 -8.754052,-2.457601 -1.852366,-1.020874 -3.665156,-2.165788 -5.110239,-3.733129 0,0 6.103038,-0.424677 6.103038,-0.424677 z"
       inkscape:connector-curvature="0" />
    <path
       style="opacity:1;vector-effect:none;fill:#020202;fill-opacity:1;fill-rule:nonzero;stroke:#000000;stroke-width:0.26458332px;stroke-linecap:butt;stroke-linejoin:miter;stroke-miterlimit:4;stroke-dasharray:none;stroke-dashoffset:0;stroke-opacity:0"
       id="path6683"
       d="m 60.116039,95.647513 c 0.270222,1.292662 0.431472,2.60508 0.675548,3.901501 0.20787,1.214466 0.380055,2.431726 0.681461,3.627576 0.234077,1.21615 0.839033,2.27444 1.469832,3.31926 0.660037,1.1344 1.584848,2.04913 2.479656,2.99021 1.09198,1.1163 2.355667,2.00664 3.716716,2.75946 2.06253,1.04606 4.3435,1.52596 6.58536,2.01907 2.692752,0.53004 5.438121,0.68115 8.16602,0.9318 2.375422,0.16537 4.740281,0.43117 7.11799,0.56645 0.478494,0.0193 0.956877,0.0417 1.435487,0.0579 1.014444,0.0344 2.071791,0.0559 3.086161,0.0713 0.53617,0.008 2.14479,0.0221 1.60857,0.0191 -4.994295,-0.0277 -5.468381,0.0123 -2.58771,-0.09 3.01553,-0.10117 5.98752,-0.56191 8.94677,-1.11518 2.08836,-0.36957 4.12128,-0.96582 6.10464,-1.70805 1.26356,-0.4563 2.34341,-1.26875 3.47843,-1.96568 1.68958,-1.00686 3.37334,-2.01065 4.9566,-3.1801 1.04874,-0.83849 1.92485,-1.85921 2.90669,-2.77065 0.84035,-0.72365 1.57781,-1.55225 2.24582,-2.43465 0.511,-0.70396 0.80145,-1.53597 1.04932,-2.36236 0.21126,-0.781692 0.24415,-1.592764 0.26667,-2.397452 -0.0558,-1.02511 -0.745,-1.770949 -1.39229,-2.500246 0,0 6.05777,-0.431321 6.05777,-0.431321 v 0 c 0.72291,0.864475 1.41327,1.772597 1.44722,2.948492 -0.0235,0.856451 -0.061,1.718382 -0.27216,2.553127 -0.25226,0.8963 -0.56624,1.79653 -1.07523,2.58101 -0.67842,0.91681 -1.40548,1.80321 -2.27666,2.54654 -1.01549,0.91601 -1.91985,1.94063 -2.96215,2.82757 -1.5843,1.18524 -3.2599,2.21407 -4.9512,3.23705 -1.1578,0.69617 -2.21276,1.57421 -3.47484,2.08254 -2.03503,0.74526 -4.09861,1.41433 -6.23882,1.79349 -2.97844,0.55149 -5.95734,1.08309 -8.99356,1.19552 -5.07547,0.20494 -10.163085,0.15188 -15.23756,-0.0638 -2.381946,-0.14848 -4.75533,-0.39803 -7.134469,-0.58412 -2.728489,-0.25878 -5.475142,-0.42444 -8.160218,-1.00794 -2.292517,-0.51378 -4.616558,-1.04753 -6.693897,-2.18753 -1.378726,-0.81527 -2.658872,-1.76376 -3.768455,-2.92694 -0.93616,-0.95782 -1.815923,-1.96296 -2.494436,-3.12612 -0.657538,-1.09562 -1.235822,-2.23232 -1.484474,-3.49878 -0.301072,-1.20973 -0.465471,-2.44048 -0.676,-3.667869 -0.228508,-1.310588 -0.379923,-2.636372 -0.732565,-3.923337 0,0 6.123963,-0.0869 6.123963,-0.0869 z"
       inkscape:connector-curvature="0" />
    <path
       style="opacity:1;vector-effect:none;fill:#020202;fill-opacity:1;fill-rule:nonzero;stroke:#000000;stroke-width:0.26458332px;stroke-linecap:butt;stroke-linejoin:miter;stroke-miterlimit:4;stroke-dasharray:none;stroke-dashoffset:0;stroke-opacity:0"
       id="path6687"
       d="m 115.57445,115.07228 c 2.07651,0.61343 4.2216,0.94124 6.36762,1.19519 2.28336,0.23541 4.58011,0.27632 6.87355,0.29663 2.1175,0.007 6.37472,0.006 -3.26217,0.002 -0.29686,-1.2e-4 0.5937,-1.2e-4 0.89055,-5.3e-4 0.83006,-7.9e-4 0.91933,-0.002 1.73259,-0.004 1.98505,0.0132 3.96713,0.008 5.94948,-0.10099 2.7487,-0.26756 5.48785,-0.62771 8.23289,-0.93564 2.17204,-0.23479 4.34423,-0.44861 6.51118,-0.72718 1.27686,-0.17324 2.57062,-0.17573 3.83197,-0.45261 0.14187,-0.0617 0.33728,-0.0928 0.3854,-0.27615 0.0898,-0.34195 -0.49058,-1.14222 -0.65414,-1.40079 -0.89934,-1.22555 -1.96275,-2.31767 -3.02333,-3.40233 -0.96198,-1.03629 -2.02137,-1.96492 -3.08831,-2.8894 -0.99152,-0.87643 -1.95514,-1.77898 -2.97322,-2.6245 -1.02743,-1.00859 -2.25083,-1.73027 -3.46033,-2.48814 -1.49095,-0.95866 -3.11015,-1.68029 -4.6659,-2.52397 -1.04012,-0.458736 -1.94755,-1.163658 -3.00127,-1.590295 -0.11919,-0.07061 -0.23838,-0.141222 -0.35758,-0.211831 0,0 6.08011,-0.653487 6.08011,-0.653487 v 0 c 0.11474,0.05722 0.22949,0.114449 0.34423,0.171673 0.99601,0.516215 1.93014,1.145177 2.94078,1.635477 1.55959,0.839293 3.16377,1.597843 4.65448,2.559913 1.24744,0.75712 2.44376,1.56711 3.51029,2.57112 1.01062,0.8528 1.9634,1.76851 2.96001,2.63748 1.07213,0.93834 2.13105,1.89034 3.09542,2.9417 1.07339,1.12842 2.14483,2.26808 3.05904,3.53221 0.5234,0.87906 1.12912,1.92743 0.24758,2.79201 -1.25435,0.46259 -2.60649,0.37862 -3.91774,0.54182 -2.2017,0.26271 -4.40173,0.51339 -6.60994,0.7181 -2.73226,0.32137 -5.46732,0.61408 -8.19468,0.97446 -1.9653,0.12591 -3.92754,0.17837 -5.89748,0.14396 -3.75014,0.004 -7.50047,0.0277 -11.25049,-0.009 -2.2819,-0.0376 -4.5672,-0.099 -6.83558,-0.37024 -2.20078,-0.29205 -4.38628,-0.68 -6.53515,-1.24501 0,0 6.06014,-0.8082 6.06014,-0.8082 z"
       inkscape:connector-curvature="0" />
  </g>
  <g
     inkscape:groupmode="layer"
     id="layer14"
     inkscape:label="bat"
     sodipodi:insensitive="true">
    <path
       style="opacity:1;vector-effect:none;fill:#000000;fill-opacity:1;fill-rule:nonzero;stroke:#000000;stroke-width:0.33253187px;stroke-linecap:butt;stroke-linejoin:miter;stroke-miterlimit:4;stroke-dasharray:none;stroke-dashoffset:0;stroke-opacity:0.61341852"
       id="path6600"
       d="m 140.59079,85.407654 c 1.96496,-1.7315 3.78717,-3.61452 5.70588,-5.39684 2.53136,-2.30338 5.13645,-4.52294 7.71003,-6.7783 1.81465,-1.50018 3.61101,-3.02358 5.1918,-4.77304 0.94712,-0.99704 1.81479,-2.06259 2.71713,-3.09926 1.23865,-1.42574 2.45705,-2.86629 3.73347,-4.25921 1.52498,-1.71891 3.20998,-3.28037 4.83125,-4.90501 1.45951,-1.4944 2.94865,-2.96224 4.36114,-4.50157 1.29829,-1.51212 2.60639,-3.01478 3.97403,-4.46476 1.20451,-1.22997 2.41493,-2.4517 3.56177,-3.73607 0.61809,-0.72116 1.30764,-1.38418 1.90478,-2.12218 0.47285,-0.65141 0.98176,-1.27476 1.46729,-1.91644 0.3614,-0.50609 0.60374,-1.08637 0.86979,-1.64644 0.20124,-0.42253 0.27246,-0.87753 0.2985,-1.33976 0.0499,-0.56882 0.0288,-1.09942 -0.12698,-1.64533 -0.37829,-0.67241 -0.49094,-1.46292 -0.96307,-2.07696 -0.58642,-0.74817 -1.35337,-1.22062 -2.25619,-1.48636 -0.96321,-0.0625 -1.84289,-0.41763 -2.74424,-0.729 -1.06581,-0.27682 -2.03486,-0.80994 -3.08199,-1.14287 -0.71935,-0.33614 -1.57976,-0.90428 -2.39836,-0.69051 2.46059,-0.003 4.92118,-0.008 7.38175,-0.006 0.15875,5e-5 -0.32526,0.0264 -0.46544,0.10079 -0.33753,0.17935 -0.60775,0.46351 -0.88344,0.72122 -0.82829,0.96602 -1.6294,1.95181 -2.48656,2.89424 -1.28337,1.48923 -2.80262,2.73518 -4.31547,3.9795 -1.71733,1.36274 -3.30143,2.87904 -4.9369,4.33556 -1.52981,1.41305 -3.00576,2.88755 -4.42074,4.41555 -1.54964,1.67228 -2.98774,3.44079 -4.37837,5.24589 -1.35251,1.75255 -2.63475,3.54444 -3.73011,5.46908 -0.99417,1.7172 -1.73434,3.56522 -2.5524,5.36947 -0.71691,1.80584 -1.5031,3.58297 -2.19131,5.40013 -0.523,1.47063 -1.19539,2.86596 -1.96823,4.21919 -0.90562,1.42048 -1.71624,2.89716 -2.58147,4.34198 -0.87636,1.32554 -1.70633,2.68055 -2.53025,4.03915 -0.55146,0.94382 -0.99657,1.94278 -1.51821,2.90152 -0.44147,0.89035 -0.90545,1.76763 -1.37919,2.64163 -0.5263,0.93943 -1.00711,1.90309 -1.51393,2.85301 -0.39426,0.74218 -0.72821,1.51979 -1.17926,2.23007 -0.30689,0.572405 -0.70846,1.057105 -1.13653,1.540785 -0.72167,0.85965 -1.43234,1.72253 -2.12282,2.60821 -1.96908,2.5239 -1.45196,0.99757 -7.97053,-0.20246 -0.19768,-0.0365 0.30706,-0.25972 0.46632,-0.38236 0.1987,-0.15301 0.40479,-0.29619 0.60719,-0.44428 1.85449,-1.39479 3.60087,-2.924995 5.37857,-4.414645 1.99185,-1.72116 4.03445,-3.3828 6.03037,-5.09886 1.59253,-1.35083 3.09094,-2.80764 4.67284,-4.1707 1.13217,-0.88992 2.23657,-1.80404 3.25792,-2.81942 0,0 7.63993,0.61656 7.63993,0.61656 v 0 c -1.07185,0.99534 -2.1022,2.03488 -3.31305,2.87266 -1.64585,1.30001 -3.11617,2.8023 -4.72351,4.14714 -1.98621,1.74214 -4.10087,3.33621 -6.06361,5.10754 -1.76093,1.490105 -3.50642,2.996965 -5.2701,4.483795 -0.19177,0.13456 -0.38704,0.26431 -0.57534,0.40371 -0.14762,0.10934 -0.24831,0.34209 -0.43199,0.34211 -13.03523,0.001 -9.38776,1.40374 -7.36234,-0.96152 0.72119,-0.86346 1.39997,-1.75829 2.09349,-2.63622 0.40684,-0.48232 0.86724,-0.879255 1.11839,-1.473035 0.52326,-0.63504 0.83096,-1.41016 1.20977,-2.13696 0.53269,-0.93021 0.98369,-1.90164 1.50917,-2.83532 0.45216,-0.89558 0.98652,-1.74528 1.38762,-2.66634 0.5597,-0.95101 0.976,-1.97985 1.55424,-2.92182 0.82071,-1.3644 1.6729,-2.71247 2.5531,-4.03921 0.87741,-1.42929 1.6599,-2.91461 2.57514,-4.32106 0.7505,-1.32492 1.44287,-2.67216 1.97587,-4.10224 0.70299,-1.8311 1.5151,-3.61631 2.22604,-5.4441 0.82014,-1.82561 1.54176,-3.7073 2.55381,-5.43756 1.09799,-1.96232 2.38468,-3.79308 3.75103,-5.57787 1.40784,-1.81067 2.82034,-3.61775 4.37685,-5.30521 1.39711,-1.57216 2.901,-3.04744 4.41825,-4.50315 1.66739,-1.43511 3.23223,-2.98805 4.95625,-4.35916 1.48634,-1.21057 2.973,-2.43173 4.24492,-3.87347 0.85664,-0.94108 1.68533,-1.90565 2.42829,-2.94046 2.71922,-2.8243 2.4524,-1.81719 9.26145,-1.3936 0.82305,0.24846 1.59861,0.60248 2.38947,0.93527 1.02156,0.39764 2.02977,0.83122 3.08575,1.1344 0.91171,0.30885 1.86053,0.44762 2.76585,0.76655 0.92164,0.46695 1.72964,1.08847 2.30205,1.96444 0.39948,0.73664 0.65528,1.53903 0.98825,2.30716 0.16353,0.62661 0.18464,1.24999 0.14283,1.89526 -0.0335,0.56328 -0.0959,1.10938 -0.31114,1.63826 -0.29155,0.61062 -0.57322,1.21349 -0.89809,1.80733 -0.49307,0.63316 -0.96851,1.27064 -1.4744,1.88995 -0.52976,0.82329 -1.29451,1.47179 -1.94648,2.1975 -1.14788,1.31813 -2.42975,2.51163 -3.65333,3.7591 -1.37542,1.42695 -2.64206,2.94448 -3.93604,4.44503 -1.3935,1.58357 -2.96262,3.00295 -4.41009,4.53679 -1.61089,1.62245 -3.28881,3.17508 -4.82263,4.87327 -1.25999,1.38287 -2.45173,2.81967 -3.65973,4.24621 -0.90841,1.04348 -1.73921,2.15285 -2.74594,3.10718 -1.59806,1.80654 -3.4444,3.36143 -5.33126,4.85698 -2.58686,2.2338 -5.18568,4.45259 -7.7186,6.74804 -1.85445,1.77015 -3.6577,3.58711 -5.47625,5.39237 0,0 -7.67372,-0.60393 -7.67372,-0.60393 z"
       inkscape:connector-curvature="0" />
  </g>
  <g
     inkscape:groupmode="layer"
     id="layer17"
     inkscape:label="prep 1"
     sodipodi:insensitive="true"
     style="display:none">
    <path
       style="fill:#ad7351;fill-opacity:1;stroke:#000000;stroke-width:0.26458332px;stroke-linecap:butt;stroke-linejoin:miter;stroke-opacity:0.09265173"
       d="m 63.624388,85.778405 -8.449823,19.582235 -6.063261,24.87855 -9.91136,2.40812 7.09495,4.54783 7.916635,-2.96027 2.667481,2.5044 v 0 l 12.44295,2.22316 20.631536,-5.77683 31.353294,-12.17801 9.49715,-10.10405 11.09262,-6.85427 -8.00227,-6.986886 -7.76866,-0.939572 -23.38058,11.479688 -32.524473,12.53188 1.512287,-7.52231 1.715405,-11.19903 z"
       id="path6633"
       inkscape:connector-curvature="0" />
  </g>
  <g
     inkscape:groupmode="layer"
     id="layer16"
     inkscape:label="prep"
     sodipodi:insensitive="true"
     style="display:none">
    <path
       style="opacity:1;vector-effect:none;fill:#000000;fill-opacity:0.90734821;fill-rule:nonzero;stroke:#000000;stroke-width:0.26458332px;stroke-linecap:butt;stroke-linejoin:miter;stroke-miterlimit:4;stroke-dasharray:none;stroke-dashoffset:0;stroke-opacity:0.00958467"
       id="path6614"
       d="m 66.457718,86.583855 c -0.941046,1.50522 -1.771843,3.072254 -2.643283,4.617315 -1.075356,1.90283 -2.044602,3.862046 -3.050659,5.801701 -1.147633,2.210038 -2.014757,4.540529 -2.968265,6.835189 -0.716698,1.67407 -1.492922,3.32727 -2.015815,5.07489 -0.233043,0.91705 -0.503193,1.81694 -0.635021,2.75574 -0.106654,1.06531 -0.304898,2.11909 -0.534731,3.16397 -0.288557,1.18151 -0.696545,2.3264 -1.084887,3.47713 -0.37733,1.26593 -0.929455,2.4738 -1.499658,3.663 -0.798698,1.54666 -1.671122,3.05494 -2.560836,4.55074 -0.843698,1.26814 -1.748393,2.49266 -2.580889,3.76858 -0.541644,0.87983 -1.071901,1.76899 -1.585166,2.66622 -0.476994,0.79578 -0.966293,1.58337 -1.430724,2.38687 -0.349626,0.64703 -0.686409,1.29972 -1.056905,1.93514 0,0 -6.106948,-0.32223 -6.106948,-0.32223 v 0 c 0.370792,-0.63802 0.751734,-1.26669 1.070142,-1.93471 0.468119,-0.79684 0.925737,-1.59864 1.425871,-2.37609 0.504452,-0.92332 1.100979,-1.79312 1.616149,-2.71024 0.850371,-1.26791 1.761559,-2.48999 2.636525,-3.74058 0.8993,-1.46553 1.724208,-2.97235 2.526628,-4.49274 0.553601,-1.1692 1.099484,-2.35094 1.47139,-3.59172 0.381135,-1.12958 0.789075,-2.25008 1.078244,-3.40802 0.216085,-1.03128 0.431461,-2.06648 0.507851,-3.11952 0.133872,-0.97632 0.399228,-1.91033 0.679532,-2.8525 0.557896,-1.76842 1.373315,-3.43527 2.117807,-5.13019 0.968976,-2.30198 1.859069,-4.636422 2.956746,-6.883075 0.996198,-1.950231 1.979715,-3.906711 3.035088,-5.826107 0.86079,-1.517293 1.658175,-3.071421 2.510491,-4.59278 0,0 6.121323,0.284017 6.121323,0.284017 z"
       inkscape:connector-curvature="0" />
    <path
       style="opacity:1;vector-effect:none;fill:#000000;fill-opacity:0.90734821;fill-rule:nonzero;stroke:#000000;stroke-width:0.26458332px;stroke-linecap:butt;stroke-linejoin:miter;stroke-miterlimit:4;stroke-dasharray:none;stroke-dashoffset:0;stroke-opacity:0.00958467"
       id="path6620"
       d="m 40.223305,136.40599 c 1.539213,-0.36715 3.090214,-0.68495 4.637912,-1.01472 1.527617,-0.34671 3.035697,-0.78664 4.530501,-1.25509 1.0357,-0.29002 1.920695,-0.83693 2.685362,-1.58046 0.799139,-0.84509 1.514551,-1.76169 2.276594,-2.6397 0.883549,-0.93481 1.56664,-2.00909 2.205992,-3.11728 0.591884,-1.05434 1.194054,-2.10155 1.817087,-3.13794 0.527225,-0.82325 1.118502,-1.60276 1.704126,-2.38485 0.455178,-0.74732 1.002271,-1.42101 1.565153,-2.08775 0.539065,-0.6367 1.079344,-1.27657 1.557777,-1.96079 0.461269,-0.55343 0.758976,-1.14135 0.900909,-1.84419 0.0975,-0.39221 0.193638,-0.7843 0.281077,-1.17887 0,0 6.112185,0.12991 6.112185,0.12991 v 0 c -0.08189,0.38953 -0.168728,0.77763 -0.274074,1.16166 -0.133641,0.77376 -0.362736,1.50207 -0.916131,2.08644 -0.452281,0.73061 -1.02525,1.37117 -1.567487,2.034 -0.557527,0.65966 -1.152855,1.28405 -1.562602,2.05381 -0.583052,0.76906 -1.179523,1.52468 -1.720546,2.32482 -0.638199,1.0248 -1.249071,2.06432 -1.842222,3.11572 -0.635797,1.14646 -1.300964,2.27477 -2.203662,3.23697 -0.760264,0.88803 -1.49475,1.79141 -2.257129,2.67761 -0.769897,0.83513 -1.640731,1.52662 -2.740014,1.88068 -1.521367,0.46284 -3.047288,0.91526 -4.589034,1.3044 -1.514464,0.30993 -3.019165,0.65995 -4.530185,0.98477 0,0 -6.071589,-0.78915 -6.071589,-0.78915 z"
       inkscape:connector-curvature="0" />
    <path
       style="opacity:1;vector-effect:none;fill:#000000;fill-opacity:0.90734821;fill-rule:nonzero;stroke:#000000;stroke-width:0.26458332px;stroke-linecap:butt;stroke-linejoin:miter;stroke-miterlimit:4;stroke-dasharray:none;stroke-dashoffset:0;stroke-opacity:0.00958467"
       id="path6630"
       d="m 126.12563,96.122812 c -2.2879,1.097404 -4.55805,2.22917 -6.85161,3.315128 -4.80573,2.26133 -9.59778,4.54649 -14.45482,6.69656 -5.496028,2.34452 -10.804565,5.08642 -16.114905,7.81684 -3.005799,1.57349 -6.048833,3.07106 -9.031166,4.68884 -1.170694,0.61986 -2.284831,1.33332 -3.37657,2.08085 -0.847138,0.54562 -1.67812,1.11582 -2.535701,1.64509 -2.183265,1.31089 -4.487457,2.38026 -6.812444,3.40905 -2.812018,1.2237 -5.6442,2.40355 -8.509526,3.49706 -1.102315,0.39149 -2.267606,0.70638 -3.2078,1.43211 -0.303015,0.33617 -0.248127,0.86598 -0.169755,1.28034 0.167532,0.86493 0.365716,1.72744 0.637453,2.56648 0.225174,0.81224 0.666695,1.52874 1.180224,2.18811 0.638678,0.6401 1.37518,1.16848 2.235896,1.45328 1.206638,0.37911 2.447367,0.53292 3.704339,0.62131 2.11583,0.10299 4.235193,0.0966 6.352982,0.1008 3.655226,-5.3e-4 -2.104266,0.003 -3.630846,-0.0377 -0.34772,-0.009 0.694502,-0.0409 1.041601,-0.0637 0.946568,-0.0623 1.881093,-0.16307 2.821649,-0.28438 1.942,-0.26573 3.839985,-0.73687 5.721467,-1.27517 2.666963,-0.71179 5.263605,-1.6468 7.874463,-2.5358 2.758537,-0.97749 5.506563,-1.98354 8.21985,-3.08065 2.276945,-0.91553 4.542972,-1.85881 6.797325,-2.82866 2.024694,-0.88518 3.947704,-1.97569 5.899874,-3.0051 2.21844,-1.19203 4.34462,-2.54809 6.42683,-3.96213 2.20315,-1.46278 4.42694,-2.89387 6.63094,-4.35541 2.36871,-1.55728 4.70385,-3.16263 7.0303,-4.78181 2.60666,-1.76653 5.18689,-3.56992 7.71369,-5.44903 1.43605,-1.12004 2.91805,-2.23384 4.10682,-3.62565 0.57348,-0.73996 0.79789,-1.60162 0.92606,-2.5097 0.15031,-0.98804 -0.0655,-1.763145 -0.51523,-2.62385 -0.49079,-0.860647 -1.46946,-1.120288 -2.34273,-1.433534 -1.84349,-0.498213 -3.75141,-0.657598 -5.65032,-0.782669 -0.53663,-0.0036 -2.14643,-0.02114 -1.60989,-0.0108 1.33297,0.02574 2.67131,-0.06173 3.99924,0.05695 0.60508,0.05408 -1.2126,0.07921 -1.81723,0.138063 -1.74064,0.169428 -3.40421,0.500771 -5.09984,0.915154 -1.72185,0.531164 -0.91417,0.243779 -2.42966,0.843288 0,0 -5.9264,-0.706134 -5.9264,-0.706134 v 0 c 1.57932,-0.654063 0.74085,-0.343021 2.52226,-0.914434 1.32663,-0.342474 1.96994,-0.538192 3.3401,-0.766733 4.25287,-0.709372 8.58938,-0.515943 12.88311,-0.441746 1.95928,0.145494 3.95146,0.302622 5.82521,0.934826 0.99178,0.391451 1.92912,0.878186 2.41039,1.887119 0.44311,0.944068 0.64557,1.93592 0.50445,2.98226 -0.11889,1.01945 -0.35338,1.99527 -0.94915,2.85174 -1.19061,1.48496 -2.80952,2.57426 -4.27906,3.7594 -2.54959,1.86148 -5.12547,3.68575 -7.73513,5.46227 -2.31533,1.62009 -4.62428,3.24787 -6.98722,4.79916 -2.20021,1.46951 -4.42987,2.893 -6.64086,4.3462 -2.07211,1.43407 -4.18956,2.80973 -6.39152,4.03731 -1.96611,1.01837 -3.88021,2.13769 -5.90055,3.05043 -2.27178,0.97688 -4.559993,1.91583 -6.855886,2.83445 -2.719761,1.10446 -5.472949,2.11601 -8.233952,3.11307 -2.596021,0.88151 -5.167458,1.83882 -7.811908,2.56897 -1.874279,0.56512 -3.759628,1.07679 -5.698178,1.37187 -4.007146,0.54211 -8.035303,0.57649 -12.084682,0.4544 -2.144752,-0.006 -4.292623,0.005 -6.433642,-0.13823 -1.287727,-0.12691 -2.575314,-0.31914 -3.785169,-0.80137 -0.868691,-0.43663 -1.663047,-1.00808 -2.271289,-1.77648 -0.525754,-0.73106 -0.955141,-1.51828 -1.186199,-2.39534 -0.261887,-0.87161 -0.482724,-1.75659 -0.667282,-2.64775 -0.09417,-0.60536 -0.127375,-1.29737 0.177271,-1.84844 0.786284,-1.02443 2.267215,-1.28346 3.410233,-1.69103 2.906977,-1.03546 5.755659,-2.22665 8.588791,-3.44807 2.258369,-1.01604 4.500723,-2.0565 6.62169,-3.34343 0.831775,-0.53838 1.639334,-1.11334 2.488559,-1.62228 1.120995,-0.79359 2.299835,-1.49797 3.513677,-2.14124 3.087754,-1.58639 6.196023,-3.12763 9.307727,-4.6671 5.354055,-2.70082 10.685838,-5.45317 16.190915,-7.83927 4.802644,-2.12383 9.520304,-4.42013 14.248984,-6.701836 2.20385,-1.076521 4.39002,-2.183336 6.55336,-3.33924 0,0 6.09039,0.677066 6.09039,0.677066 z"
       inkscape:connector-curvature="0" />
  </g>
</svg>
