<?xml version="1.0" encoding="UTF-8" standalone="no"?>
<!-- Created with Inkscape (http://www.inkscape.org/) -->

<svg
   xmlns:dc="http://purl.org/dc/elements/1.1/"
   xmlns:cc="http://creativecommons.org/ns#"
   xmlns:rdf="http://www.w3.org/1999/02/22-rdf-syntax-ns#"
   xmlns:svg="http://www.w3.org/2000/svg"
   xmlns="http://www.w3.org/2000/svg"
   xmlns:sodipodi="http://sodipodi.sourceforge.net/DTD/sodipodi-0.dtd"
   xmlns:inkscape="http://www.inkscape.org/namespaces/inkscape"
   width="210mm"
   height="297mm"
   viewBox="0 0 210 297"
   version="1.1"
   id="svg5226"
   inkscape:version="0.92.1 r15371"
   sodipodi:docname="car.svg">
  <defs
     id="defs5220" />
  <sodipodi:namedview
     id="base"
     pagecolor="#ffffff"
     bordercolor="#666666"
     borderopacity="1.0"
     inkscape:pageopacity="0.0"
     inkscape:pageshadow="2"
     inkscape:zoom="0.64121094"
     inkscape:cx="237.57159"
     inkscape:cy="491.26442"
     inkscape:document-units="mm"
     inkscape:current-layer="layer6"
     showgrid="false"
     inkscape:lockguides="false"
     inkscape:window-width="1875"
     inkscape:window-height="1056"
     inkscape:window-x="45"
     inkscape:window-y="24"
     inkscape:window-maximized="1" />
  <metadata
     id="metadata5223">
    <rdf:RDF>
      <cc:Work
         rdf:about="">
        <dc:format>image/svg+xml</dc:format>
        <dc:type
           rdf:resource="http://purl.org/dc/dcmitype/StillImage" />
        <dc:title></dc:title>
      </cc:Work>
    </rdf:RDF>
  </metadata>
  <g
     inkscape:groupmode="layer"
     id="layer7"
     inkscape:label="red">
    <path
       style="fill:#bd2a00;stroke:none;stroke-width:0.26458332px;stroke-linecap:butt;stroke-linejoin:miter;stroke-opacity:0;fill-opacity:1"
       d="m 30.194625,9.8326542 c 0,0 -5.436782,23.4963128 -7.912566,24.3215748 -2.475785,0.825261 -1.75128,73.501371 -1.75128,73.501371 l -3.949171,79.86127 c 0,0 32.342956,90.77299 34.257105,89.97215 1.914149,-0.80084 60.571577,11.25836 60.571577,11.25836 l 59.0062,-3.30105 15.26733,-54.05462 -2.47578,-96.14296 1.65052,-102.745045 -14.18104,-22.283954 z"
       id="path5877"
       inkscape:connector-curvature="0" />
  </g>
  <g
     inkscape:groupmode="layer"
     id="layer6"
     inkscape:label="tires"
     style="display:inline">
    <path
       style="opacity:1;vector-effect:none;fill:#47322c;fill-opacity:1;stroke:#000000;stroke-width:0.29975218px;stroke-linecap:butt;stroke-linejoin:miter;stroke-miterlimit:4;stroke-dasharray:none;stroke-dashoffset:0;stroke-opacity:1"
       d="m 180.59867,44.847866 -4.69141,75.023474 15.85012,-8.74486 6.62944,-50.06381 z"
       id="path5833"
       inkscape:connector-curvature="0" />
    <path
       style="opacity:1;vector-effect:none;fill:#47322c;fill-opacity:1;stroke:#000000;stroke-width:0.26458332px;stroke-linecap:butt;stroke-linejoin:miter;stroke-miterlimit:4;stroke-dasharray:none;stroke-dashoffset:0;stroke-opacity:1"
       d="M 16.46021,49.579959 11.7688,108.03173 27.61891,101.21849 34.24835,62.213124 Z"
       id="path5833-6"
       inkscape:connector-curvature="0" />
    <path
       style="opacity:1;vector-effect:none;fill:#47322c;fill-opacity:1;stroke:#000000;stroke-width:0.30754063px;stroke-linecap:butt;stroke-linejoin:miter;stroke-miterlimit:4;stroke-dasharray:none;stroke-dashoffset:0;stroke-opacity:1"
       d="m 16.393067,257.14629 -5.191412,-71.3667 17.539387,8.31861 7.335994,47.62362 z"
       id="path5833-7"
       inkscape:connector-curvature="0" />
    <path
       style="opacity:1;vector-effect:none;fill:#47322c;fill-opacity:1;stroke:#000000;stroke-width:0.29915735px;stroke-linecap:butt;stroke-linejoin:miter;stroke-miterlimit:4;stroke-dasharray:none;stroke-dashoffset:0;stroke-opacity:1"
       d="m 186.67987,192.97844 -4.68145,74.88499 15.81647,-8.72873 6.61537,-49.9714 z"
       id="path5833-5"
       inkscape:connector-curvature="0" />
  </g>
  <g
     inkscape:groupmode="layer"
     id="layer8"
     inkscape:label="red 1">
    <path
       style="fill:#912000;stroke:#000000;stroke-width:0.26458332px;stroke-linecap:butt;stroke-linejoin:miter;stroke-opacity:0;fill-opacity:1"
       d="m 43.452668,106.46402 -0.539072,33.7363 11.966289,33.01046 34.66098,14.02945 43.326225,-4.53894 23.76335,-24.25971 -0.65603,-52.07698 -19.80627,-12.791549 -46.806541,2.77373 z"
       id="path5880"
       inkscape:connector-curvature="0" />
  </g>
  <g
     inkscape:label="outline"
     inkscape:groupmode="layer"
     id="layer1"
     style="display:inline">
    <path
       style="fill:#000101;fill-opacity:1;stroke:none;stroke-width:0.26499999;stroke-miterlimit:4;stroke-dasharray:none;stroke-opacity:0.03529412"
       id="path5792"
       d="m 43.234016,109.88716 c 0.502986,1.68295 0.877927,3.39592 1.154279,5.12952 0.20955,2.00663 0.408623,4.01423 0.543465,6.02756 0.08282,2.31504 0.192751,4.62684 0.33419,6.93925 0.134747,2.44129 0.164846,4.88463 0.336277,7.32407 0.177342,2.0942 0.591066,4.14743 1.123453,6.17682 0.476747,1.68877 0.961514,3.37106 1.396277,5.07119 0.419156,1.74301 0.822405,3.49238 1.141508,5.25681 0.311695,1.84219 0.784503,3.64584 1.258155,5.45085 0.543856,1.9006 1.132435,3.7903 1.783254,5.65719 0.536456,1.57472 1.095957,3.15023 1.895203,4.61276 0.611246,1.09944 1.191733,2.21873 1.880116,3.27262 0.753816,1.13476 1.687438,2.15203 2.586135,3.17632 1.009256,1.17197 2.104898,2.25442 3.251526,3.28953 1.294847,1.11436 2.708282,2.04573 4.237836,2.79803 1.718048,0.84761 3.490685,1.5679 5.28851,2.22559 2.658409,0.83519 5.408848,1.29221 8.16896,1.62548 2.738991,0.22652 5.482307,0.38971 8.224142,0.58417 2.468769,0.12289 4.936868,0.18326 7.404253,0.33341 2.98531,0.18481 5.976345,0.23511 8.966455,0.26762 0.53097,0.004 1.06193,0.008 1.59291,0.0115 1.67126,0.01 3.34255,0.0113 5.01383,0.0134 0.61903,7.9e-4 2.47613,0.002 1.8571,0.002 -1.31083,0.002 -2.62166,-7e-5 -3.93248,-1.1e-4 3.7623,0.06 7.51512,-0.0886 11.22582,-0.72316 2.66469,-0.46087 5.26787,-1.19794 7.90827,-1.77217 2.31659,-0.52326 4.63073,-1.05904 6.91854,-1.69798 2.13907,-0.64226 4.29336,-1.24549 6.38236,-2.03912 1.77492,-0.65655 3.5173,-1.37514 5.17069,-2.29765 1.29447,-0.76319 2.48577,-1.68554 3.5632,-2.7305 1.1475,-1.11761 2.22938,-2.30182 3.21091,-3.56757 1.04241,-1.26011 1.78687,-2.69197 2.46432,-4.16865 0.74182,-1.82143 1.07016,-3.7661 1.29324,-5.7091 0.22748,-2.55041 0.24134,-5.1142 0.24532,-7.67289 0.003,-2.2689 -0.0205,-4.53774 -0.0251,-6.80662 -0.0252,-2.06537 -0.16442,-4.13362 -0.34676,-6.19127 -0.26054,-2.40224 -0.3504,-4.81601 -0.41794,-7.22971 -0.0498,-2.32321 -0.0559,-4.64703 -0.0679,-6.97066 0.0595,-1.92062 -0.043,-3.8308 -0.19728,-5.74363 -0.0879,-1.56696 -0.2543,-3.12122 -0.63202,-4.6458 -0.30116,-1.71487 -0.94692,-3.32295 -1.65428,-4.90301 -0.70095,-1.79365 -1.82101,-3.32727 -2.97259,-4.84869 -1.40442,-1.83716 -2.99581,-3.50901 -4.67129,-5.09725 -1.37982,-1.379615 -2.97358,-2.491905 -4.68392,-3.416745 -2.00732,-0.988978 -4.15998,-1.447562 -6.36068,-1.738291 -3.00368,-0.30216 -6.0272,-0.298334 -9.04278,-0.315021 1.07893,0.01831 -4.7428,-0.02798 -3.55728,-0.0043 1.30366,0.02606 2.61149,-0.05825 3.91152,0.04238 0.6501,0.05032 -1.30231,0.06862 -1.9531,0.109212 -1.99232,0.124254 -2.0169,0.138959 -4.01539,0.313423 -4.25271,0.356182 -8.49349,0.837993 -12.74724,1.18097 -3.66193,0.228881 -7.3175,0.541274 -10.982737,0.715156 -0.490553,0.01765 -0.980795,0.05046 -1.47166,0.0529 -2.885525,0.01434 -5.776571,0.118441 -8.656452,-0.0625 -1.357368,-0.08528 -2.713718,-0.244057 -4.068779,-0.360804 -2.714699,-0.358548 -5.444238,-0.546598 -8.178979,-0.652857 -4.012325,-0.07818 2.167987,-0.03241 3.251591,-0.0085 0.429427,0.0095 -0.858607,0.02822 -1.287782,0.04566 -1.19048,0.04837 -2.367812,0.142026 -3.552429,0.266075 -1.831366,0.209609 -3.658092,0.47398 -5.474948,0.786072 -1.388475,0.196612 -2.756011,0.478377 -4.072255,0.964208 -1.111742,0.416449 -2.082988,1.105371 -3.046175,1.783422 -1.106117,0.81155 -2.176957,1.66052 -3.369169,2.34368 -1.325288,0.79038 -2.714445,1.46414 -4.046403,2.24197 -1.155128,0.66072 -2.251657,1.40634 -3.205054,2.33643 -0.826016,0.89654 -1.3683,2.0068 -2.003158,3.03923 -0.660172,1.11243 -1.469831,2.11934 -2.324959,3.08545 -0.769237,0.82342 -1.341012,1.76271 -1.71512,2.82168 -0.428405,1.7068 -0.415208,3.48496 -0.454705,5.23329 -0.09483,2.34334 0.216382,4.67009 0.475399,6.99262 0.134561,1.00925 0.299227,2.01198 0.491545,3.01154 0,0 -6.025383,0.11098 -6.025383,0.11098 v 0 c -0.183089,-1.01537 -0.340709,-2.03342 -0.465523,-3.0579 -0.245883,-2.34846 -0.550948,-4.69905 -0.485601,-7.0663 0.01381,-1.80912 0.0033,-3.64052 0.382223,-5.41817 0.354893,-1.14759 0.909754,-2.18273 1.725787,-3.07365 0.85135,-0.92886 1.67242,-1.88993 2.326272,-2.97198 0.647001,-1.07222 1.225005,-2.19688 1.999112,-3.18262 0.954609,-0.99123 2.046923,-1.807 3.246588,-2.4855 1.320068,-0.80647 2.724807,-1.45525 4.043755,-2.26355 1.204076,-0.63683 2.282187,-1.43545 3.351461,-2.277776 0.984342,-0.696449 1.945552,-1.445569 3.054985,-1.938157 1.336852,-0.513305 2.694212,-0.92433 4.12791,-1.07292 1.833231,-0.316744 3.673409,-0.601657 5.520925,-0.818076 4.454649,-0.49171 8.945478,-0.514432 13.423871,-0.334965 2.73699,0.125688 5.464619,0.35274 8.185409,0.678783 1.351973,0.119245 2.704947,0.263536 4.06091,0.330393 0.451567,0.02228 1.807744,0.03159 1.355727,0.04098 -1.487236,0.03089 -2.975073,0.01569 -4.46261,0.02355 0.494067,-0.01482 0.988136,-0.02963 1.482203,-0.04444 3.698624,-0.152643 7.386979,-0.452292 11.081278,-0.679783 4.24751,-0.326562 8.47975,-0.814298 12.72413,-1.177586 1.9698,-0.184338 3.97275,-0.423524 5.95223,-0.462603 3.76198,-0.07427 7.52521,-0.06175 11.2877,-0.05639 3.04012,0.0204 6.09113,0.02268 9.11404,0.386175 2.23585,0.345562 4.43592,0.867831 6.44464,1.950056 1.70721,0.986396 3.28855,2.154825 4.66885,3.571293 1.67831,1.622096 3.26057,3.339366 4.6855,5.190806 1.18734,1.5546 2.2914,3.15442 3.01643,4.98633 0.71312,1.61709 1.33218,3.26841 1.66866,5.0105 0.37564,1.55759 0.55858,3.14281 0.62101,4.7438 0.14575,1.92898 0.22905,3.85492 0.16953,5.79042 -0.01,2.31838 -0.0135,4.63708 0.0352,6.9551 0.0602,2.4016 0.17718,4.80215 0.44187,7.19104 0.19396,2.07462 0.34584,4.16125 0.35769,6.24494 0.002,2.27017 -0.009,4.54035 -0.0177,6.81051 -0.022,2.57935 -0.0149,5.16229 -0.21621,7.73569 -0.21156,2.00486 -0.52887,4.00799 -1.25267,5.90079 -0.68087,1.51748 -1.39848,3.01204 -2.46881,4.30332 -0.96324,1.29933 -2.05219,2.50197 -3.19285,3.64754 -1.06233,1.12545 -2.30548,2.06206 -3.61127,2.88924 -1.64682,0.98703 -3.40268,1.7346 -5.20934,2.38221 -2.08045,0.86163 -4.26279,1.42378 -6.40884,2.09665 -2.28629,0.66321 -4.60487,1.20092 -6.92329,1.73658 -2.67452,0.57228 -5.31589,1.28308 -8.00601,1.78037 -1.40279,0.25969 -2.12043,0.42172 -3.55315,0.56587 -2.55782,0.25735 -5.14278,0.22511 -7.70915,0.25674 -5.39726,-4e-5 -10.79482,0.0169 -16.191973,-0.0263 -3.002915,-0.0409 -6.006351,-0.0989 -9.00425,-0.28957 -2.477889,-0.13929 -4.959156,-0.17581 -7.435836,-0.33751 -2.723028,-0.20604 -5.451462,-0.34259 -8.167828,-0.62447 -2.791029,-0.37091 -5.57953,-0.84399 -8.253971,-1.7506 -1.819195,-0.67482 -3.615131,-1.41193 -5.346684,-2.29107 -1.532956,-0.81137 -2.947392,-1.81423 -4.253968,-2.95637 -1.159232,-1.05001 -2.245328,-2.17261 -3.264971,-3.35944 -0.917917,-1.05211 -1.88426,-2.08127 -2.628649,-3.26732 -0.664461,-1.07992 -1.257067,-2.20337 -1.846884,-3.3253 -0.754846,-1.51262 -1.36352,-3.09139 -1.869961,-4.70415 -0.641366,-1.88444 -1.232922,-3.78766 -1.776127,-5.7025 -0.478885,-1.82073 -0.977247,-3.63549 -1.276136,-5.49747 -0.316992,-1.7517 -0.728215,-3.48427 -1.146937,-5.21404 -0.431649,-1.69937 -0.935341,-3.37526 -1.380048,-5.07088 -0.516964,-2.0672 -0.926737,-4.15889 -1.086641,-6.28749 -0.158858,-2.44126 -0.194749,-4.88503 -0.329065,-7.32774 -0.143409,-2.3113 -0.282038,-4.62075 -0.361079,-6.93524 -0.137891,-1.99562 -0.356995,-3.98462 -0.565833,-5.97351 -0.266679,-1.69069 -0.618162,-3.37778 -1.24392,-4.9764 0,0 6.121527,-0.24799 6.121527,-0.24799 z"
       inkscape:connector-curvature="0" />
    <path
       style="fill:#000101;fill-opacity:1;stroke:none;stroke-width:0.26499999;stroke-miterlimit:4;stroke-dasharray:none;stroke-opacity:0.03529412"
       id="path5811"
       d="m 44.717464,8.6374466 c -1.611633,-0.064545 -3.212134,0.05964 -4.802502,0.3116562 -1.347981,0.1888185 -2.527266,0.7875828 -3.662625,1.5004162 -1.136647,0.628836 -2.17057,1.400123 -3.154859,2.242831 -1.035162,0.870215 -1.961772,1.832561 -2.753958,2.92703 -1.063345,1.622179 -1.967662,3.341428 -2.886253,5.047804 -1.027256,2.004969 -2.031921,4.026367 -2.844218,6.129038 -0.877244,2.41872 -1.221019,4.988118 -1.507609,7.532589 -0.290529,3.115654 -0.318059,6.247495 -0.344155,9.3741 0.01027,3.213174 -0.05138,6.427957 0.04941,9.639901 0.137091,3.186861 0.235432,6.373958 0.445574,9.557012 0.166383,2.653331 0.483183,5.292849 0.644296,7.946789 0.128602,2.265315 0.138682,4.535265 0.148082,6.803565 0.122304,2.349285 0.257127,4.697068 0.328686,7.048672 0.05944,2.568567 0.06177,5.138144 0.06816,7.707288 0.0026,2.6538 -0.0051,5.3076 -0.0067,7.961402 -0.141468,3.10207 -0.289159,6.20294 -0.359113,9.30772 -0.16343,3.0331 -0.320407,6.06564 -0.41243,9.10189 -0.0034,3.57662 -0.36224,7.13323 -0.714337,10.6876 -0.424339,4.34456 -1.115557,8.65566 -1.850149,12.95658 -0.893841,4.55382 -1.652334,9.11963 -2.088865,13.7405 -0.382829,4.60249 -0.414487,9.22364 -0.436441,13.83893 -0.03492,4.57832 0.178475,9.15466 0.442353,13.72411 0.41656,5.68356 1.437622,11.30201 2.501185,16.89375 1.054528,5.63913 2.266405,11.24848 3.702864,16.80258 1.083758,3.85153 2.618274,7.54167 4.354628,11.13776 1.239039,2.35682 2.363645,4.7707 3.561988,7.14773 1.337831,2.86736 2.845316,5.642 4.412374,8.38832 1.788732,2.98428 3.426886,6.04722 4.988015,9.15532 1.261761,2.48324 2.467041,4.99451 3.589075,7.54404 0.802744,1.73461 1.508708,3.5152 2.114696,5.32775 0.583726,1.61097 1.15547,3.23025 1.641001,4.87397 0.304147,1.39549 0.755928,2.74368 1.254758,4.07897 0.271886,0.89043 0.640006,1.73789 1.117219,2.53596 0.494376,0.64807 1.092501,1.25081 1.762828,1.71987 1.002589,0.82238 2.214912,1.27275 3.371213,1.82311 1.265208,0.60341 2.554996,1.17586 3.91365,1.53358 0.79909,0.32194 1.627632,0.5457 2.402549,0.92522 1.130419,0.42203 2.329217,0.57459 3.498474,0.8424 1.594059,0.33515 3.22057,0.4276 4.84378,0.48599 2.443859,0.064 10.070605,0.0394 -0.479893,0.0392 3.731834,-0.33838 7.402195,0.19936 11.109378,0.3453 2.234554,0.0109 4.460351,0.21302 6.690772,0.33097 2.303918,0.041 4.596575,0.26871 6.895428,0.40833 2.370254,0.20283 4.734857,0.43524 7.091537,0.76137 2.70534,0.35991 5.40763,0.74644 8.10637,1.15316 2.51217,0.40111 5.04261,0.70419 7.54269,1.17731 2.00353,0.35878 4.01338,0.69787 6.03628,0.92753 2.75901,0.24111 5.53222,0.24037 8.29959,0.25958 1.44792,0.005 1.39007,0.006 2.80037,0.006 0.41048,0 1.64193,0 1.23145,0 -9.264,-0.007 -4.76112,-0.003 -2.70394,-0.005 2.05326,0.0615 4.09891,-0.11113 6.14603,-0.23498 2.18507,-0.15129 4.35722,-0.43048 6.53347,-0.66921 2.31722,-0.25784 4.62338,-0.59669 6.92238,-0.98234 1.7879,-0.30745 3.5232,-0.85196 5.26241,-1.357 1.48018,-0.46614 2.95823,-0.93908 4.42521,-1.44542 1.11895,-0.34896 2.12276,-0.91202 3.04608,-1.62351 0.95562,-0.82809 1.67408,-1.88256 2.3906,-2.91388 0.99499,-1.48905 1.67427,-3.13806 2.28936,-4.81005 0.74128,-2.19723 1.5104,-4.38427 2.28031,-6.57164 0.82544,-2.44607 1.70738,-4.87288 2.42015,-7.35496 0.81907,-2.91275 1.34522,-5.89 1.82219,-8.8738 0.33076,-3.11763 0.93226,-6.18522 1.58843,-9.24648 0.61062,-2.68635 1.21246,-5.37468 1.63303,-8.09821 0.39766,-3.04741 0.42735,-6.12412 0.47596,-9.19187 0.007,-3.32205 0.0155,-6.64415 0.002,-9.9662 0.11472,-3.25497 0.24468,-6.50897 0.32707,-9.7652 0.10532,-3.70114 0.097,-7.40419 0.0947,-11.10645 0.017,-3.58235 0.009,-7.16494 -0.0215,-10.74721 -0.007,-2.80563 -0.0361,-5.61128 -0.009,-8.41683 0.007,-2.73364 -0.0136,-5.46723 -0.0195,-8.20084 7.9e-4,-2.70292 0.0126,-5.40582 0.0181,-8.10874 0.008,-2.92995 0.002,-5.85991 -0.005,-8.78985 0.005,-2.72491 -0.0133,-5.44981 -5.3e-4,-8.1747 0.009,-2.89502 0.009,-5.79002 0.002,-8.68504 0.008,-2.90613 0.0278,-5.80753 -0.10904,-8.71095 -0.17373,-3.005 -0.20669,-6.01498 -0.30667,-9.02254 -0.16817,-3.37717 -0.48283,-6.74274 -0.64248,-10.12089 -0.13026,-2.71379 -0.19328,-5.43073 -0.19551,-8.147558 -0.007,-2.334159 -0.0169,-4.668395 -0.009,-7.002563 0.003,-2.399146 0.21069,-4.79272 0.30576,-7.189628 0.0783,-2.480382 0.0891,-4.958519 0.23545,-7.436133 0.0927,-2.250559 0.30007,-4.494342 0.55814,-6.731543 0.26653,-2.488493 0.4837,-4.982789 0.69528,-7.476815 0.19797,-2.374633 0.24256,-4.758603 0.26072,-7.140302 0.0394,-2.2146 0.0271,-4.426043 -0.10516,-6.636896 -0.039,-2.189205 -0.40235,-4.341667 -0.71141,-6.50241 -0.35891,-1.966098 -0.5985,-3.952359 -0.98396,-5.913366 -0.27574,-1.729259 -0.71911,-3.423452 -1.17408,-5.112192 -0.42117,-1.682927 -0.81298,-3.365759 -1.34507,-5.017865 -0.53909,-1.71957 -1.12813,-3.423294 -1.76071,-5.110527 -0.55057,-1.805969 -1.34285,-3.516582 -2.07872,-5.249312 -0.60579,-1.40735 -1.28225,-2.773841 -2.14616,-4.040463 -0.49338,-0.944639 -1.29346,-1.579236 -2.10395,-2.228826 -0.90512,-0.5942185 -1.93224,-1.0015114 -2.97623,-1.2789205 -1.48893,-0.4425412 -3.03505,-0.6786295 -4.57403,-0.8716557 -2.60152,-0.2446674 -5.21835,-0.2474251 -7.82898,-0.2684344 1.38456,0.011808 2.77014,-0.018746 4.1537,0.035425 0.56762,0.022225 -1.13542,0.039915 -1.70311,0.060522 -2.52739,0.091745 -5.0555,0.1556449 -7.58215,0.2653776 -3.43064,0.1953985 -6.86349,0.3329961 -10.2987,0.4098878 -3.12109,0.050683 -6.24269,0.054066 -9.36411,0.054969 -4.6715,0.0053 -9.343,-0.0019 -14.01449,0.00106 -2.32981,0.075766 -4.64918,-0.068603 -6.97293,-0.2045692 -2.33329,-0.070475 -4.65821,-0.23725 -6.98607,-0.4025149 -2.33352,-0.1640818 -4.67353,-0.1897681 -7.011785,-0.2107472 -1.117418,-0.00836 -2.234867,-0.00928 -3.352308,-0.00971 -0.35038,-1.365e-4 -1.401514,-2.035e-4 -1.051137,-1.574e-4 7.275158,9.525e-4 6.56799,0.015364 -2.143765,-0.06245 -2.254946,-0.1612501 -4.513233,-0.2561463 -6.773077,-0.3084912 -2.05609,-0.038796 -4.112641,-0.03934 -6.169019,-0.040116 -3.470696,-5.557e-4 2.624071,-1.86e-4 3.936105,1.854e-4 0.323718,9.19e-5 -0.647435,5.821e-4 -0.971153,7.409e-4 -0.993719,5.027e-4 -1.987436,8.466e-4 -2.981155,8.996e-4 -1.923714,-0.044769 -3.840515,0.025598 -5.758374,0.1666843 -1.855975,0.1415275 -3.716258,0.1726099 -5.571302,0.3259293 -2.014609,0.1957383 -4.037441,0.2632607 -6.060072,0.3031861 -2.081839,-0.00341 -4.155945,0.1968166 -6.232575,0.3176222 -1.46449,0.09291 -2.932462,0.069007 -4.393163,0.2143548 -1.282848,0.1685497 -2.573676,0.2473966 -3.865848,0.2945321 -0.779505,0.020754 -0.396655,0.012097 -1.148535,0.026294 0,0 -6.022573,-0.9452539 -6.022573,-0.9452539 v 0 c 0.759839,-0.00694 0.373118,-0.0022 1.160161,-0.014467 1.29018,-0.030982 2.582209,-0.077026 3.86307,-0.2461003 1.477629,-0.1782816 2.954957,-0.1958666 4.442603,-0.2409227 2.088213,-0.1050105 4.171725,-0.3183411 6.262933,-0.3350853 2.011413,-0.031824 4.024339,-0.078682 6.028458,-0.2662841 1.855591,-0.167877 3.712072,-0.2277218 5.572151,-0.3333802 1.924391,-0.1434182 3.844033,-0.2820353 5.776087,-0.2087915 3.97088,-0.0027 7.941762,-0.00274 11.912645,-0.00183 2.051603,0.00343 4.103449,0.00737 6.154563,0.057434 2.258263,0.063974 4.513619,0.1826834 6.76856,0.3198421 -12.602403,0.090782 3.143588,-0.00111 6.535725,0.054423 2.34248,0.029776 4.68676,0.06451 7.02346,0.2460958 2.32399,0.1706208 4.64838,0.2946596 6.97641,0.3955058 2.32001,0.1341546 4.63854,0.2226426 6.96333,0.1710796 2.17382,0.00301 12.4564,0.00804 2.24424,0.00727 3.12092,-0.00143 6.24202,0.00217 9.36269,-0.043304 3.4554,-0.062149 6.90917,-0.1822487 10.35944,-0.3848031 5.5897,-0.2765925 11.19135,-0.3973761 16.78692,-0.3925131 2.64928,0.025577 5.30767,0.024043 7.94338,0.3264522 1.56523,0.2235293 3.13491,0.4760201 4.64376,0.9619784 1.06639,0.3677145 2.13594,0.7942442 3.02115,1.5107015 0.83511,0.6877342 1.55979,1.4564352 2.08123,2.4170062 0.83882,1.314316 1.52272,2.713205 2.12153,4.152453 0.73546,1.743579 1.48675,3.480258 2.08274,5.278893 0.60962,1.702441 1.22277,3.404424 1.75134,5.134293 0.53792,1.66062 0.92563,3.357853 1.36437,5.046379 0.4626,1.70108 0.85425,3.42062 1.15065,5.158906 0.36305,1.974012 0.62833,3.963139 0.9657,5.941518 0.30953,2.176582 0.6639,4.346297 0.70314,6.550655 0.14087,2.226122 0.14106,4.45077 0.10608,6.680959 -0.0389,2.397355 -0.0877,4.795173 -0.27234,7.186769 -0.23639,2.497103 -0.45832,4.994973 -0.68537,7.49283 -0.26216,2.224953 -0.44697,4.460229 -0.57945,6.696652 -0.14179,2.474259 -0.16168,4.949595 -0.22557,7.42674 -0.10764,2.387883 -0.29582,4.77388 -0.29728,7.164731 0.005,2.333154 -0.0134,4.666316 -0.009,6.999486 0.0215,2.707668 0.0136,5.416158 0.12391,8.122328 0.15905,3.37895 0.46197,6.74685 0.6485,10.12382 0.15312,3.00505 0.15164,6.01606 0.32894,9.02062 0.12619,2.91143 0.15671,5.82364 0.12594,8.73778 -0.007,2.89502 -0.007,5.79002 0.002,8.68504 0.0128,2.72489 -0.006,5.44979 -5.3e-4,8.1747 -0.008,2.92994 -0.0133,5.8599 -0.005,8.78985 0.005,2.70292 0.0173,5.40582 0.0181,8.10874 -0.006,2.73361 -0.0264,5.46718 -0.0194,8.20081 0.0277,2.80551 -0.001,5.61111 -0.006,8.41669 -0.0281,3.58261 -0.0329,7.16549 -0.0208,10.74817 -0.0124,3.70668 -0.0286,7.41337 -0.0573,11.11996 -0.0747,3.25131 -0.23832,6.4995 -0.33569,9.75018 -0.005,3.32447 0.022,6.64885 -0.0149,9.97326 -0.0175,3.09389 -0.0304,6.19871 -0.42247,9.27267 -0.38522,2.74283 -1.04302,5.43569 -1.63009,8.14043 -0.69037,3.0446 -1.32996,6.09515 -1.63708,9.20776 -0.44948,3.0101 -0.97401,6.00617 -1.7682,8.94766 -0.6964,2.49705 -1.586,4.93182 -2.40078,7.39149 -0.75814,2.19001 -1.54575,4.36872 -2.24726,6.57802 -0.60272,1.72149 -1.28323,3.40741 -2.24647,4.96512 -0.71811,1.07725 -1.45244,2.1649 -2.37354,3.08049 -0.89469,0.82386 -1.94793,1.43383 -3.09258,1.84862 -1.48407,0.49278 -2.96659,0.98642 -4.45517,1.46529 -1.75654,0.52948 -3.52078,1.05788 -5.31917,1.42401 -2.30272,0.37997 -4.60647,0.7475 -6.92527,1.01801 -2.17829,0.22188 -4.34724,0.52107 -6.53047,0.69821 -2.048,0.11533 -4.09188,0.33335 -6.14574,0.26993 -4.3781,0.003 -8.75626,0.013 -13.13428,-0.0177 -2.79886,-0.0287 -5.60617,-0.022 -8.39311,-0.31303 -2.01306,-0.25868 -4.01697,-0.58872 -6.0109,-0.96724 -2.49113,-0.43476 -4.99931,-0.77406 -7.49774,-1.16374 -2.71033,-0.39346 -5.42031,-0.79206 -8.136968,-1.13956 -2.365134,-0.29887 -4.735602,-0.54332 -7.113484,-0.71697 -2.293218,-0.15322 -4.583668,-0.34697 -6.882191,-0.4051 -2.245235,-0.12861 -4.488598,-0.29551 -6.738421,-0.31687 -2.437842,-0.11813 -9.70003,-0.62235 0.826725,-0.32014 -3.818729,3e-5 -7.641492,0.043 -11.459789,-0.0633 -1.638372,-0.0822 -3.275402,-0.22135 -4.879288,-0.58473 -1.205925,-0.24479 -2.431377,-0.45971 -3.565273,-0.95784 -0.781346,-0.3047 -1.573374,-0.58079 -2.366894,-0.8518 -1.337889,-0.44096 -2.623534,-1.02542 -3.89528,-1.62822 -1.198396,-0.55489 -2.405846,-1.10056 -3.433403,-1.94935 -0.678024,-0.56679 -1.326068,-1.20393 -1.78912,-1.96154 -0.457335,-0.83971 -0.808993,-1.72492 -1.08698,-2.64014 -0.480338,-1.35052 -0.904253,-2.71849 -1.225796,-4.1166 -0.489178,-1.63206 -1.034135,-3.24826 -1.617948,-4.84878 -0.634283,-1.78442 -1.285476,-3.56524 -2.082824,-5.28476 -1.066189,-2.55036 -2.261788,-5.04041 -3.492452,-7.51474 -1.532396,-3.112 -3.210182,-6.14341 -4.987235,-9.12266 -1.566,-2.76654 -3.091106,-5.55141 -4.476107,-8.41438 -1.20029,-2.37331 -2.319993,-4.78538 -3.505561,-7.16509 -1.707571,-3.6315 -3.144466,-7.38066 -4.194501,-11.25864 -1.370791,-5.57643 -2.60018,-11.1866 -3.623192,-16.8381 -1.068093,-5.61885 -2.184786,-11.24692 -2.594458,-16.96168 -0.35008,-4.57939 -0.51993,-9.17321 -0.494761,-13.76645 0.03719,-4.63262 0.07914,-9.27113 0.456557,-13.89116 0.459104,-4.62947 1.155209,-9.22023 2.066976,-13.78327 0.736375,-4.28435 1.420562,-8.58185 1.811697,-12.91376 0.32731,-3.54155 0.646349,-7.08668 0.644501,-10.64721 0.06699,-3.0371 0.231185,-6.06875 0.4164,-9.10076 0.08073,-3.09885 0.199981,-6.19599 0.318977,-9.29354 2.18e-4,-2.653374 -0.0036,-5.306745 -0.0055,-7.960119 -0.0029,-2.563386 -0.0073,-5.12709 -0.08035,-7.689659 -0.07569,-2.357229 -0.219873,-4.710113 -0.345515,-7.064941 -0.009,-2.257354 -0.02061,-4.515443 -0.133095,-6.770579 -0.153162,-2.652041 -0.435902,-5.292979 -0.589698,-7.944673 -0.193676,-3.189994 -0.288366,-6.383213 -0.43289,-9.575765 -0.103407,-3.219861 -0.03924,-6.442017 -0.04271,-9.663115 0.02084,-3.146198 0.03178,-6.297303 0.308704,-9.433875 0.269968,-2.593708 0.606454,-5.209537 1.455172,-7.686908 0.801754,-2.134241 1.835342,-4.168713 2.855654,-6.205383 0.917147,-1.720154 1.791896,-3.465781 2.823197,-5.12184 0.777369,-1.157359 1.678667,-2.184216 2.75594,-3.076381 0.982001,-0.869492 1.983838,-1.720301 3.148171,-2.3408876 1.177124,-0.7270311 2.327042,-1.4929532 3.723974,-1.7332454 1.571601,-0.2713982 3.150806,-0.4874395 4.751183,-0.4204277 0,0 6.047986,0.9579067 6.047986,0.9579067 z"
       inkscape:connector-curvature="0" />
    <path
       style="fill:#000000;fill-opacity:1;stroke:none;stroke-width:0.26499999;stroke-miterlimit:4;stroke-dasharray:none;stroke-opacity:0.03529412"
       id="path5813"
       d="m 193.01897,191.78317 c 0.31538,0.9671 0.79504,1.8464 1.31064,2.71547 0.52528,0.7386 1.06378,1.47002 1.61899,2.18749 0.55134,0.8227 1.14216,1.61548 1.63355,2.47659 0.60137,0.73401 0.93789,1.60993 1.25621,2.49048 0.52427,1.29809 0.96179,2.62124 1.37713,3.95746 0.48545,1.74323 0.98882,3.48138 1.47671,5.2239 0.40155,1.61734 0.72667,3.25234 0.91789,4.90799 0.14889,1.51249 0.13412,3.03588 0.13794,4.5541 0.0426,1.73287 -0.0167,3.4609 -0.13857,5.1891 -0.20443,1.93826 -0.51379,3.86185 -0.78544,5.79102 -0.24284,1.54324 -0.55098,3.07392 -0.82727,4.61102 -0.30897,1.37112 -0.62915,2.73894 -0.94297,4.10897 -0.34089,1.50513 -0.66262,3.01391 -0.98195,4.5238 -0.21436,1.32189 -0.48328,2.6347 -0.66852,3.96135 -0.1274,1.07751 -0.35415,2.13838 -0.4783,3.2169 -0.21237,1.1761 -0.37512,2.35904 -0.58023,3.53631 -0.18133,1.28772 -0.49009,2.55231 -0.87993,3.79162 -0.34435,1.28578 -0.90602,2.48551 -1.57662,3.62963 -0.5905,0.93552 -1.21635,1.84221 -1.94004,2.6796 -0.55413,0.57576 -1.16964,0.99341 -1.93947,1.20646 -2.40396,0.44092 -4.896,0.1408 -7.31414,0.10403 -0.40449,-0.006 -0.78203,-0.26322 -1.11147,-0.4619 -0.9056,-0.57208 -1.64992,-1.33461 -2.39589,-2.09383 -0.92404,-0.94945 -1.3192,-2.18174 -1.66524,-3.43003 -0.28404,-1.4907 -0.51236,-2.99367 -0.65374,-4.50515 -0.16758,-1.91482 -0.36123,-3.82291 -0.43279,-5.74478 -0.0783,-2.27452 -0.10813,-4.55045 -0.12882,-6.82613 -0.0701,-2.01606 0.12722,-4.02377 0.25305,-6.03329 0.0819,-2.22681 0.23397,-4.45079 0.46459,-6.66724 0.24312,-2.1403 0.55239,-4.27325 0.88697,-6.40111 0.21387,-1.66165 0.40064,-3.32574 0.60584,-4.98877 0.12729,-1.49385 0.41335,-2.96839 0.77328,-4.42199 0.33424,-1.42772 0.80887,-2.81652 1.14011,-4.24451 0.34188,-1.60411 0.76552,-3.18633 1.22146,-4.76141 0.50474,-1.6253 1.03063,-3.2431 1.5961,-4.84839 0.5471,-1.37493 1.03911,-2.76513 1.45922,-4.18341 0.34099,-1.19898 0.69417,-2.39079 0.89933,-3.62185 0.0198,-0.15836 0.0396,-0.31672 0.0594,-0.47508 0,0 6.1067,0.078 6.1067,0.078 v 0 c -0.0219,0.16665 -0.0439,0.3333 -0.0658,0.49995 -0.21779,1.25463 -0.583,2.46934 -0.93231,3.69233 -0.41709,1.43295 -0.90823,2.83533 -1.47532,4.21708 -0.57247,1.59173 -1.10415,3.1959 -1.60265,4.8122 -0.45462,1.56203 -0.87349,3.13207 -1.20356,4.72553 -0.31737,1.43747 -0.79857,2.8288 -1.13789,4.2612 -0.37476,1.42334 -0.63962,2.87931 -0.77747,4.34504 -0.20764,1.67133 -0.42382,3.3406 -0.6402,5.01057 -0.35047,2.11556 -0.6814,4.23597 -0.91258,6.36834 -0.24062,2.20549 -0.3734,4.42228 -0.45201,6.63918 -0.11201,1.99744 -0.30967,3.99216 -0.24406,5.99529 -0.003,2.26677 -0.003,4.53449 0.10015,6.79945 0.11437,1.91042 0.3159,3.81029 0.49409,5.71499 0.14965,1.47466 0.37209,2.94454 0.66842,4.39643 0.33743,1.16535 0.77319,2.26757 1.67298,3.12003 0.72747,0.71808 1.46961,1.43731 2.4016,1.88719 0.36203,0.13133 0.34491,0.14725 0.72058,0.1989 0.12041,0.0166 0.48477,0.0305 0.36323,0.0319 -10.00793,0.12012 -6.92861,0.14959 -4.80377,-0.0251 0.82122,-0.10353 1.26438,-0.29287 1.9016,-0.83203 0.77785,-0.75216 1.36262,-1.65923 1.97157,-2.54802 0.67909,-1.0882 1.2305,-2.24297 1.56436,-3.4865 0.3892,-1.21194 0.71452,-2.44573 0.87993,-3.71002 0.20534,-1.16343 0.34209,-2.33585 0.56137,-3.49704 0.11248,-1.08808 0.35564,-2.15317 0.49015,-3.23796 0.19977,-1.33892 0.47221,-2.66486 0.69608,-3.99941 0.31546,-1.51381 0.65543,-3.02221 0.97846,-4.53427 0.30876,-1.36193 0.60921,-2.72523 0.93283,-4.084 0.28978,-1.52945 0.61353,-3.05119 0.85882,-4.58907 0.29758,-1.91094 0.59948,-3.82011 0.80602,-5.74381 0.1173,-1.7147 0.11677,-3.42669 0.10647,-5.14499 -0.008,-1.4968 -0.0112,-2.99626 -0.15038,-4.48799 -0.18053,-1.6254 -0.47929,-3.22986 -0.89339,-4.81281 -0.47829,-1.73829 -0.97076,-3.47252 -1.47879,-5.20239 -0.42674,-1.3274 -0.90972,-2.63094 -1.43171,-3.92391 -0.32856,-0.84669 -0.71931,-1.64779 -1.25821,-2.38448 -0.50252,-0.82745 -1.0679,-1.61261 -1.6267,-2.40257 -0.56154,-0.74133 -1.14167,-1.47383 -1.63464,-2.26277 -0.51565,-0.8959 -0.92228,-1.83906 -1.32254,-2.79091 0,0 6.12153,-0.24799 6.12153,-0.24799 z"
       inkscape:connector-curvature="0" />
    <path
       style="fill:#000000;fill-opacity:1;stroke:none;stroke-width:0.26499999;stroke-miterlimit:4;stroke-dasharray:none;stroke-opacity:0.03529412"
       id="path5815"
       d="m 16.581572,187.51652 c -0.458575,1.63136 -0.57727,3.33219 -0.683169,5.01589 -0.09221,1.72702 -0.08129,3.45663 -0.07862,5.18533 0.0051,1.55679 -0.01032,3.11353 -0.0033,4.67029 0.06759,1.92068 -0.13824,3.82652 -0.379793,5.72777 -0.185596,1.85331 -0.586881,3.67331 -0.903391,5.50598 -0.184635,1.55067 -0.439177,3.09238 -0.599986,4.64596 -0.149874,1.61142 -0.36474,3.21343 -0.483588,4.82818 -0.09053,1.6777 -0.103081,3.35841 -0.111577,5.03815 -0.0039,1.70616 -0.0065,3.41248 4.49e-4,5.11864 0.0084,1.62711 0.0018,3.2541 0.0029,4.88121 -0.0033,1.54348 -0.03038,3.08161 0.125511,4.61834 0.101219,1.33541 0.441341,2.63532 0.805604,3.91919 0.411483,1.23404 0.948084,2.42295 1.436899,3.62803 0.405418,0.87217 0.775286,1.76113 1.280012,2.58184 0.592509,0.91776 1.377092,1.66423 2.254502,2.30403 0.946058,0.7051 2.040808,0.96181 3.18692,1.10163 0.499968,0.0384 0.508011,0.0447 1.001458,0.0607 0.156098,0.005 0.624619,0.0101 0.46844,0.01 -9.459438,-0.0294 -6.878761,0.19134 -4.730873,-0.13884 0.953412,-0.13572 1.769483,-0.49676 2.481583,-1.1377 1.219144,-1.25374 2.001729,-2.82529 2.799588,-4.35985 1.06176,-1.90764 1.601738,-3.69156 2.041887,-5.80929 0.445518,-2.29666 0.550269,-4.63688 0.609592,-6.96956 0.07236,-2.58164 0.0357,-5.16431 0.03458,-7.74646 -0.02476,-2.23255 -0.01273,-4.46503 -0.01074,-6.6976 -0.01177,-2.23821 -0.0045,-4.47635 -0.0029,-6.71454 0.0019,-2.23842 -0.0066,-4.47683 -0.0037,-6.71526 0.0016,-2.3153 0.0074,-4.63047 0.0052,-6.94579 0.06833,-1.89808 -0.112757,-3.78455 -0.282086,-5.67173 -0.120287,-1.16051 -0.214394,-2.35988 -0.532862,-3.48718 -0.195917,-0.84168 -0.768511,-1.47909 -1.326828,-2.10706 -0.805586,-0.66572 -1.57451,-1.37676 -2.395491,-2.02317 -0.997462,-0.80106 -2.088544,-1.50702 -3.254799,-2.03474 -1.254891,-0.61944 -2.639089,-0.84672 -3.99248,-1.14792 -0.197905,-0.0376 -0.920773,-0.18235 -1.138348,-0.19502 -0.167666,-0.01 -0.671326,0.0192 -0.503391,0.0215 1.8741,0.0257 3.749937,-0.0286 5.62262,0.0487 0.1369,0.006 -0.264594,0.087 -0.375197,0.1679 -0.142228,0.104 -0.246861,0.25147 -0.370292,0.37721 -0.886512,1.54609 -1.308376,3.32642 -1.73582,5.04488 -0.300738,1.13437 -0.546931,2.28099 -0.752776,3.43591 0,0 -6.064751,-0.11291 -6.064751,-0.11291 v 0 c 0.230681,-1.16382 0.502956,-2.31789 0.799597,-3.46676 0.429377,-1.80127 0.907625,-3.62027 1.677046,-5.30808 0.05479,-0.0831 0.542572,-0.91194 0.758205,-0.92973 3.010271,-0.24848 5.395613,-0.54068 8.108322,0.10063 1.370053,0.32259 2.752611,0.61361 4.005267,1.28789 1.161622,0.61383 2.272303,1.32444 3.282805,2.16738 0.82917,0.68181 1.666222,1.36484 2.418591,2.13118 0.60135,0.71299 1.164582,1.45551 1.350558,2.39299 0.258778,1.1766 0.387921,2.38821 0.481113,3.5875 0.136948,1.90476 0.293409,3.80856 0.215016,5.72061 -0.0021,2.31532 0.0035,4.63049 0.0051,6.94579 0.0029,2.23843 -0.0056,4.47683 -0.0038,6.71526 0.0016,2.23808 0.009,4.47612 -7.93e-4,6.71423 0.0043,2.23244 0.02101,4.4648 0.0034,6.69727 0.0044,2.58776 -0.01794,5.1756 -0.03749,7.76326 -0.06766,2.36611 -0.131966,4.74129 -0.59032,7.07188 -0.203181,1.05685 -0.388003,2.12495 -0.751644,3.14233 -0.219837,0.61505 -0.556681,1.27089 -0.830667,1.86071 -0.150942,0.32494 -0.297577,0.65185 -0.446366,0.97778 -0.823216,1.56585 -1.569735,3.19682 -2.742115,4.54221 -0.73565,0.83714 -1.413674,1.25756 -2.498178,1.5247 -2.909148,0.49879 -5.908643,0.42716 -8.833139,0.0681 -1.177724,-0.23074 -2.270053,-0.64291 -3.214761,-1.40779 -0.882912,-0.73217 -1.700392,-1.53547 -2.28889,-2.53109 -0.488687,-0.85975 -0.881982,-1.76747 -1.2733334,-2.67482 -0.4866254,-1.22481 -0.9992905,-2.44189 -1.4147631,-3.69281 -0.3746973,-1.31916 -0.708534,-2.65702 -0.8017346,-4.03024 -0.1353383,-1.55674 -0.1295492,-3.11335 -0.1096981,-4.6752 7.673e-4,-1.62697 -0.0065,-3.25383 -6.879e-4,-4.88081 0.00431,-1.70729 -0.00399,-3.41464 3.44e-4,-5.12195 0.00728,-1.69203 0.018746,-3.38461 0.1200462,-5.07425 0.090516,-1.62526 0.3211555,-3.23298 0.4605801,-4.85317 0.1693928,-1.56654 0.4168139,-3.12205 0.6217888,-4.68397 0.307033,-1.82738 0.742383,-3.63496 0.9223793,-5.48277 0.2546675,-1.87342 0.4267557,-3.75521 0.3487523,-5.64847 0.0041,-1.55755 -0.017306,-3.115 -0.010694,-4.67256 0.01243,-1.74006 0.044049,-3.48053 0.1180351,-5.21912 0.095027,-1.7268 0.2542743,-3.45114 0.5842293,-5.15095 0,0 6.126948,0.17055 6.126948,0.17055 z"
       inkscape:connector-curvature="0" />
    <path
       style="fill:#000000;fill-opacity:1;stroke:none;stroke-width:0.26499999;stroke-miterlimit:4;stroke-dasharray:none;stroke-opacity:0.03529412"
       id="path5819"
       d="m 22.857853,49.187633 c -1.182742,0.288693 -2.325646,0.706983 -3.406167,1.266005 -0.809394,0.416438 -1.297546,1.178507 -1.795778,1.907061 -0.482922,0.70443 -0.688331,1.50508 -0.906688,2.315348 -0.376104,1.557737 -0.564031,3.151746 -0.796515,4.73502 -0.322478,2.35109 -0.680553,4.697775 -1.073666,7.038155 -0.373289,2.245405 -0.674651,4.50057 -0.982905,6.755363 -0.330634,2.166588 -0.459414,4.354425 -0.529666,6.542576 -0.160133,1.785009 -0.228262,3.57981 -0.41671,5.361774 -0.233135,1.719805 -0.337787,3.451815 -0.397458,5.185079 -0.04001,1.691169 -0.04298,3.383206 -0.03832,5.074783 -0.04947,1.472441 0.04744,2.933295 0.19745,4.396456 0.1512,1.426447 0.61149,2.774407 1.158258,4.089687 0.412322,0.95446 1.045827,1.77777 1.81772,2.46634 0.588669,0.59451 1.343906,0.76936 2.14454,0.85942 2.089376,0.12267 5.057169,0.15514 -4.789008,0.008 -0.160319,-0.002 0.319976,-0.0238 0.478902,-0.045 0.48808,-0.0652 0.476799,-0.0824 0.948997,-0.2245 1.350368,-0.63457 2.473253,-1.67791 3.602626,-2.63658 1.257289,-1.06877 2.439169,-2.21364 3.498243,-3.4789 1.164368,-1.290947 2.096972,-2.735928 2.979697,-4.225679 1.145311,-1.907178 2.032008,-3.951202 2.872597,-6.006067 0.83571,-1.945164 1.592728,-3.91164 2.090253,-5.971447 0.485611,-2.061742 0.784154,-4.166121 1.021953,-6.269583 0.224441,-2.196965 0.275823,-4.407064 0.292166,-6.613924 0.04506,-2.192547 -0.158279,-4.381527 -0.41022,-6.557047 -0.309801,-1.78499 -0.720566,-3.558598 -1.280692,-5.282335 -0.489929,-1.335651 -1.055301,-2.642661 -1.747821,-3.885843 -0.639655,-1.120753 -1.400784,-2.150065 -2.237915,-3.129311 -0.65879,-0.734354 -1.415913,-1.322409 -2.230799,-1.86689 -0.922803,-0.492511 -1.907748,-0.753126 -2.936261,-0.908034 -0.862246,-0.296852 -1.767547,-0.409694 -2.672301,-0.475543 -0.569634,-0.02674 -0.285579,-0.01609 -0.852161,-0.03206 0,0 6.047276,-0.930116 6.047276,-0.930116 v 0 c 0.568468,0.03478 0.283515,0.01349 0.854846,0.06407 0.903066,0.110082 1.784669,0.308766 2.666537,0.529257 1.04962,0.22983 2.071509,0.567449 2.978408,1.159684 0.82722,0.579006 1.549506,1.272479 2.210491,2.036022 0.837644,1.020527 1.606304,2.089531 2.240055,3.250708 0.682434,1.287618 1.257194,2.628667 1.734989,4.005691 0.524642,1.768845 0.95826,3.57266 1.2362,5.396955 0.243411,2.201714 0.442462,4.414197 0.405905,6.631934 -0.03647,2.227681 -0.05875,4.458004 -0.292812,6.676242 -0.253471,2.125221 -0.516191,4.257003 -1.006861,6.342827 -0.505095,2.091632 -1.248368,4.094509 -2.123572,6.059069 -0.832996,2.08129 -1.717159,4.15167 -2.845835,6.092858 -0.86928,1.522961 -1.762564,3.017065 -2.946921,4.323332 -1.050806,1.31784 -2.253335,2.48677 -3.534966,3.58071 -1.138066,1.00432 -2.283641,2.02108 -3.553165,2.8564 -2.639513,1.19878 -5.960368,0.73485 -8.761982,0.37612 -0.845583,-0.20502 -1.581175,-0.57586 -2.1789298,-1.22604 -0.7461032,-0.8058 -1.4023075,-1.68079 -1.7980937,-2.71696 -0.5414526,-1.3754 -0.9761903,-2.78951 -1.1503387,-4.263857 -0.140284,-1.484121 -0.248864,-2.963795 -0.1823773,-4.456466 0.00695,-1.698242 0.00677,-3.396594 0.056901,-5.094343 0.055498,-1.748745 0.1518208,-3.49554 0.3787325,-5.231813 0.2041517,-1.76625 0.2749939,-3.547052 0.4576964,-5.315884 0.081858,-2.208027 0.211447,-4.417732 0.5475089,-6.603965 0.3144676,-2.259809 0.5834007,-4.526362 1.0018046,-6.771003 0.3790153,-2.335717 0.7410547,-4.674814 1.0364932,-7.022748 0.2073689,-1.608812 0.3843849,-3.223974 0.7044049,-4.815427 0.23968,-0.865716 0.40667,-1.739667 0.902697,-2.509922 0.516604,-0.806381 1.062014,-1.633183 1.83533,-2.215687 1.097636,-0.569717 2.215555,-1.068334 3.409606,-1.409176 0,0 6.06762,0.809202 6.06762,0.809202 z"
       inkscape:connector-curvature="0" />
    <path
       style="fill:#000000;fill-opacity:1;stroke:none;stroke-width:0.26499999;stroke-miterlimit:4;stroke-dasharray:none;stroke-opacity:0.03529412"
       id="path5823"
       d="m 188.79625,57.782874 c -1.60508,1.357556 -3.14489,2.788557 -4.75346,4.14266 -1.41934,1.232228 -2.84141,2.470007 -3.97427,3.97705 -1.05882,1.61797 -1.31345,3.504033 -1.59775,5.3706 -0.36995,2.483723 -0.64301,4.975357 -0.79791,7.481469 -0.11696,2.315499 -0.12565,4.634495 -0.1365,6.952356 -0.0459,2.17515 0.0565,4.351319 0.31296,6.511406 0.17558,1.812092 0.43905,3.610703 0.6802,5.414362 0.13994,1.611794 0.36954,3.213253 0.51738,4.824343 0.18869,1.64485 0.46565,3.2764 0.69419,4.91554 0.11707,1.44335 0.36419,2.86921 0.56156,4.30238 0.19919,0.83218 0.28869,1.72187 0.76336,2.45293 0.0465,0.0368 0.34381,0.28492 0.41875,0.296 0.0898,0.0133 0.35644,-0.0577 0.26567,-0.0601 -1.91409,-0.0492 -3.82942,-0.0351 -5.74361,-0.0807 -0.12352,-0.003 0.24658,-0.0226 0.36766,-0.0473 0.15033,-0.0306 0.29656,-0.0787 0.44485,-0.11799 1.21477,-0.44303 2.44866,-0.8255 3.68425,-1.20516 1.04135,-0.33445 2.11736,-0.62204 3.01764,-1.26288 0.77224,-0.73419 1.37107,-1.63659 2.01105,-2.48582 0.72653,-1.01121 1.49942,-1.98439 2.39988,-2.84571 0.78321,-0.69943 1.57404,-1.39796 2.24092,-2.2119 0.82834,-0.99311 1.40183,-2.14137 1.8328,-3.35239 0.59939,-1.759614 0.98262,-3.572915 1.31962,-5.397421 0.33398,-1.930085 0.40231,-3.889978 0.58279,-5.837327 0.1314,-1.940944 0.36095,-3.872627 0.53524,-5.809821 0.13757,-1.605079 0.15781,-3.216617 0.17171,-4.82649 0.004,-1.619237 0.0158,-3.238426 0.0215,-4.857641 0.004,-1.779246 -0.007,-3.558453 -0.0144,-5.337665 0.0475,-1.387983 -0.0455,-2.761154 -0.19898,-4.13893 -0.11586,-1.24061 -0.36871,-2.466747 -0.62976,-3.684256 -0.30205,-1.263711 -0.70947,-2.497331 -1.09981,-3.735388 -0.39127,-1.214993 -1.06338,-2.295713 -1.76659,-3.349821 -0.70794,-1.024837 -1.55889,-1.936535 -2.41928,-2.83275 -0.87608,-0.803574 -1.7874,-1.613131 -2.77225,-2.284574 -0.93756,-0.580332 -1.78975,-1.310886 -2.7799,-1.800524 -0.12469,-0.04284 -0.24718,-0.09269 -0.37406,-0.128506 -0.14496,-0.04091 -0.60161,-0.135146 -0.75432,-0.133723 -0.12828,0.0013 -0.50874,0.05631 -0.38046,0.05797 5.37671,0.06949 7.56102,-0.249484 5.20852,0.07155 -1.53876,0.4673 -2.51132,1.881344 -3.40731,3.12573 -1.4081,2.112679 -2.29607,4.482703 -3.01866,6.899015 -0.75901,2.760501 -0.91644,5.626709 -1.01974,8.472554 -0.0968,2.421646 0.026,4.8466 -0.0746,7.267207 -0.1117,2.223947 -0.36049,4.438872 -0.61624,6.650209 -0.24734,1.849663 -0.36231,3.708022 -0.41622,5.571731 0,0 -5.91348,-0.0091 -5.91348,-0.0091 v 0 c 0.004,-1.883892 0.0961,-3.760232 0.34746,-5.629743 0.24116,-2.198505 0.45322,-4.401651 0.58845,-6.609324 0.11108,-2.419225 0.0295,-4.843496 0.13319,-7.263619 0.11536,-2.893507 0.27241,-5.806659 1.01052,-8.621188 0.72221,-2.473762 1.60116,-4.899092 2.98547,-7.091717 0.91103,-1.362126 1.87638,-2.772934 3.34439,-3.584258 2.4589,-0.769228 5.93793,-0.898112 8.43935,0.308274 0.93987,0.589714 1.83515,1.250397 2.75161,1.875454 0.96909,0.748107 1.95043,1.500637 2.7897,2.395006 0.86803,0.926724 1.71557,1.877806 2.41488,2.941711 0.71531,1.108472 1.39476,2.244638 1.77838,3.517609 0.39237,1.257043 0.80227,2.509457 1.10319,3.792776 0.26128,1.238795 0.52038,2.483575 0.62749,3.746947 0.14347,1.399199 0.24244,2.795267 0.17521,4.20357 -0.006,1.779095 -0.0165,3.558191 -0.009,5.337313 0.008,1.621517 0.0283,3.243035 0.0122,4.864608 -0.0207,1.626795 -0.0638,3.253856 -0.19304,4.87621 -0.18698,1.937911 -0.46299,3.866641 -0.54671,5.813805 -0.21106,1.962177 -0.24769,3.94066 -0.59464,5.886829 -0.34008,1.851601 -0.70807,3.691435 -1.27882,5.488168 -0.42019,1.26875 -0.96885,2.49571 -1.80187,3.5526 -0.6375,0.87479 -1.44502,1.6055 -2.25893,2.31416 -0.91267,0.81019 -1.70598,1.72332 -2.40224,2.72824 -0.64089,0.8938 -1.29678,1.78598 -1.99214,2.63534 -0.85839,0.81519 -1.9718,1.16325 -3.09037,1.49195 -1.21351,0.39966 -2.45278,0.71958 -3.63902,1.19997 -2.46305,1.01424 -6.33059,1.93404 -7.94162,-0.44325 -0.39619,-0.84755 -0.56677,-1.76272 -0.72891,-2.6797 -0.17521,-1.43251 -0.39964,-2.85823 -0.52136,-4.29693 -0.23206,-1.64818 -0.50847,-3.28949 -0.6973,-4.94383 -0.15005,-1.60304 -0.38009,-3.196724 -0.51794,-4.800948 -0.23468,-1.807036 -0.46004,-3.613237 -0.64943,-5.425792 -0.2357,-2.18522 -0.32869,-4.383717 -0.28852,-6.581436 0.006,-2.329786 0.0227,-4.660744 0.16084,-6.987212 0.15679,-2.521194 0.4265,-5.029393 0.76784,-7.532301 0.27895,-1.959396 0.5248,-3.929552 1.56355,-5.663933 1.12304,-1.583068 2.57359,-2.855034 4.03605,-4.121343 1.60315,-1.317337 3.13857,-2.710564 4.63896,-4.143629 0,0 6.0906,0.526418 6.0906,0.526418 z"
       inkscape:connector-curvature="0" />
    <path
       style="fill:#000101;fill-opacity:1;stroke:none;stroke-width:0.26499999;stroke-miterlimit:4;stroke-dasharray:none;stroke-opacity:0.03529412"
       id="path5825"
       d="m 40.462086,119.62566 c -0.49974,1.07083 -0.781206,2.21864 -0.962404,3.38105 -0.134469,1.02248 -0.137281,2.05588 -0.15671,3.0852 -0.0164,1.64727 0.203415,3.28645 0.395251,4.91938 0.299259,1.81845 0.669208,3.62355 1.025935,5.43165 0.353134,1.91593 0.607298,3.84781 0.867706,5.77815 0.370771,2.2645 0.886865,4.50019 1.333839,6.74982 0.603623,2.70341 1.16401,5.41837 1.611394,8.15223 0.588177,3.46202 1.154724,6.92804 1.586463,10.41337 0.363569,3.38174 0.966362,6.72477 1.595125,10.06495 0.550482,2.56479 0.827966,5.17046 0.98574,7.78514 0.07861,2.04089 0.07781,4.08121 0.185761,6.12112 0.09746,1.98552 0.396037,3.95321 0.58628,5.93088 0.113993,1.28524 0.142968,2.57483 0.161211,3.8642 -0.06985,1.08328 0.191222,2.07121 0.649271,3.03759 0.634871,1.26281 1.569575,2.25049 2.628175,3.16373 1.285505,0.95691 2.641172,1.82752 4.144063,2.40554 1.098542,0.42251 1.976242,0.61329 3.122763,0.91125 4.629179,0.96209 9.385845,1.00236 14.094608,1.10487 5.053952,0.27447 10.100689,0.661 15.154902,0.92984 3.310853,0.18317 6.619642,0.46266 9.935541,0.54782 0.76812,0.0197 3.07342,0.0164 2.30505,0.0191 -1.15894,0.004 -2.317872,-0.01 -3.476805,-0.015 4.692515,-0.0191 9.377995,-0.28039 14.067765,-0.41366 5.69355,-0.31881 11.38732,-0.63507 17.07941,-0.97984 3.90628,-0.31235 7.82593,-0.59203 11.68724,-1.2807 1.62922,-0.28123 3.26263,-0.53994 4.82935,-1.08015 0.97545,-0.36181 1.90468,-0.81485 2.77301,-1.38657 1.24784,-0.83681 2.39489,-1.79464 3.44608,-2.86548 1.24934,-1.15938 2.10993,-2.55131 2.74739,-4.1153 0.70093,-1.96886 1.05334,-4.01918 1.25105,-6.09168 0.33368,-2.66356 0.44617,-5.34514 0.5347,-8.02565 0.0669,-2.72349 0.058,-5.44783 0.0507,-8.17187 -0.003,-2.4371 0.002,-4.87422 -0.0104,-7.3113 -0.0123,-2.0395 -0.0105,-4.07893 -0.0215,-6.11845 -0.005,-1.53701 -0.0107,-3.07403 -0.0232,-4.611 -0.008,-0.83809 -0.0131,-1.67619 -0.0164,-2.51431 0,0 6.11526,0 6.11526,0 v 0 c -0.003,0.83812 -0.009,1.67623 -0.0165,2.51432 -0.0125,1.53696 -0.0179,3.07396 -0.0232,4.61096 -0.0107,2.03942 -0.009,4.07876 -0.0189,6.11818 -0.01,2.43736 -5.3e-4,4.87472 -0.003,7.3121 -0.0118,2.7296 -0.0255,5.4594 -0.0846,8.18844 -0.0658,2.69287 -0.20226,5.38468 -0.47503,8.06526 -0.19957,2.1264 -0.54924,4.22647 -1.23563,6.25722 -0.60552,1.65216 -1.43849,3.13643 -2.7328,4.35788 -1.04877,1.10213 -2.1609,2.12507 -3.42678,2.97848 -0.85378,0.65708 -1.78076,1.14761 -2.77563,1.55891 -1.61858,0.57984 -3.28264,0.92752 -4.98884,1.15679 -3.93044,0.70809 -7.91666,1.00302 -11.89499,1.32009 -5.70267,0.33324 -11.40703,0.63256 -17.10814,0.9931 -4.66283,0.13788 -9.32049,0.41625 -13.98621,0.44013 -0.89833,10e-4 -7.596907,0.0571 -10.299486,-0.0284 -3.297573,-0.10433 -6.587572,-0.38321 -9.881211,-0.56157 -5.05955,-0.27664 -10.112732,-0.65875 -15.173716,-0.90934 -4.761698,-0.12182 -9.578835,-0.17064 -14.24618,-1.2234 -1.319276,-0.36415 -1.945984,-0.49058 -3.189483,-1.00529 -1.535541,-0.6356 -2.936777,-1.54723 -4.240236,-2.56879 -1.102387,-0.98278 -2.066865,-2.0654 -2.707442,-3.4127 -0.472138,-1.04853 -0.710393,-2.13766 -0.656569,-3.29572 -0.0043,-1.27305 -0.02598,-2.54695 -0.120197,-3.817 -0.154329,-1.98505 -0.425839,-3.95937 -0.528654,-5.94824 -0.131712,-2.04087 -0.15413,-4.07959 -0.195887,-6.12404 -0.121978,-2.58768 -0.381484,-5.1648 -0.888889,-7.70844 -0.619085,-3.35241 -1.232577,-6.70674 -1.570214,-10.10175 -0.42639,-3.47813 -1.020035,-6.93242 -1.623629,-10.38361 -0.500854,-2.72165 -1.05255,-5.43374 -1.664115,-8.13279 -0.481084,-2.25725 -0.992625,-4.50866 -1.367208,-6.78694 -0.282422,-1.9172 -0.532985,-3.83984 -0.89635,-5.74417 -0.362895,-1.82033 -0.71804,-3.64309 -1.013524,-5.4757 -0.215418,-1.65724 -0.446061,-3.32251 -0.448826,-4.9964 -0.01,-1.06091 -0.0191,-2.12584 0.138271,-3.1783 0.19463,-1.20728 0.499981,-2.38983 0.938694,-3.53311 0,0 6.121527,0.24799 6.121527,0.24799 z"
       inkscape:connector-curvature="0" />
    <path
       style="fill:#000101;fill-opacity:1;stroke:none;stroke-width:0.26499999;stroke-miterlimit:4;stroke-dasharray:none;stroke-opacity:0.03529412"
       id="path5827"
       d="m 49.056747,9.9956587 c 0.838692,1.7781443 1.661332,3.5643043 2.447721,5.3663033 0.786562,2.029775 1.727288,3.995206 2.543395,6.011947 0.681807,1.68444 1.311341,3.391209 1.87742,5.118066 0.44886,1.338704 0.96888,2.656046 1.324324,4.02405 0.210518,0.73165 0.555561,1.405954 0.813649,2.117514 0.290849,0.766725 0.7239,1.460169 1.093645,2.189458 0.613368,1.183124 1.332153,2.296478 2.061128,3.409456 0.804722,1.224232 1.772417,2.32593 2.704518,3.451452 0.793535,0.946827 1.755309,1.65966 2.784768,2.321192 1.660089,0.963211 3.453501,1.661679 5.249212,2.324373 3.315602,1.120645 6.80585,1.455031 10.277446,1.660927 4.178014,0.180784 8.361296,0.169143 12.542308,0.170045 -1.182487,-0.02921 -2.37885,0.09534 -3.547462,-0.08762 -0.70244,-0.109974 1.41977,-0.0809 2.128742,-0.134501 2.658184,-0.200961 5.307333,-0.508902 7.955809,-0.807116 3.76823,-0.385676 7.52683,-0.862741 11.30155,-1.182045 2.72516,-0.236403 5.4615,-0.230767 8.19245,-0.335825 2.48357,-0.118367 4.95581,-0.408197 7.4224,-0.712303 2.93888,-0.398566 5.89384,-0.656844 8.83952,-0.997204 2.90587,-0.333497 5.82022,-0.590958 8.72483,-0.935646 1.8796,-0.237586 3.76106,-0.44712 5.63557,-0.722861 0.99463,-0.139678 1.91873,-0.324635 2.64943,-1.038844 0.73807,-0.944168 1.1039,-2.100217 1.48542,-3.219693 0.50005,-1.528183 1.04627,-3.039613 1.59422,-4.550907 0.60362,-1.680819 1.05335,-3.413358 1.43018,-5.157663 0.31075,-1.715114 0.68496,-3.422208 1.11833,-5.110649 0.29661,-1.290615 0.74663,-2.537479 1.0927,-3.813885 0.42014,-1.288513 0.75362,-2.596263 0.97401,-3.933174 0.15759,-1.233975 0.39797,-2.453382 0.5297,-3.691101 0.0867,-0.890887 0.0987,-1.7863466 0.10485,-2.6806645 0.002,-0.8233256 -5.3e-4,-1.6466557 -0.002,-2.4699811 0,0 6.12065,-0.00106 6.12065,-0.00106 v 0 c 0.002,0.8253672 0.005,1.6507463 5.3e-4,2.47611 -0.009,0.9155036 -0.0264,1.8321996 -0.12516,2.7432986 -0.14517,1.247582 -0.39116,2.477485 -0.56348,3.720643 -0.21491,1.354356 -0.51663,2.69572 -0.95404,3.996884 -0.34584,1.278732 -0.81041,2.52147 -1.11239,3.813153 -0.47515,1.668986 -0.83925,3.371835 -1.16307,5.076 -0.36727,1.771809 -0.79992,3.531256 -1.39444,5.242139 -0.54288,1.507961 -1.11901,3.00449 -1.589,4.537951 -0.39602,1.188344 -0.74808,2.408013 -1.45069,3.459152 -0.75532,1.002345 -1.5139,1.263597 -2.74323,1.465839 -1.90575,0.264605 -3.81067,0.511702 -5.72341,0.722284 -2.91714,0.36895 -5.85153,0.592002 -8.77227,0.931076 -2.92439,0.355878 -5.86254,0.590132 -8.7799,1.003462 -2.47475,0.302463 -4.95193,0.61433 -7.44219,0.755284 -2.74899,0.148461 -5.50746,0.07905 -8.25385,0.305957 -3.7885,0.28988 -7.5594,0.756494 -11.33704,1.15861 -6.01428,0.661768 -12.022799,1.36589 -18.095746,1.085144 -4.194855,-0.0021 -8.392424,0.01098 -12.583271,-0.200697 -3.526299,-0.23553 -7.059589,-0.640811 -10.414995,-1.817069 -1.84027,-0.690068 -3.695946,-1.390504 -5.365301,-2.44462 -1.058558,-0.694188 -1.996231,-1.516783 -2.797442,-2.503398 -0.949126,-1.134779 -1.895395,-2.279401 -2.703721,-3.52067 -0.742519,-1.131305 -1.464525,-2.272789 -2.104631,-3.466526 -0.40173,-0.741206 -0.83039,-1.468204 -1.125717,-2.261256 -0.287928,-0.719608 -0.581102,-1.434878 -0.778087,-2.187358 -0.342175,-1.352502 -0.836978,-2.659703 -1.270029,-3.98462 -0.567799,-1.711113 -1.185318,-3.406221 -1.857005,-5.079325 -0.810461,-2.009872 -1.71138,-3.983162 -2.520283,-5.994124 -0.797351,-1.79187 -1.588201,-3.594777 -2.565342,-5.297638 0,0 6.114614,-0.3177237 6.114614,-0.3177237 z"
       inkscape:connector-curvature="0" />
    <path
       style="fill:#000101;fill-opacity:1;stroke:none;stroke-width:0.26499999;stroke-miterlimit:4;stroke-dasharray:none;stroke-opacity:0.03529412"
       id="path5829"
       d="m 57.518834,280.99808 c -1.099183,0.23495 -2.169994,0.58642 -3.23514,0.94184 -0.760669,0.32615 -0.459153,0.30133 0.06567,0.64614 1.066514,0.70937 2.260465,1.17612 3.441178,1.65401 1.28161,0.46882 2.587488,0.84312 3.910539,1.17507 2.367095,0.52311 8.88125,0.38656 -1.491176,0.32597 1.400025,-0.0637 2.794892,-0.20302 4.193461,-0.2903 0.887566,-0.0539 1.776778,-0.0658 2.665706,-0.0716 0.137009,0 0.274016,0 0.411022,0 2.151769,0 4.303536,0 6.455302,-2.7e-4 0.273092,3e-5 0.546185,0 0.819277,0 0.151802,0 0.607208,0.003 0.455406,0 -1.853808,-0.006 -3.707619,-0.0122 -5.56143,-0.0183 1.022948,-0.13454 2.049946,-0.2318 3.07504,-0.34673 1.005895,-0.13203 1.986764,-0.38225 2.968363,-0.63053 1.127315,-0.36565 2.245794,-0.75824 3.346556,-1.19753 0.840856,-0.29308 1.585166,-0.77205 2.277832,-1.32154 0.508344,-0.45657 0.562652,-1.11416 0.613124,-1.75514 0.118991,-1.20761 -0.836408,-2.08754 -1.685536,-2.8062 -1.185008,-1.00782 -2.602457,-1.55279 -4.098639,-1.89426 -1.224092,-0.22312 -2.470134,-0.23069 -3.709868,-0.23526 -2.865139,0.004 2.956951,-0.005 4.693467,0.0293 0.240467,0.005 -0.47965,0.0374 -0.718778,0.0632 -0.28603,0.0308 -0.571936,0.0641 -0.856435,0.10681 -0.546383,0.0821 -1.431488,0.25498 -1.969695,0.35676 -1.744248,0.36857 -3.488418,0.73406 -5.228696,1.12086 -1.055794,0.25535 -2.133688,0.35237 -3.215807,0.39399 -4.091456,0.0614 -16.014946,-0.0111 -3.579355,0.0409 -0.920371,0.10266 -1.834742,0.24397 -2.75808,0.32009 -0.682828,-0.003 -1.262594,0.30663 -1.870091,0.56811 -0.644387,0.27644 -0.86261,0.78687 -0.982096,1.43584 0.0078,0.77941 0.227645,1.56822 0.54937,2.27542 0.19947,0.45829 0.09003,0.23511 0.327793,0.66985 0,0 -6.117056,0.29186 -6.117056,0.29186 v 0 c -0.237675,-0.48525 -0.128616,-0.24334 -0.328758,-0.72496 -0.308242,-0.83815 -0.578564,-1.7108 -0.554805,-2.6131 0.120846,-0.79934 0.319371,-1.52379 1.012214,-2.01936 0.609672,-0.33001 1.238031,-0.6409 1.914149,-0.80084 0.931585,-0.0465 1.858066,-0.14398 2.777498,-0.30429 2.191433,-0.0244 4.382839,-0.0512 6.574298,-0.0732 0.194866,-0.003 0.779502,0 0.584626,0 -1.797643,0 -3.595283,0 -5.392925,0 -0.728499,1.3e-4 0.719174,0 1.225878,-0.003 0.197226,0 0.394441,-0.003 0.591661,-0.005 1.080815,-0.0175 2.163853,-0.0548 3.225501,-0.28041 1.764453,-0.35951 3.522861,-0.74644 5.28288,-1.12651 0.926729,-0.17778 1.849422,-0.39479 2.784647,-0.52436 2.269434,-0.31437 6.622354,-0.14414 7.401158,-0.15152 0.214029,-0.003 0.428066,0.003 0.642101,0.004 1.246582,0.0233 2.500238,0.0734 3.714697,0.38415 1.515631,0.44352 2.933782,1.10786 4.109217,2.18818 0.932334,0.90795 1.913004,1.95744 1.78013,3.3537 -0.05293,0.78288 -0.1309,1.58211 -0.629602,2.22409 -0.66121,0.66093 -1.484781,1.16364 -2.336792,1.54001 -1.117137,0.4119 -2.225763,0.84817 -3.345196,1.25582 -0.972868,0.29683 -1.965926,0.53559 -2.969797,0.69725 -1.011293,0.21897 -2.064081,0.17608 -3.08107,0.38381 -2.173026,0.0266 -4.34603,0.0549 -6.519077,0.0798 -0.06467,0 -0.78237,-1.1e-4 -0.873376,-1.6e-4 -0.136483,-8e-5 -0.545934,-1.1e-4 -0.409451,-1.3e-4 5.527397,0 7.532079,0 5.224338,0 -0.894215,0 -1.788726,0 -2.682367,0.0376 -1.417333,0.0657 -2.830515,0.18867 -4.24507,0.29673 -3.456361,0.0111 -7.087523,0.34679 -10.5117,-0.45604 -1.324599,-0.35753 -2.636893,-0.74935 -3.91368,-1.25627 -1.220242,-0.50363 -2.446874,-1.03354 -3.510518,-1.82888 -0.667872,-0.64312 -0.911841,-1.3041 -0.04189,-1.91645 1.02484,-0.46623 2.169914,-0.69128 3.242233,-1.02233 0,0 6.067621,0.8092 6.067621,0.8092 z"
       inkscape:connector-curvature="0" />
    <path
       style="fill:#000101;fill-opacity:1;stroke:none;stroke-width:0.26499999;stroke-miterlimit:4;stroke-dasharray:none;stroke-opacity:0.03529412"
       id="path5831"
       d="m 151.58882,277.67266 c -1.73535,-0.0633 -3.46072,0.0689 -5.17139,0.35328 -2.23137,0.30112 -4.34809,1.03647 -6.44033,1.83615 -1.5792,0.68789 -3.22788,1.29167 -4.67696,2.23695 -0.90358,0.70035 -1.0152,1.3336 -0.69326,2.39434 0.47385,1.13562 1.38235,1.9544 2.41963,2.57194 1.70505,0.92818 3.71548,1.0546 5.61991,1.07357 -9.31624,0.27168 -4.27542,-0.0374 -2.22221,-0.40301 1.17194,-0.2087 2.34102,-0.43744 3.50609,-0.68122 1.49725,-0.32526 3.0015,-0.61545 4.50209,-0.92472 1.32208,-0.21214 2.5188,-0.78417 3.68404,-1.41491 0.94531,-0.53213 1.76007,-1.1928 2.21118,-2.19147 0.25067,-0.7122 0.31234,-1.42081 -0.0212,-2.10606 -0.62412,-1.05431 -1.66545,-1.78696 -2.70384,-2.39887 -1.63351,-0.8722 -3.39407,-1.23774 -5.21413,-1.44052 -2.13275,-0.1747 -6.43426,-0.31345 3.30816,-0.0909 0.27731,0.006 -0.55436,0.0322 -0.82926,0.0692 -0.67066,0.0902 -0.89835,0.18111 -1.54682,0.36703 -0.6827,0.19923 -1.28149,0.56354 -1.88161,0.93094 0,0 -6.04445,-0.60756 -6.04445,-0.60756 v 0 c 0.61336,-0.40894 1.21727,-0.83775 1.91994,-1.08527 3.52787,-1.23997 7.35509,-0.80759 11.03349,-0.45006 1.85413,0.2662 3.65058,0.7321 5.27858,1.69651 1.10221,0.73308 2.20099,1.54453 2.79308,2.76596 0.32202,0.85992 0.3014,1.71235 0.0179,2.59019 -0.44235,1.14612 -1.23262,1.96236 -2.28652,2.59506 -1.16888,0.66638 -2.35399,1.33355 -3.6875,1.60689 -1.53082,0.28324 -3.05267,0.61203 -4.58227,0.9026 -1.1768,0.25807 -2.36053,0.46704 -3.5433,0.69604 -0.45667,0.0884 -2.00792,0.40902 -2.49762,0.42352 -2.37177,0.0702 -4.74538,0.0469 -7.11807,0.0704 -1.98033,-0.10038 -4.02766,-0.29882 -5.73848,-1.39446 -1.08196,-0.78113 -2.03017,-1.71328 -2.47098,-3.00656 -0.30323,-1.19288 -0.24877,-2.27862 0.73078,-3.1419 1.43288,-1.06839 3.16908,-1.63084 4.78045,-2.37218 2.08753,-0.82039 4.19233,-1.6369 6.4272,-1.95133 1.67644,-0.34017 3.37645,-0.52718 5.08971,-0.47754 0,0 6.04798,0.95789 6.04798,0.95789 z"
       inkscape:connector-curvature="0" />
  </g>
</svg>
