<?xml version="1.0" encoding="UTF-8" standalone="no"?>
<!-- Created with Inkscape (http://www.inkscape.org/) -->

<svg
   xmlns:dc="http://purl.org/dc/elements/1.1/"
   xmlns:cc="http://creativecommons.org/ns#"
   xmlns:rdf="http://www.w3.org/1999/02/22-rdf-syntax-ns#"
   xmlns:svg="http://www.w3.org/2000/svg"
   xmlns="http://www.w3.org/2000/svg"
   xmlns:sodipodi="http://sodipodi.sourceforge.net/DTD/sodipodi-0.dtd"
   xmlns:inkscape="http://www.inkscape.org/namespaces/inkscape"
   width="210mm"
   height="297mm"
   viewBox="0 0 210 297"
   version="1.1"
   id="svg8"
   inkscape:version="0.92.1 r15371"
   sodipodi:docname="cctv.svg">
  <defs
     id="defs2" />
  <sodipodi:namedview
     id="base"
     pagecolor="#ffffff"
     bordercolor="#666666"
     borderopacity="1.0"
     inkscape:pageopacity="0.0"
     inkscape:pageshadow="2"
     inkscape:zoom="0.7"
     inkscape:cx="108.77386"
     inkscape:cy="584.06998"
     inkscape:document-units="mm"
     inkscape:current-layer="layer4"
     showgrid="false"
     inkscape:window-width="1875"
     inkscape:window-height="1056"
     inkscape:window-x="45"
     inkscape:window-y="24"
     inkscape:window-maximized="1" />
  <metadata
     id="metadata5">
    <rdf:RDF>
      <cc:Work
         rdf:about="">
        <dc:format>image/svg+xml</dc:format>
        <dc:type
           rdf:resource="http://purl.org/dc/dcmitype/StillImage" />
        <dc:title></dc:title>
      </cc:Work>
    </rdf:RDF>
  </metadata>
  <g
     inkscape:groupmode="layer"
     id="layer3"
     inkscape:label="Layer 2"
     style="display:inline">
    <g
       inkscape:groupmode="layer"
       id="layer5"
       inkscape:label="Layer 4">
      <path
         style="fill:#464e54;fill-opacity:1;stroke:#000000;stroke-width:0.26458332px;stroke-linecap:butt;stroke-linejoin:miter;stroke-opacity:1"
         d="m 88.383612,54.559803 0.07515,21.626448 4.113395,0.954903 11.371293,-6.170917 5.25837,-19.316824 z"
         id="path5197"
         inkscape:connector-curvature="0" />
    </g>
    <g
       inkscape:groupmode="layer"
       id="layer4"
       inkscape:label="Layer 3"
       style="display:inline">
      <path
         style="fill:#809ba9;fill-opacity:1;stroke:none;stroke-width:0.26499999;stroke-linecap:butt;stroke-linejoin:miter;stroke-miterlimit:4;stroke-dasharray:none;stroke-opacity:0.03529412"
         d="m 59.257847,36.891084 -2.459725,8.352493 10.20463,-2.349071 24.833942,26.01273 -3.453082,-14.347423 15.209248,-2.698252 3.78721,2.944878 13.53059,-6.288807 -22.153273,-1.200409 -17.332582,-13.917208 1.863786,-6.356911 -12.03068,2.84666 4.750387,2.758869 z"
         id="path5192"
         inkscape:connector-curvature="0" />
    </g>
    <path
       style="fill:#b4cedb;fill-opacity:1;stroke:none;stroke-width:0.186;stroke-linecap:butt;stroke-linejoin:miter;stroke-miterlimit:4;stroke-dasharray:none;stroke-opacity:0.01176471"
       d="M 55.678972,17.696055 C 55.494851,106.97566 53.145818,202.75 56.599321,281.11673 l 4.577238,0.70622 -0.11046,-263.199316 -4.906039,0.162643 z"
       id="path4643"
       inkscape:connector-curvature="0"
       sodipodi:nodetypes="cccccc" />
  </g>
  <g
     inkscape:label="Layer 1"
     inkscape:groupmode="layer"
     id="layer1"
     sodipodi:insensitive="true"
     style="display:inline">
    <path
       id="path4606"
       d="m 58.068981,17.749743 c -0.01207,2.452848 -0.09531,4.901237 -0.172203,7.351353 -0.130563,4.243841 -0.161685,8.49198 -0.194672,12.739067 -0.03559,6.13328 -0.03234,12.266882 -0.03015,18.400326 0.103753,6.18653 -0.139335,12.362439 -0.438847,18.531064 -0.501437,6.978108 -0.836326,13.975601 -1.238718,20.96529 -0.411948,6.082787 -0.524113,12.190417 -0.687572,18.292707 -0.140422,6.28268 -0.270881,12.56619 -0.388787,18.84989 -0.108356,3.99716 -0.07275,7.99919 -0.137074,11.99729 -0.02296,1.42656 -0.125549,4.4964 -0.17111,5.93595 -0.177019,5.12693 -0.405042,10.24832 -0.517726,15.37949 -0.08944,4.30158 -0.09563,8.60564 -0.08967,12.90874 0.0035,3.43456 0.01486,6.86914 0.01648,10.30371 0.0072,2.8447 0.01408,5.68933 0.01583,8.53404 0.0052,2.91484 -0.0066,5.82949 -0.01816,8.74424 -0.01635,3.20787 0.105042,6.41372 0.28025,9.61072 0.112049,3.24048 0.395979,6.45948 0.668601,9.67824 0.130034,2.6514 0.507155,5.24657 0.82188,7.85887 0.230579,2.29284 0.403932,4.59661 0.606707,6.8949 0.24871,2.44049 0.555865,4.86888 0.852636,7.29851 0.342155,2.49582 0.658102,4.99935 0.935506,7.51145 0.294884,2.49763 0.579196,4.99774 0.815834,7.50801 0.218821,2.66556 0.415377,5.33322 0.544882,8.0107 0.104357,1.71638 0.246203,3.42757 0.33754,5.14553 0.04517,0.87149 0.05412,1.74538 0.05729,2.61885 9.15e-4,0.74845 -7.74e-4,1.49688 -0.0017,2.24533 0.07893,0.64334 0.257179,0.9025 -0.05424,1.48662 -4.228166,-0.10094 -2.947223,0.92175 -4.401435,-0.34645 0,0 3.921905,-0.63378 3.921905,-0.63378 v 0 c 1.479014,0.68673 0.394985,0.13491 -3.452564,0.16793 0.357394,0.77798 -0.01906,-0.37272 0.03157,-0.67508 5.58e-4,-0.74756 0.002,-1.49508 0.0022,-2.24264 -0.0011,-0.86172 -0.005,-1.72371 -0.03625,-2.5845 -0.06592,-1.71889 -0.180082,-3.43236 -0.282252,-5.14747 -0.105368,-2.66621 -0.293019,-5.32093 -0.527715,-7.97042 -0.246727,-2.50486 -0.536851,-5.00054 -0.821684,-7.49709 -0.277577,-2.5093 -0.597218,-5.00901 -0.9376,-7.50256 -0.297863,-2.43866 -0.607974,-4.87531 -0.860734,-7.32427 -0.202033,-2.2899 -0.383215,-4.58363 -0.604325,-6.86979 -0.318894,-2.61921 -0.65673,-5.23052 -0.783433,-7.88844 -0.264557,-3.2281 -0.545538,-6.4564 -0.680878,-9.70204 -0.158907,-3.21178 -0.274563,-6.43025 -0.256869,-9.65113 -0.01151,-2.91474 -0.02325,-5.82937 -0.01833,-8.74419 0.0013,-2.84461 0.0074,-5.68915 0.01222,-8.53376 -0.0013,-3.43508 0.004,-6.87026 0.01317,-10.30528 0.01994,-4.30918 0.03782,-8.61859 0.128222,-12.92628 0.141196,-5.13258 0.36593,-10.25777 0.576199,-15.38529 0.203831,-5.97223 0.216718,-11.94723 0.31882,-17.92408 0.142044,-6.28418 0.269198,-12.56837 0.385922,-18.85358 0.149404,-6.11273 0.286532,-12.22767 0.716657,-18.317314 0.424484,-6.983878 0.789967,-13.975138 1.243988,-20.955728 0.270628,-6.158375 0.482977,-12.324177 0.414484,-18.49687 0.0015,-6.134237 0.0011,-12.268482 -0.0091,-18.402704 -0.0065,-4.253257 -0.02359,-8.50814 0.07892,-12.759617 0.06757,-2.441748 0.150246,-4.884874 0.06878,-7.328464 0,0 3.947241,0 3.947241,0 z"
       inkscape:connector-curvature="0"
       style="stroke-width:0.22199063" />
    <path
       id="path4614"
       d="m 65.006597,18.676843 c -0.417371,2.539928 -0.72156,5.118221 -1.023709,7.697432 -0.416257,3.847455 -0.526492,7.75467 -0.675246,11.645125 -0.163794,4.042127 -0.157412,8.093495 -0.232461,12.140221 -0.07265,3.206943 -0.138934,6.413941 -0.172558,9.622586 -0.07041,2.942238 0.04726,5.875374 0.18476,8.807156 0.109802,2.839977 0.343622,5.66012 0.537816,8.486796 0.171333,2.433511 0.398687,4.855427 0.617805,7.27883 0.261355,2.833688 0.370863,5.688873 0.454104,8.547034 0.07377,3.720238 0.06294,7.442617 0.06652,11.164167 -0.0065,4.27413 -0.0031,8.54843 -0.01544,12.82258 0.04338,4.16464 -0.05628,8.3256 -0.12904,12.48764 -0.187115,3.63434 -0.382372,7.26358 -0.476458,10.90781 -0.06819,2.98421 -0.06401,5.97046 -0.07031,8.95604 0.0038,2.30963 0.0095,4.61922 0.01241,6.92885 0.0038,2.10333 0.0033,4.20666 0.0019,6.31 4.99e-4,2.4089 -0.0077,4.81778 -0.01233,7.22666 -0.0128,3.12132 -0.126937,6.23893 -0.182793,9.35899 -0.101011,3.46468 -0.229982,6.92641 -0.40838,10.38321 -0.254209,4.08806 -0.526485,8.1732 -0.764498,12.26375 -0.315892,3.62027 -0.567723,7.24785 -0.697817,10.89704 -0.0828,2.71829 -0.08447,5.44015 -0.0828,8.16087 0.01461,2.50621 8.17e-4,5.0089 -0.073,7.51239 -0.101612,3.01724 -0.140006,6.0382 -0.158362,9.0592 0.0129,2.54455 0.178272,5.07916 0.36257,7.60447 0.157413,2.57074 0.339293,5.13675 0.52327,7.70289 0.207451,2.4869 0.411718,4.97491 0.590033,7.46761 0.09937,1.95961 0.27111,3.90831 0.50288,5.83887 0.227675,1.80999 0.444636,3.62384 0.681475,5.43081 0.182419,1.7453 0.458751,3.45858 0.696194,5.18538 0.143159,1.01077 0.209669,2.04007 0.237072,3.07332 0.01411,0.76537 0.01,1.5312 0.0083,2.29677 0.0017,0.08 0.0033,0.15992 0.005,0.23985 0,0 -3.543825,-0.003 -3.543825,-0.003 v 0 c 0.0022,-0.0796 0.0045,-0.1592 0.0067,-0.23878 0.0018,-0.75766 0.0059,-1.51546 -0.0052,-2.27296 -0.02221,-1.0001 -0.07885,-1.99747 -0.208413,-2.97863 -0.223898,-1.72997 -0.485417,-3.44754 -0.675985,-5.18855 -0.235319,-1.81153 -0.466773,-3.62466 -0.68624,-5.44113 -0.226241,-1.94578 -0.391052,-3.90758 -0.483231,-5.88154 -0.16596,-2.49273 -0.369193,-4.97924 -0.571912,-7.46494 -0.18828,-2.56605 -0.372675,-5.1324 -0.536722,-7.70266 -0.183672,-2.54825 -0.337528,-5.10653 -0.335707,-7.67418 0.02686,-3.02641 0.05739,-6.05329 0.146961,-9.07701 0.0657,-2.49634 0.06589,-4.99128 0.0534,-7.48963 0.01131,-2.7313 0.03549,-5.46344 0.12957,-8.19122 0.139773,-3.65621 0.394075,-7.29162 0.733519,-10.91496 0.239489,-4.08691 0.503633,-8.17003 0.746517,-12.25643 0.163521,-3.44887 0.284461,-6.90139 0.382855,-10.35645 0.05743,-3.11414 0.16856,-6.22744 0.16167,-9.34325 -0.0047,-2.40886 -0.01268,-4.81771 -0.01247,-7.22659 -0.0016,-2.10319 -0.0026,-4.20638 -0.0012,-6.30958 3.32e-4,-2.31035 8.17e-4,-4.6207 0.0091,-6.93102 0.0053,-2.99319 0.0367,-5.98672 0.114733,-8.9775 0.10178,-3.64122 0.263342,-7.27262 0.484632,-10.90049 0.08041,-4.15642 0.197797,-8.31244 0.16012,-12.47204 -0.01015,-4.27379 -0.0018,-8.54768 -0.01129,-12.82145 -0.0043,-3.71365 -0.01189,-7.428675 -0.100467,-11.140107 -0.08112,-2.843472 -0.227466,-5.676406 -0.486991,-8.494157 -0.2155,-2.430463 -0.449584,-4.856925 -0.611259,-7.298669 -0.182981,-2.832473 -0.406124,-5.65944 -0.516505,-8.502658 -0.148505,-2.947265 -0.264411,-5.899645 -0.185214,-8.858279 0.03278,-3.212232 0.10223,-6.42244 0.214123,-9.630373 0.08332,-4.051924 0.06522,-8.109235 0.231284,-12.156582 0.152834,-3.910576 0.262039,-7.833924 0.648306,-11.70903 0.282693,-2.578204 0.589962,-5.147025 0.918237,-7.711054 0,0 3.523897,0.110653 3.523897,0.110653 z"
       inkscape:connector-curvature="0"
       style="stroke-width:0.20979224" />
    <path
       id="path4616"
       d="m 57.203323,16.484253 c 1.090795,0.681707 2.206943,1.289792 3.441494,1.661893 0.443653,0.116641 0.898316,0.178535 1.355159,0.210985 0.135519,0.0096 0.542938,0.02062 0.407077,0.02032 -5.503799,-0.01227 -6.851705,0.119126 -4.772279,-0.06487 0.753007,-0.123955 1.507961,-0.222307 2.269278,-0.27536 0.338106,-0.01871 0.676537,-0.02924 1.014807,-0.04437 0,0 5.569688,0.791487 5.569688,0.791487 v 0 c -0.345776,0.09397 -0.67129,0.113658 -1.031388,0.101829 -0.758838,0.02874 -1.518065,0.07909 -2.26428,0.228794 -2.629683,0.49066 -5.505551,0.477005 -8.099153,-0.27544 -1.223822,-0.464777 -2.348634,-1.121934 -3.47246,-1.788319 0,0 5.582057,-0.566951 5.582057,-0.566951 z"
       inkscape:connector-curvature="0"
       style="stroke-width:0.26458332" />
    <path
       id="path4618"
       d="m 61.769926,281.51783 c 1.150435,0.11972 2.304769,0.19386 3.459758,0.25135 0,0 -5.517195,0.84249 -5.517195,0.84249 v 0 c -1.166868,-0.0716 -2.332826,-0.15862 -3.495971,-0.27715 0,0 5.553408,-0.81669 5.553408,-0.81669 z"
       inkscape:connector-curvature="0"
       style="stroke-width:0.26458332" />
    <path
       id="path4622"
       d="m 58.106397,34.98692 c 2.489657,-0.313298 4.965453,-0.709512 7.459802,-0.98648 3.495675,-0.337487 6.990376,-0.692537 10.442099,-1.351807 1.142889,-0.334071 2.882138,-0.521401 3.434863,-1.772661 0.101899,-0.688736 -0.04475,-1.388715 -0.352549,-2.006721 -0.253246,-0.63899 -0.749478,-0.981829 -1.385917,-1.171028 -0.709287,-0.151503 -1.439206,-0.144483 -2.160881,-0.147629 8.526769,-0.129389 5.405633,-0.434046 2.898053,0.781545 -0.591865,0.332144 -1.656414,0.681831 -1.567437,1.519134 0.588216,1.186526 1.644584,2.037646 2.596248,2.923426 1.445932,1.231088 3.061438,2.230054 4.595934,3.340627 1.603092,1.182388 3.303622,2.206003 5.08163,3.099646 2.297239,1.223613 4.711263,2.199405 7.105308,3.212026 1.841122,0.660792 3.659481,1.362763 5.45658,2.135124 2.99597,1.315699 6.06764,2.452259 9.21474,3.345577 1.80003,0.497774 3.62674,0.88338 5.45564,1.255778 0,0 -5.39794,0.740085 -5.39794,0.740085 v 0 c -1.80752,-0.396174 -3.61272,-0.804349 -5.39525,-1.303949 -3.18765,-0.939736 -6.314115,-2.074783 -9.366671,-3.391103 -1.799336,-0.742871 -3.618457,-1.429576 -5.430464,-2.14022 -2.39794,-1.026719 -4.808223,-2.032402 -7.118231,-3.249539 -1.787499,-0.929592 -3.508952,-1.971942 -5.12577,-3.17787 -1.558399,-1.104908 -3.163554,-2.150571 -4.605393,-3.410543 -1.047832,-0.971949 -2.220336,-1.939261 -2.68288,-3.340574 -0.0085,-0.17069 -0.04794,-0.342632 -0.02559,-0.512066 0.111525,-0.845468 0.972193,-1.321927 1.648982,-1.653813 2.68796,-1.5042 4.631904,-1.290862 8.212523,-1.041468 0.743826,0.02511 1.503175,0.05496 2.194767,0.360687 0.660534,0.364083 1.146444,0.879584 1.416621,1.594684 0.302612,0.778018 0.474681,1.594577 0.350118,2.431412 -0.0473,0.153501 -0.07019,0.31677 -0.141891,0.460505 -0.6228,1.248537 -2.30768,1.52605 -3.488634,1.87031 -3.461023,0.687039 -6.970289,1.051706 -10.479728,1.392955 -2.440297,0.257704 -4.861578,0.631941 -7.285273,1.010637 0,0 -5.553411,-0.816687 -5.553411,-0.816687 z"
       inkscape:connector-curvature="0"
       style="stroke-width:0.26458332" />
    <path
       id="path4634"
       d="m 103.66741,48.745221 c -1.55379,0.10399 -3.07734,0.434393 -4.564088,0.885661 -1.035085,0.3257 -2.053299,0.708917 -2.996499,1.248768 -0.52854,0.338383 -1.022242,0.733163 -1.451581,1.190871 -0.547336,0.582758 -0.969412,1.26402 -1.357847,1.95862 -0.456237,0.884232 -0.846093,1.803117 -1.170752,2.743446 -0.453141,1.192347 -0.817772,2.413111 -1.14218,3.645966 -0.335021,1.438119 -0.438452,2.916291 -0.602737,4.380622 -0.160461,1.431729 -0.222191,2.871041 -0.258918,4.310356 -0.08423,1.043014 0.05859,2.051688 0.322093,3.056326 0.266168,0.848292 0.636992,1.628921 1.251844,2.276586 0.614852,0.697704 1.426181,0.862442 2.307971,0.954924 0.178435,0.01053 0.356738,0.02357 0.535303,0.03159 0.389032,0.01749 0.841774,0.02495 1.229473,0.02923 0.225439,0.0024 0.901785,0.0056 0.676339,0.0043 -5.047321,-0.03018 -6.396768,0.09281 -4.074419,-0.08441 1.339402,-0.130902 2.645449,-0.464629 3.947003,-0.79248 1.1487,-0.286136 2.121813,-0.900131 3.017113,-1.651193 0.954842,-0.824756 1.738402,-1.820301 2.453962,-2.853415 0.69876,-1.089366 1.17623,-2.31313 1.56358,-3.543723 0.38272,-1.250775 0.66121,-2.533338 0.91939,-3.815204 0.17648,-0.873998 0.23523,-1.763258 0.26115,-2.652435 0.0224,-0.934384 0.0178,-1.869144 0.0132,-2.803705 0.0571,-1.01755 -0.0328,-2.017625 -0.17431,-3.023113 -0.1876,-0.813763 -0.46773,-1.607132 -0.77964,-2.381247 -0.404,-0.772102 -0.8809,-1.503101 -1.4195,-2.188015 -0.48967,-0.680296 -1.17659,-1.129971 -1.81907,-1.636789 -0.519567,-0.28753 -1.00951,-0.592785 -1.596903,-0.719534 -0.754195,-0.110591 -1.520542,-0.100372 -2.281124,-0.105439 8.984547,-0.02072 6.272467,-0.237858 4.366817,0.135673 0,0 -5.57229,-0.714552 -5.57229,-0.714552 v 0 c 2.072185,-0.844802 4.91588,0.05053 6.74846,-0.290494 0.77812,0.01823 1.57395,0.01712 2.32087,0.263726 0.57184,0.233627 1.11283,0.552841 1.61315,0.913841 0.68843,0.504077 1.28768,1.114769 1.81228,1.787782 0.54807,0.735237 1.0534,1.510535 1.43627,2.345653 0.30858,0.820724 0.61568,1.648616 0.77447,2.513634 0.13533,1.030044 0.21487,2.057136 0.17557,3.097599 -2.7e-4,0.940827 0.007,1.881677 -0.003,2.822464 -0.0305,0.92189 -0.098,1.843495 -0.28857,2.748229 -0.27194,1.297607 -0.55908,2.596201 -0.93251,3.868336 -0.38598,1.282888 -0.88131,2.555914 -1.56304,3.710921 -0.71974,1.074992 -1.51329,2.115206 -2.46534,2.99615 -0.90411,0.816927 -1.85789,1.541219 -3.04265,1.904373 -1.307,0.369006 -2.636611,0.669975 -3.97734,0.886663 -3.119242,0.301477 -6.297398,0.257398 -9.420651,-0.01553 -0.943726,-0.200226 -1.741368,-0.57359 -2.355945,-1.347946 -0.58892,-0.759576 -1.003898,-1.603703 -1.258713,-2.53307 -0.259839,-1.056045 -0.398428,-2.12076 -0.305993,-3.2111 0.04319,-1.454645 0.13838,-2.907229 0.288652,-4.354891 0.155888,-1.491768 0.252442,-2.996337 0.589714,-4.461761 0.317474,-1.24618 0.655744,-2.486544 1.12231,-3.686247 0.318955,-0.972997 0.705625,-1.918554 1.153956,-2.839262 0.382654,-0.736023 0.815404,-1.456052 1.355627,-2.087822 0.428117,-0.51318 0.908479,-0.975338 1.470052,-1.340411 0.911114,-0.667197 2.008518,-1.025117 3.065968,-1.391517 1.465233,-0.498875 2.984822,-0.870435 4.529878,-1.003665 0,0 5.553405,0.816686 5.553405,0.816686 z"
       inkscape:connector-curvature="0"
       style="stroke-width:0.26458332" />
    <path
       id="path4636"
       d="m 59.257861,36.891073 c 0.444235,1.393756 0.943522,2.769809 1.335492,4.179441 0.191532,0.852783 0.457869,1.686456 0.803309,2.487504 0.149151,0.510354 0.514303,0.91255 1.004528,1.113943 -0.321344,0.132797 1.212106,0.0526 0.944996,0.04835 -1.676244,-0.02661 -3.353157,0.01331 -5.029332,-0.01725 -0.214384,-0.0039 0.427413,-0.03627 0.640189,-0.06277 0.22326,-0.02781 0.444994,-0.06674 0.667493,-0.100103 1.389078,-0.250812 2.799776,-0.316391 4.202496,-0.444423 1.099283,-0.09235 2.146766,-0.445373 3.149375,-0.889008 0.815846,-0.413941 1.622576,-0.843058 2.499339,-1.111634 0.936736,-0.224491 1.885302,-0.388897 2.833637,-0.554262 0.78921,-0.131982 1.513541,-0.451863 2.225762,-0.80069 0.47974,-0.252008 0.959512,-0.495639 1.164379,-1.019233 0.198879,-0.732975 0.294621,-1.486083 0.448066,-2.228043 0.197271,-0.800328 0.3003,-1.616446 0.487686,-2.418591 0.185306,-0.729377 0.251489,-1.478079 0.288602,-2.227188 0.0019,-0.09498 0.0046,-0.18995 0.0054,-0.284946 0.0052,-0.632671 -0.04248,0.17176 -0.01566,0.173398 1.834332,0.112008 3.674713,-0.07609 5.512072,-0.114134 -0.402185,0.680083 -0.912386,1.285558 -1.391385,1.911318 -0.778986,0.98234 -1.495213,2.009323 -2.308535,2.96404 -0.763336,0.901991 -1.613064,1.714635 -2.515756,2.473868 -0.701966,0.57042 -1.475123,1.044519 -2.181886,1.607968 -0.577932,0.428233 -1.093954,0.892738 -1.409787,1.545685 -0.411518,1.101407 -0.160378,2.15709 0.240516,3.214902 0.61594,1.392298 1.549985,2.605132 2.623736,3.672718 1.403749,1.141185 2.761604,2.332183 4.089455,3.560739 1.632733,1.552003 3.22852,3.138969 4.891405,4.658934 1.337741,1.231352 2.643815,2.515309 3.826391,3.898508 0.61591,0.793808 1.324393,1.535152 1.815798,2.415855 0.394055,0.676034 0.723972,1.381448 0.933583,2.136029 0.258992,0.743773 0.507984,1.492644 0.79747,2.225238 0.266636,0.857806 0.806841,1.584534 1.319305,2.309389 0.828426,1.197409 1.882899,2.200884 2.850927,3.279897 0.733142,0.751366 1.528927,1.430271 2.153545,2.277864 0,0 -5.588318,0.366768 -5.588318,0.366768 v 0 c -0.644321,-0.800507 -1.422405,-1.472917 -2.110388,-2.234994 -0.998826,-1.085921 -2.04199,-2.134528 -2.89075,-3.348011 -0.532614,-0.768223 -1.069866,-1.540025 -1.344329,-2.4454 -0.280332,-0.752388 -0.556901,-1.506607 -0.802495,-2.271139 -0.217307,-0.704987 -0.552691,-1.361808 -0.92869,-1.995376 -0.519755,-0.821301 -1.156737,-1.564706 -1.764863,-2.320586 -1.172758,-1.355194 -2.43875,-2.63161 -3.763465,-3.838131 -1.655591,-1.529601 -3.248528,-3.123821 -4.900303,-4.657518 -1.352836,-1.228744 -2.767351,-2.382139 -4.136795,-3.590952 -1.073703,-1.157049 -2.025563,-2.432005 -2.629524,-3.902122 -0.435796,-1.195965 -0.681403,-2.391865 -0.2978,-3.642419 0.293325,-0.745027 0.755701,-1.361191 1.433981,-1.804045 0.681432,-0.604184 1.455772,-1.080646 2.196439,-1.609188 0.895159,-0.741392 1.778844,-1.488533 2.53003,-2.382896 0.824151,-0.93083 1.524389,-1.948487 2.286058,-2.929548 0.461688,-0.609838 0.957779,-1.203185 1.342343,-1.864929 4.811956,-0.370552 5.945703,-2.144213 5.749636,0.570674 -0.03784,0.783101 -0.10329,1.566643 -0.292695,2.330069 -0.190987,0.798164 -0.297212,1.60932 -0.492734,2.406947 -0.168883,0.75511 -0.248144,1.529379 -0.426981,2.282854 -0.182177,0.676862 -0.552816,1.146714 -1.207495,1.439963 -0.692621,0.436303 -1.462188,0.769956 -2.258563,0.965401 -0.9266,0.23749 -1.896078,0.311602 -2.828454,0.53245 -0.893133,0.186409 -1.694778,0.565137 -2.496804,0.996249 -0.984822,0.532574 -2.077863,0.922694 -3.187925,1.077746 -1.39487,0.190481 -2.81545,0.158374 -4.204023,0.418774 -2.725367,0.463883 -5.810033,1.126556 -8.347442,-0.08145 -0.47852,-0.391347 -0.84395,-0.860536 -1.021837,-1.462254 -0.336616,-0.825389 -0.559181,-1.693029 -0.758756,-2.560563 -0.38481,-1.404168 -0.855446,-2.786684 -1.367224,-4.149191 0,0 5.607542,-0.180485 5.607542,-0.180485 z"
       inkscape:connector-curvature="0"
       style="stroke-width:0.26458332" />
    <path
       id="path4638"
       d="m 88.383612,54.559813 c 2.799812,-1.296874 5.780161,-2.123421 8.755176,-2.905344 3.831212,-0.983375 7.724092,-1.687886 11.608042,-2.423457 2.0391,-0.275399 4.08558,-0.820134 6.15779,-0.801909 2.00215,0.01762 4.00403,0.05902 6.00604,0.08853 0.0956,0.07773 0.224,0.127204 0.28688,0.233183 0.38034,0.640977 -0.26546,1.42802 -0.59994,1.924667 -0.30124,0.477604 -0.62639,0.946073 -1.01307,1.358566 -0.75123,0.639887 -1.7753,0.880396 -2.67811,1.250307 -1.39811,0.556125 -2.72568,1.247452 -3.98185,2.072373 -0.98371,0.690134 -1.84317,1.534586 -2.61092,2.454637 -0.25477,0.346919 -0.5067,0.695762 -0.75434,1.04779 0,0 -5.60504,-0.33791 -5.60504,-0.33791 v 0 c 0.25044,-0.372517 0.53646,-0.714129 0.77569,-1.094623 0.78499,-0.969196 1.65788,-1.858926 2.65011,-2.620182 1.27065,-0.83615 2.5668,-1.613842 3.9894,-2.173949 0.55598,-0.240959 1.1113,-0.483381 1.67974,-0.694016 0.22847,-0.08466 0.47116,-0.128645 0.69709,-0.21985 0.0797,-0.03217 0.14843,-0.08661 0.22265,-0.129921 0.39993,-0.362453 0.74194,-0.791064 1.01946,-1.255101 0.13011,-0.18024 0.64605,-0.773263 0.66739,-0.974918 0.0102,-0.09659 -0.66943,0.48519 -0.28933,-0.03447 10.07072,-0.06738 5.17992,-0.154067 3.26916,0.01222 -1.51868,0.132172 -3.02372,0.408437 -4.52822,0.642382 -3.88606,0.716274 -7.77692,1.422347 -11.61156,2.38471 -2.905031,0.749864 -5.823427,1.529676 -8.546643,2.814998 0,0 -5.565595,-0.618723 -5.565595,-0.618723 z"
       inkscape:connector-curvature="0"
       style="stroke-width:0.26458332" />
    <path
       id="path4640"
       d="m 76.889339,32.529674 c -1.678363,0.764302 -3.400327,1.421244 -5.12994,2.058125 -1.57653,0.571735 -3.136842,1.19761 -4.743595,1.681318 -0.606327,0.159581 -1.168186,0.445313 -1.76701,0.626034 -0.359701,0.108791 -0.735965,0.120644 -1.108657,0.127169 -4.811625,0.754369 -4.492445,0.01847 -7.503792,-0.267232 -1.078508,-0.06489 -2.145617,-0.08888 -3.212441,-0.263184 -0.428741,-0.07515 -0.861243,-0.12165 -1.294072,-0.164647 0,0 5.553133,-0.814589 5.553133,-0.814589 v 0 c 0.429694,0.05597 0.858655,0.116462 1.286862,0.18302 1.064588,0.136412 2.139934,0.116624 3.205832,0.245343 2.232282,0.287727 6.260745,0.651352 -3.611562,0.199001 0.364416,0.0052 0.729064,0.01736 1.093258,-0.0021 0.638114,-0.09964 1.216591,-0.36829 1.81896,-0.593365 1.639835,-0.415542 3.212219,-1.054976 4.801103,-1.627749 1.695765,-0.624835 3.390003,-1.251789 5.032459,-2.007436 0,0 5.579462,0.620268 5.579462,0.620268 z"
       inkscape:connector-curvature="0"
       style="stroke-width:0.26458332" />
  </g>
</svg>
