<?xml version="1.0" encoding="UTF-8" standalone="no"?>
<!-- Created with Inkscape (http://www.inkscape.org/) -->

<svg
   xmlns:dc="http://purl.org/dc/elements/1.1/"
   xmlns:cc="http://creativecommons.org/ns#"
   xmlns:rdf="http://www.w3.org/1999/02/22-rdf-syntax-ns#"
   xmlns:svg="http://www.w3.org/2000/svg"
   xmlns="http://www.w3.org/2000/svg"
   xmlns:sodipodi="http://sodipodi.sourceforge.net/DTD/sodipodi-0.dtd"
   xmlns:inkscape="http://www.inkscape.org/namespaces/inkscape"
   width="210mm"
   height="297mm"
   viewBox="0 0 210 297"
   version="1.1"
   id="svg24"
   inkscape:version="0.92.1 r15371"
   sodipodi:docname="hydrant-2.svg"
   inkscape:export-filename="/home/lislis/games/beyonce-brawls/resources/hydrant-3.png"
   inkscape:export-xdpi="96"
   inkscape:export-ydpi="96">
  <defs
     id="defs18" />
  <sodipodi:namedview
     id="base"
     pagecolor="#ffffff"
     bordercolor="#666666"
     borderopacity="1.0"
     inkscape:pageopacity="0.0"
     inkscape:pageshadow="2"
     inkscape:zoom="0.7"
     inkscape:cx="84.061535"
     inkscape:cy="570.85142"
     inkscape:document-units="mm"
     inkscape:current-layer="layer2"
     showgrid="false"
     inkscape:window-width="1875"
     inkscape:window-height="1056"
     inkscape:window-x="45"
     inkscape:window-y="24"
     inkscape:window-maximized="1" />
  <metadata
     id="metadata21">
    <rdf:RDF>
      <cc:Work
         rdf:about="">
        <dc:format>image/svg+xml</dc:format>
        <dc:type
           rdf:resource="http://purl.org/dc/dcmitype/StillImage" />
        <dc:title></dc:title>
      </cc:Work>
    </rdf:RDF>
  </metadata>
  <g
     inkscape:groupmode="layer"
     id="layer2"
     inkscape:label="Layer 2">
    <path
       style="fill:#f4ff19;fill-opacity:1;stroke:#d2d2d2;stroke-width:0.26499999;stroke-linecap:butt;stroke-linejoin:miter;stroke-miterlimit:4;stroke-dasharray:none;stroke-opacity:0"
       d="m 99.02976,14.651786 -11.211288,17.041348 1.982042,0.946838 -20.501388,4.98575 -16.391869,29.91545 -5.154263,13.742453 -16.336213,1.354132 8.270718,20.460453 15.324826,9.14499 -3.772702,16.76912 -23.157058,11.00307 -0.349057,18.64596 11.308488,14.82193 9.514114,2.87887 2.84865,45.04261 -10.045181,39.49827 -13.726713,8.191 54.387966,6.36132 42.711308,-1.51191 34.01786,-0.75594 27.8005,-7.96872 -1.10448,-8.29548 -10.44305,-15.10783 -10.43668,-61.82529 15.72835,-8.1003 4.53572,-30.61607 -13.56617,-12.52058 -7.77796,3.24242 -0.71602,-29.96639 11.88564,-12.798253 -15.1499,-14.858984 -18.14286,-40.065475 -18.50538,1.837012 -6.78953,-21.974834 z"
       id="path85"
       inkscape:connector-curvature="0"
       inkscape:export-xdpi="63.047184"
       inkscape:export-ydpi="63.047184" />
  </g>
  <g
     inkscape:label="Layer 1"
     inkscape:groupmode="layer"
     id="layer1">
    <path
       id="path46"
       d="m 55.012325,112.2432 c 0.159705,2.74278 0.163346,5.49152 0.188791,8.23793 0.03732,3.75003 0.04933,7.50024 0.04447,11.25042 0.0037,3.9535 -0.0095,7.90698 -0.01564,11.86046 -0.01053,4.45178 -0.01355,8.90354 -0.01148,13.35534 0.133128,3.94697 -0.171849,7.88066 -0.418819,11.81581 -0.191426,3.0842 -0.246706,6.1745 -0.273307,9.26382 -0.0078,3.13286 -0.0055,6.26318 -0.138456,9.39355 -0.138608,4.12512 -0.261059,8.24933 -0.505357,12.36991 -0.300252,5.06308 -0.949246,10.09085 -1.555681,15.12293 -0.517457,4.5231 -0.856473,9.06177 -1.323375,13.58972 -0.457859,3.67905 -0.884748,7.36134 -1.302835,11.04515 -0.252692,2.02591 -0.495583,4.04658 -1.051538,6.01419 -0.478968,1.64426 -1.014214,3.26906 -1.486871,4.91564 -0.487503,1.72005 -0.720895,3.49584 -1.070872,5.24587 -0.225227,1.27859 -0.490924,2.54373 -0.873043,3.78472 -0.304287,1.15458 0.124481,1.08957 1.16002,1.31974 1.492698,0.25387 3.01384,0.27285 4.524309,0.29162 1.981422,0.006 5.384202,0.006 -3.734556,5.3e-4 -0.178245,-1.2e-4 0.356491,-5.3e-4 0.534733,-10e-4 0.349874,-10e-4 0.699744,-0.003 1.049615,-0.004 3.557807,-0.007 7.118869,-0.0928 10.664047,0.24079 3.180811,0.25413 6.34242,0.68557 9.511099,1.05057 4.198546,0.46338 8.4152,0.71465 12.629914,0.97594 4.736476,0.3663 9.487252,0.51853 14.216817,0.96866 4.93492,0.54884 9.87775,0.9286 14.83846,1.13173 1.15139,0.0339 4.22994,0.1485 5.3297,0.0786 0.80318,-0.0511 -3.19577,0.166 -2.41426,-0.0263 0.87225,-0.21459 1.79631,-0.0274 2.69444,-0.0427 5.67558,-0.0966 -0.66419,0.002 5.22175,-0.0869 4.5294,0.0747 9.04068,-0.29177 13.55699,-0.55904 3.72067,-0.16691 7.44203,-0.30315 11.16263,-0.4742 3.50055,-0.22137 6.99439,-0.54612 10.4853,-0.88561 2.52623,-0.25021 5.03764,-0.59943 7.54244,-1.0061 1.52723,-0.23469 3.07562,-0.4296 4.53273,-0.96519 0.58474,-0.2511 0.86567,-0.77241 1.11197,-1.32361 0.22922,-0.6751 0.61754,-1.25698 1.0405,-1.82226 0.5664,-0.84546 1.21726,-1.62758 1.82742,-2.44095 0.61498,-0.69368 1.01864,-1.50428 1.3679,-2.35286 0.32829,-0.75853 0.25095,-1.54586 0.11481,-2.33851 -0.4576,-1.56543 -0.9738,-3.10959 -1.40876,-4.6825 -0.62475,-2.41319 -1.10802,-4.85956 -1.70177,-7.28084 -0.70511,-2.98439 -1.12221,-6.02299 -1.68459,-9.03436 -0.777,-4.22148 -1.60205,-8.43378 -2.46015,-12.63945 -1.10143,-5.01273 -2.32606,-9.99451 -3.16751,-15.05923 -0.67372,-4.2458 -0.8437,-8.54725 -1.38529,-12.80664 -0.47448,-3.41622 -0.98073,-6.8259 -1.24249,-10.26638 -0.20679,-3.00676 -0.20545,-6.02221 -0.20785,-9.03446 0.008,-3.42991 0.0126,-6.85981 0.0166,-10.28972 0.0563,-3.45935 -0.0313,-6.91467 -0.17261,-10.37064 -0.13308,-2.96168 -0.18007,-5.92624 -0.2154,-8.89041 0.008,-2.68413 0.31611,-5.35075 0.62695,-8.01252 0.30222,-2.39941 0.52503,-4.80637 0.77166,-7.21163 0.28733,-2.51762 0.38161,-5.05028 0.44748,-7.58153 0.0682,-3.29641 0.24362,-6.58907 0.32195,-9.88549 0.0394,-2.05393 0.0562,-4.10828 0.0449,-6.16255 -0.0309,-0.32925 0.14233,-2.266671 -0.36429,-2.236403 0,0 5.6278,-0.469778 5.6278,-0.469778 v 0 c 0.44127,0.828571 0.29796,1.803361 0.30362,2.709091 -0.0328,2.05917 -0.0683,4.11829 -0.15381,6.17612 -0.12066,3.29264 -0.28366,6.58526 -0.3103,9.88023 -0.0382,2.547 -0.12064,5.09388 -0.40804,7.62717 -0.25199,2.40815 -0.47879,4.81808 -0.79329,7.21947 -0.31685,2.63802 -0.6152,5.28219 -0.63266,7.94299 0.0168,2.95888 0.0609,5.91755 0.17297,8.87456 0.12199,3.46343 0.21967,6.92551 0.16243,10.39178 -0.002,3.42917 -0.0101,6.85834 0.005,10.28749 0.017,2.99914 0.0282,6.00054 0.21229,8.9952 0.25607,3.43072 0.71214,6.83536 1.19263,10.24105 0.50897,4.25416 0.65099,8.54684 1.30584,12.78638 0.81984,5.06158 2.05155,10.03515 3.17086,15.03675 0.88862,4.20872 1.74295,8.42401 2.56178,12.64687 0.57654,3.00204 1.02098,6.02963 1.73816,9.0042 0.59215,2.41772 1.08549,4.85956 1.7413,7.2608 0.45814,1.59353 1.02708,3.14778 1.48523,4.73981 0.15081,0.89067 0.2383,1.7877 -0.10748,2.64729 -0.35084,0.89485 -0.74535,1.77311 -1.39337,2.49859 -0.60891,0.81089 -1.26277,1.58875 -1.80838,2.44483 -0.40415,0.52603 -0.8183,1.0524 -1.02184,1.69312 -0.28692,0.6524 -0.55994,1.31154 -1.16575,1.74027 -1.43994,0.70398 -3.08551,0.83178 -4.64631,1.08888 -2.52934,0.4002 -5.05617,0.79541 -7.60874,1.03138 -3.49887,0.33259 -6.99911,0.65922 -10.50475,0.91057 -3.73444,0.1655 -7.46839,0.31894 -11.20372,0.46078 -4.54653,0.26034 -9.08667,0.65319 -13.64609,0.5684 -7.10282,0.11122 -14.21123,0.2987 -21.31278,0.0639 -4.9768,-0.21778 -9.934918,-0.61649 -14.887865,-1.15088 -4.730824,-0.42019 -9.478489,-0.60209 -14.214761,-0.95315 -4.237612,-0.26798 -8.478512,-0.51367 -12.698822,-0.99442 -3.191418,-0.37192 -6.379758,-0.77613 -9.584357,-1.02319 -0.426802,-0.033 -0.853284,-0.0704 -1.280406,-0.0989 -2.156563,-0.14399 -3.25311,-0.0382 3.501774,-0.087 0.165883,-0.001 -0.57403,10e-4 -1.35658,0.003 -0.189286,5.3e-4 -0.378568,10e-4 -0.567851,0.002 -2.960675,0.0118 -5.921669,0.034 -8.882142,-0.007 -1.52585,-0.0374 -3.075787,-0.0619 -4.561097,-0.44735 -1.171456,-0.46919 -1.567214,-0.93944 -1.213826,-2.19722 0.397357,-1.21989 0.689909,-2.46056 0.914133,-3.72447 0.364506,-1.76247 0.607052,-3.5515 1.093097,-5.28728 0.461735,-1.64941 0.960705,-3.28245 1.466588,-4.91854 0.568637,-1.93584 0.857684,-3.92954 1.147019,-5.92353 0.464362,-3.67837 0.930897,-7.35642 1.378603,-11.0369 0.493641,-4.5297 0.851549,-9.07222 1.38669,-13.59768 0.624403,-5.01749 1.246335,-10.03522 1.533477,-15.08645 0.193183,-4.11892 0.312999,-8.23908 0.411914,-12.36116 0.0926,-3.12649 0.116787,-6.2515 0.104963,-9.37953 0.03647,-3.09981 0.09778,-6.20019 0.307816,-9.29405 0.271513,-3.92287 0.627737,-7.84209 0.49194,-11.78002 0.0021,-4.45182 -5.3e-4,-8.90361 -0.0099,-13.35542 -0.0048,-3.95337 -0.01519,-7.90673 -0.01225,-11.8601 -0.0086,-3.74775 5.3e-4,-7.49566 -0.0456,-11.24323 -0.05009,-2.72932 -0.07802,-5.46871 -0.391687,-8.18328 0,0 5.612797,-0.0621 5.612797,-0.0621 z"
       inkscape:connector-curvature="0"
       style="stroke-width:0.26458332"
       inkscape:export-xdpi="63.047184"
       inkscape:export-ydpi="63.047184" />
    <path
       id="path50"
       d="m 41.359579,260.90303 c -1.566479,0.75028 -3.109775,1.54754 -4.676352,2.29751 -1.421027,0.62187 -2.724375,1.45012 -4.022055,2.28903 -0.891913,0.60035 -1.715469,1.29505 -2.561439,1.95706 -0.772446,0.62019 -1.626624,1.12664 -2.466867,1.6474 -0.220408,-0.12281 0.1079,-0.41012 0.241009,-0.41619 0.109963,-0.005 0.211436,0.0636 0.320114,0.0811 0.179009,0.0288 0.360595,0.0384 0.54089,0.0575 0.230511,0.0418 0.461018,0.0836 0.691526,0.12539 2.271374,0.33246 4.558705,0.53636 6.848628,0.6871 2.292168,0.10785 4.575723,0.33787 6.866856,0.46729 1.58624,0.045 3.165276,0.0733 4.74531,0.21965 1.758386,0.215 3.471542,0.66698 5.211437,0.98302 2.417006,0.4508 4.871439,0.69198 7.320595,0.89268 3.41018,0.21369 6.829377,0.29343 10.232247,0.60659 3.998438,0.417 7.991083,0.88262 12.000685,1.18076 4.291586,0.2243 8.583411,0.45321 12.878336,0.60604 3.675965,0.12038 7.354091,0.1346 11.031641,0.14682 1.56794,0.004 8.13626,10e-4 0.15538,0.002 -0.64242,3e-5 1.28484,7.9e-4 1.92727,7.9e-4 1.75688,2.7e-4 2.17937,-2.4e-4 3.92892,-0.001 3.93754,0.0462 7.87172,-0.0255 11.80643,-0.1657 3.43097,-0.0626 6.8495,-0.35174 10.2676,-0.63055 2.65341,-0.17838 5.30498,-0.38594 7.95946,-0.549 2.21237,-0.12541 4.42825,-0.15869 6.64362,-0.17706 2.09492,0.0401 4.18485,-0.10297 6.2751,-0.21756 1.74865,-0.0816 3.49388,-0.25116 5.23345,-0.44517 1.54242,-0.1708 3.06919,-0.45055 4.60987,-0.63264 1.44622,-0.16224 2.88006,-0.40253 4.31229,-0.65617 1.18756,-0.17749 2.36827,-0.39964 3.54428,-0.64149 1.51813,-0.2903 3.04711,-0.51513 4.57396,-0.75314 1.31775,-0.25429 2.64854,-0.46153 3.93455,-0.85278 0.75114,-0.20092 1.28978,-0.6597 1.79446,-1.22479 0.48117,-0.56964 0.97818,-1.08991 1.59299,-1.51439 0.49333,-0.32542 1.01217,-0.63065 1.42873,-1.05436 0.40762,-0.74058 0.3681,-1.65883 0.39267,-2.48315 0.0519,-1.00243 0.0199,-1.99324 -0.20866,-2.97199 -0.31645,-0.99089 -0.79338,-1.92754 -1.28849,-2.84033 -0.30351,-0.72052 -0.82964,-1.29366 -1.43979,-1.76705 -0.73636,-0.47499 -1.60691,-0.67543 -2.42759,-0.95814 -1.21077,-0.36787 -2.4321,-0.69969 -3.64783,-1.05241 -1.10732,-0.24972 -2.17797,-0.63178 -3.29242,-0.84964 -0.75874,-0.16749 -1.45998,-0.48743 -2.19851,-0.71147 -0.10582,-0.0226 -0.21164,-0.0452 -0.31746,-0.0678 0,0 5.57585,-0.734 5.57585,-0.734 v 0 c 0.10734,0.0346 0.21469,0.0691 0.32203,0.10369 0.71025,0.26514 1.43431,0.4826 2.17372,0.65351 1.09346,0.27143 2.169,0.6121 3.26197,0.88632 1.23066,0.34046 2.45742,0.69401 3.67572,1.07672 0.8714,0.28838 1.77111,0.55931 2.47669,1.17474 0.59248,0.57691 1.11635,1.19677 1.43304,1.97328 0.49677,0.96461 0.98954,1.944 1.29125,2.98979 0.21923,1.02852 0.26367,2.06189 0.21007,3.11196 -0.0302,0.95217 -0.0269,1.93899 -0.37408,2.83959 -0.36445,0.55613 -0.92229,0.87827 -1.45625,1.25594 -0.64344,0.33572 -1.1329,0.78708 -1.57974,1.35604 -0.55249,0.58538 -1.02131,1.2607 -1.84011,1.49601 -1.27923,0.51068 -2.66287,0.63807 -3.99728,0.9494 -1.51517,0.22933 -3.02832,0.4673 -4.53746,0.73207 -1.1801,0.23334 -2.35577,0.5014 -3.54909,0.65769 -1.44613,0.23783 -2.88312,0.51611 -4.34013,0.68667 -1.54461,0.15151 -3.06604,0.44753 -4.6076,0.62367 -1.74677,0.24159 -3.51566,0.36539 -5.27415,0.47903 -2.08988,0.10744 -4.17786,0.28819 -6.27212,0.24403 -2.2246,0.0109 -4.44983,0.0329 -6.67213,0.14369 -2.66783,0.14839 -5.32999,0.37432 -7.99719,0.53159 -3.43308,0.2675 -6.86417,0.58847 -10.30958,0.64859 -3.94202,0.13669 -7.88306,0.2356 -11.82808,0.18133 -5.56209,10e-4 -11.1242,0.0112 -16.68629,-0.002 -3.674173,-0.0108 -7.348979,-0.0318 -11.02111,-0.16697 -4.285712,-0.16469 -8.569483,-0.38779 -12.851309,-0.63123 -4.024739,-0.31138 -8.03379,-0.77926 -12.050345,-1.17882 -3.425984,-0.27427 -6.862879,-0.3676 -10.292016,-0.59711 -2.475328,-0.21825 -4.955019,-0.46556 -7.396626,-0.9388 -1.735505,-0.3432 -3.46008,-0.75767 -5.225645,-0.92407 -1.57339,-0.12573 -3.151031,-0.1184 -4.726641,-0.20843 -2.269466,-0.14954 -4.533611,-0.37262 -6.805763,-0.48102 -2.320618,-0.1684 -4.641769,-0.37313 -6.942354,-0.72746 -0.71451,-0.10991 -2.308071,-0.0207 -1.878478,-1.18581 0.816237,-0.55774 1.741119,-0.95922 2.501804,-1.60011 0.867593,-0.65763 1.688565,-1.37629 2.574735,-2.00951 1.339445,-0.81639 2.618737,-1.73535 4.074226,-2.34939 1.550731,-0.72788 3.074836,-1.51115 4.598159,-2.29453 0,0 5.579462,0.62027 5.579462,0.62027 z"
       inkscape:connector-curvature="0"
       style="stroke-width:0.26458332"
       inkscape:export-xdpi="63.047184"
       inkscape:export-ydpi="63.047184" />
    <path
       id="path52"
       d="m 28.08252,140.01544 c -0.174765,1.79586 -0.40146,3.58592 -0.554897,5.38403 -0.149254,1.96036 -0.175281,3.92694 -0.188892,5.89201 -0.05096,1.51247 0.006,3.01199 0.193929,4.51205 0.146289,0.94669 0.179406,1.90207 0.200848,2.85782 -0.06885,1.22206 0.324644,2.35008 0.827011,3.4424 0.52796,1.01196 1.223452,1.9205 1.848845,2.87087 0.542793,0.70154 1.032581,1.43751 1.569844,2.14507 0.778568,1.21228 1.830287,2.1841 2.907287,3.12335 1.348078,1.1309 2.721342,2.22118 4.155501,3.24024 0.885113,0.75554 1.939824,1.23554 2.930228,1.81654 0.670851,0.41726 1.457283,0.37615 2.203257,0.524 1.455864,0.21439 2.914819,0.40425 4.380629,0.53833 2.848769,-0.0133 -1.943354,0.0112 -4.042351,-0.0206 -0.186061,-0.003 0.372054,-0.0209 0.556233,-0.0474 0.438798,-0.0632 0.76725,-0.19466 1.128088,-0.43962 0.466321,-0.38843 0.758521,-0.92281 1.005203,-1.46785 0.20021,-0.54018 0.230632,-1.11875 0.252523,-1.6885 0.05713,-0.78456 -0.279418,-1.50027 -0.531704,-2.22159 -0.340349,-1.00776 -0.64171,-2.02262 -0.825206,-3.07105 -0.130794,-0.97525 -0.143433,-1.95993 -0.144537,-2.94215 0.08643,-1.64856 -0.109317,-3.28586 -0.30018,-4.9195 -0.362879,-1.93578 -0.57754,-3.88697 -0.696928,-5.85121 -0.09021,-1.7234 -0.111234,-3.44947 -0.122412,-5.17489 -0.006,-1.48412 0.004,-2.96822 0.0086,-4.45232 0.0081,-1.67014 0.0087,-3.34037 -5.29e-4,-5.01051 -0.05001,-1.48418 0.255833,-2.95082 0.546298,-4.39891 0.244735,-1.09601 0.427337,-2.20277 0.517671,-3.322 0.108974,-0.74788 -0.01212,-1.42808 -0.286853,-2.11847 -0.396111,-0.64954 -1.128811,-0.54861 -1.796281,-0.49622 8.849458,-0.2925 5.281676,-0.1294 3.248417,0.38183 -0.854414,0.21484 -1.694971,0.46982 -2.535838,0.73163 -1.437722,0.47345 -2.855246,1.00502 -4.269404,1.54406 -1.155412,0.50022 -2.328982,0.95607 -3.492603,1.4369 -1.518899,0.61468 -3.050059,1.20297 -4.590891,1.76077 -1.427785,0.51212 -2.779234,1.1988 -4.031856,2.0509 -0.865825,0.65068 -1.625679,1.42203 -2.306702,2.26107 -0.507345,0.65482 -1.029977,1.29533 -1.522677,1.96145 -0.466717,0.52517 -0.60818,1.14529 -0.683651,1.82286 -0.108952,0.88836 0.228051,1.72624 0.659447,2.48524 0.316105,0.65487 0.873107,1.13438 1.459036,1.54313 0.433216,0.18043 0.809484,0.45958 1.223141,0.6769 0,0 -5.58506,0.59459 -5.58506,0.59459 v 0 c -0.416778,-0.24732 -0.848844,-0.47355 -1.238715,-0.76236 -0.590518,-0.51238 -1.144805,-1.04763 -1.458221,-1.78266 -0.425142,-0.88194 -0.792811,-1.81394 -0.672099,-2.81223 0.07261,-0.76806 0.188384,-1.51953 0.689327,-2.1399 0.532859,-0.63386 0.991975,-1.33412 1.539381,-1.95776 0.678474,-0.90368 1.47778,-1.70323 2.34689,-2.42448 1.260152,-0.90884 2.618237,-1.64226 4.070999,-2.20044 1.542356,-0.52048 3.050428,-1.14541 4.56978,-1.72831 1.157113,-0.49759 2.340467,-0.92711 3.480742,-1.46216 1.437306,-0.52295 2.862146,-1.07745 4.31215,-1.56583 0.842293,-0.27409 1.682734,-0.5294 2.537086,-0.76294 0.113218,-0.031 1.426943,-0.4062 1.600796,-0.41344 2.05681,-0.0856 4.116533,-0.0731 6.174798,-0.10965 0.938755,0.0829 1.498068,0.25623 1.891607,1.16379 0.277061,0.7694 0.383272,1.5524 0.275076,2.36925 -0.101618,1.1417 -0.301103,2.26879 -0.560107,3.3854 -0.286919,1.41111 -0.583739,2.8416 -0.547407,4.28805 -0.0097,1.67031 -0.0096,3.3407 -0.0044,5.01102 0.0016,1.48341 0.0048,2.96682 -7.4e-5,4.45023 -0.0019,1.71452 -0.0021,3.42989 0.08587,5.14271 0.119555,1.95312 0.352227,3.89182 0.699337,5.81832 0.2068,1.65452 0.405053,3.31062 0.363484,4.98203 0.01278,0.95085 0.01572,1.90611 0.151503,2.84929 0.177327,1.01723 0.473625,2.00083 0.817089,2.97403 0.292545,0.78534 0.615508,1.57868 0.56279,2.43485 -0.01942,0.63675 -0.06555,1.27612 -0.255405,1.88857 -0.235056,0.6237 -0.568841,1.24386 -1.033034,1.7239 -0.468458,0.50284 -1.055653,0.85767 -1.772777,0.87054 -4.999932,0.0897 -4.310777,0.11099 -6.959666,-0.0231 -1.48296,-0.1547 -2.963839,-0.3381 -4.436801,-0.5699 -0.792509,-0.11197 -1.554816,-0.25851 -2.233305,-0.71476 -1.014217,-0.54454 -1.968773,-1.18213 -2.881733,-1.8844 -1.430438,-1.04498 -2.805039,-2.15959 -4.164296,-3.29536 -1.091552,-0.98039 -2.124416,-2.01389 -2.955818,-3.23088 -0.539472,-0.71581 -1.051064,-1.44993 -1.571892,-2.17919 -0.647346,-0.96398 -1.319123,-1.91849 -1.829551,-2.96519 -0.506537,-1.16823 -0.910322,-2.36999 -0.854528,-3.66305 -0.02387,-0.93821 -0.07697,-1.87514 -0.193065,-2.80703 -0.16082,-1.52468 -0.187327,-3.04813 -0.137689,-4.58103 0.02055,-1.97865 0.03925,-3.95944 0.191749,-5.93333 0.147126,-1.79965 0.396905,-3.58932 0.480936,-5.3938 0,0 5.606655,0.0559 5.606655,0.0559 z"
       inkscape:connector-curvature="0"
       style="stroke-width:0.26458332"
       inkscape:export-xdpi="63.047184"
       inkscape:export-ydpi="63.047184" />
    <path
       id="path54"
       d="m 165.65235,134.58923 c 0.32347,1.63338 0.44593,3.2953 0.549,4.95417 0.0556,1.82624 0.16429,3.6506 0.35618,5.46784 0.26037,1.92676 0.30704,3.87205 0.48288,5.80578 0.17763,1.56943 0.29126,3.1445 0.35432,4.72241 0.0488,1.25351 0.0481,2.50812 0.0456,3.76234 -10e-4,1.36046 -0.002,2.72095 -0.01,4.08139 -0.0562,1.59014 0.1168,3.17206 0.22081,4.75631 0.22817,1.67922 0.3179,3.37228 0.49973,5.05567 0.15828,1.1976 0.31328,2.39514 0.39375,3.6008 0.022,0.67432 0.0468,1.37735 0.32528,2.00278 0.32752,0.4051 0.78903,0.35979 1.2652,0.37401 2.25069,0.0279 -3.20329,0.0128 -4.80434,-0.0237 -0.19393,-0.004 0.38556,-0.0442 0.57702,-0.0754 0.71049,-0.11565 1.39268,-0.29642 2.07999,-0.50663 1.25892,-0.47259 2.54764,-0.89927 3.69473,-1.61203 0.8983,-0.58907 1.66413,-1.35379 2.46515,-2.06502 1.08479,-0.93569 2.09492,-1.9357 3.05094,-3.00127 1.10818,-1.12552 1.93318,-2.45266 2.653,-3.8469 0.8022,-1.77231 1.26913,-3.67378 1.62765,-5.57891 0.4256,-2.04752 0.71405,-4.11704 1.01787,-6.18459 0.36718,-2.26144 0.46257,-4.55113 0.52589,-6.83725 0.12253,-2.35523 -0.17396,-4.69079 -0.71742,-6.97708 -0.47495,-1.96469 -1.1915,-3.8241 -2.08549,-5.6307 -0.71865,-1.45865 -1.70925,-2.76474 -2.66825,-4.07192 -0.82581,-1.04511 -1.8522,-1.88449 -2.87022,-2.73014 -1.02216,-0.78874 -2.15858,-1.11781 -3.41743,-1.27796 -1.91649,-0.0651 -5.54173,-0.23987 3.15319,-0.0149 0.29932,0.008 -0.59773,0.0402 -0.89516,0.0747 -0.85658,0.0992 -1.07021,0.1634 -1.91635,0.33901 -1.8272,0.46945 -3.62452,1.0527 -5.42319,1.62107 -0.94053,0.30516 -1.92362,0.58188 -2.69645,1.22254 -0.40753,0.4365 -0.62614,0.97492 -0.77617,1.5425 0,0 -5.61044,-0.13083 -5.61044,-0.13083 v 0 c 0.14446,-0.67294 0.38726,-1.29012 0.78635,-1.85731 0.72646,-0.82061 1.7534,-1.17348 2.78507,-1.47505 1.80594,-0.58947 3.63198,-1.12268 5.45147,-1.668 3.48024,-0.83608 7.10459,-0.83899 10.65809,-0.43726 1.28763,0.25035 2.4497,0.71489 3.46268,1.57414 1.03628,0.87339 2.05347,1.77329 2.86522,2.86862 0.95799,1.33871 1.94592,2.67354 2.64925,4.16922 0.88926,1.84768 1.58126,3.75516 2.05093,5.75551 0.54047,2.3362 0.84849,4.71484 0.71583,7.11911 -0.0641,2.30688 -0.13503,4.62133 -0.50348,6.90396 -0.31504,2.07225 -0.57468,4.15426 -1.02033,6.20481 -0.36363,1.95277 -0.80893,3.90595 -1.60603,5.73372 -0.69938,1.4468 -1.51753,2.83445 -2.64677,3.9939 -0.95471,1.08372 -1.93779,2.12426 -3.03801,3.06349 -0.80006,0.73506 -1.58371,1.50832 -2.45917,2.14713 -1.13634,0.81161 -2.45045,1.25262 -3.74563,1.75155 -2.84297,1.08164 -5.8959,1.11693 -8.9388,0.73532 -0.61858,-0.12034 -1.06602,-0.38817 -1.32209,-0.99078 -0.22492,-0.70374 -0.3139,-1.43066 -0.30612,-2.1693 -0.0661,-1.19643 -0.19681,-2.387 -0.34099,-3.57634 -0.17595,-1.69112 -0.27295,-3.39039 -0.5002,-5.07673 -0.11161,-1.59637 -0.28443,-3.19157 -0.23291,-4.79419 -0.006,-1.36022 -0.005,-2.72048 -0.004,-4.08071 -0.004,-1.24731 -0.005,-2.49481 -0.0374,-3.74179 -0.0552,-1.56866 -0.15722,-3.13439 -0.32708,-4.69522 -0.1606,-1.93125 -0.204,-3.87282 -0.47185,-5.79523 -0.19583,-1.82537 -0.3207,-3.65857 -0.36973,-5.49383 -0.0911,-1.63207 -0.21423,-3.27321 -0.61197,-4.86415 0,0 5.61078,-0.12271 5.61078,-0.12271 z"
       inkscape:connector-curvature="0"
       style="stroke-width:0.26458332"
       inkscape:export-xdpi="63.047184"
       inkscape:export-ydpi="63.047184" />
    <path
       id="path56"
       d="m 95.045032,137.1774 c -1.294538,-0.015 -2.52103,0.32171 -3.630354,0.97477 -0.833313,0.46573 -1.431641,1.14047 -1.946711,1.92683 -0.7835,1.19866 -1.139963,2.60377 -1.532255,3.96405 -0.594408,1.95772 -1.128546,3.93247 -1.513126,5.9425 -0.243636,1.45132 -0.411779,2.92106 -0.357621,4.3936 0.108551,1.75521 0.802603,3.40916 1.459132,5.0195 0.985483,2.42945 2.218182,4.75845 3.60897,6.97865 1.486625,2.28316 3.445306,4.19152 5.486624,5.97325 1.874028,1.55134 4.009839,2.71569 6.123989,3.89698 2.01028,1.17313 4.18292,1.98118 6.46476,2.41132 1.10448,0.14194 1.22376,0.17309 2.3262,0.25274 0.37693,0.0272 1.50984,0.058 1.13197,0.0633 -8.68508,0.12114 -3.66733,-0.0166 -1.75285,-0.22767 2.87767,-0.37313 5.64001,-1.28139 8.34623,-2.29468 3.08894,-1.23349 6.15229,-2.52109 9.16105,-3.93907 2.39451,-1.15122 4.59758,-2.61846 6.43355,-4.54012 1.40656,-1.60047 2.23574,-3.52975 2.91514,-5.52055 0.62767,-1.9425 0.78292,-3.97953 0.87186,-6.00521 0.19361,-2.15549 -0.27357,-4.20937 -0.98549,-6.22537 -1.07795,-2.68698 -3.14508,-4.71179 -5.12764,-6.7467 -1.74805,-1.69622 -3.68459,-3.20422 -5.76834,-4.46831 -1.26121,-0.76511 -2.07982,-1.13635 -3.40094,-1.79204 -3.6703,-1.60634 -7.52629,-2.74606 -11.40724,-3.71528 -3.45408,-0.91466 -7.00245,-1.31709 -10.55961,-1.53093 -0.47407,-0.0191 -1.896627,-0.0508 -1.422217,-0.0574 8.694147,-0.12081 3.569937,-0.14679 2.012627,0.26356 -0.80193,0.2113 -0.94297,0.36293 -1.63146,0.78123 -1.598191,1.36003 -2.351078,3.3872 -3.053832,5.30686 -0.670497,1.77297 -1.049557,3.61906 -1.285322,5.49287 0,0 -5.511678,-0.0654 -5.511678,-0.0654 v 0 c 0.216998,-1.92064 0.626157,-3.79993 1.299424,-5.61761 0.717272,-2.02253 1.476375,-4.12106 3.035012,-5.66032 0.645887,-0.46873 0.900562,-0.7241 1.674247,-0.99275 0.596957,-0.20729 1.563821,-0.33737 2.183058,-0.34529 5.627511,-0.0719 4.783971,-0.0912 8.094391,0.0762 3.54406,0.25228 7.07213,0.71087 10.51038,1.63812 3.89192,1.00228 7.76889,2.15695 11.43108,3.83087 3.36085,1.71536 6.56299,3.72474 9.22349,6.43634 2.03888,2.09722 4.13715,4.197 5.21014,6.98077 0.72251,2.08475 1.2041,4.21145 1.01086,6.43579 -0.0974,2.07714 -0.25049,4.16498 -0.88107,6.16114 -0.69822,2.06129 -1.51747,4.06957 -2.94036,5.75435 -0.67274,0.73044 -0.92616,1.05339 -1.7042,1.69707 -1.46365,1.21089 -3.13505,2.15891 -4.80715,3.04349 -3.01959,1.42149 -6.0855,2.72608 -9.17944,3.97796 -2.69425,1.05255 -5.4436,2.00554 -8.31628,2.43298 -4.16973,0.56052 -8.43777,0.53642 -12.59311,-0.13054 -2.28559,-0.51726 -4.460994,-1.38413 -6.481752,-2.57969 -2.12831,-1.20211 -4.266288,-2.40827 -6.124706,-4.01528 -2.038982,-1.84146 -3.997968,-3.8 -5.479769,-6.13189 -1.397921,-2.25646 -2.631274,-4.62009 -3.656034,-7.07005 -0.681506,-1.67261 -1.416513,-3.38503 -1.518147,-5.21077 -0.06528,-1.51781 0.13276,-3.02858 0.403648,-4.52084 0.390303,-2.02315 0.919353,-4.0135 1.498052,-5.99052 0.39065,-1.40601 0.729036,-2.86519 1.482022,-4.13032 0.531635,-0.84692 1.079849,-1.66193 1.977593,-2.16514 1.091507,-0.76093 2.310165,-1.21343 3.648832,-1.29537 0,0 5.544373,0.87815 5.544373,0.87815 z"
       inkscape:connector-curvature="0"
       style="stroke-width:0.26458332"
       inkscape:export-xdpi="63.047184"
       inkscape:export-ydpi="63.047184" />
    <path
       id="path58"
       d="m 104.6085,146.40159 c -0.62469,-0.18505 -1.24551,-0.41819 -1.90138,-0.46857 -0.19282,-0.0148 -0.77344,0.003 -0.58012,0.008 5.14779,0.14351 6.46957,-0.70186 4.5263,0.38393 -1.26921,1.09565 -1.83396,2.78021 -2.41285,4.30791 -0.52496,1.41369 -1.00369,2.85066 -1.34298,4.32124 -0.29941,1.05638 0.10314,1.95631 0.57129,2.88493 0.88903,1.30241 2.01547,2.4289 3.24136,3.41313 1.24991,0.89544 2.73425,1.0333 4.21962,1.12207 3.04604,0.0698 -2.52041,0.0309 -3.77983,-0.005 -0.28659,-0.008 0.57164,-0.0461 0.85652,-0.0784 0.85742,-0.0971 1.6959,-0.26557 2.53988,-0.44031 1.07857,-0.27185 2.16969,-0.52168 3.19356,-0.96452 0.62265,-0.27368 1.01371,-0.67244 1.24097,-1.30799 0.29922,-1.0828 0.20005,-2.15183 -0.0811,-3.22102 -0.58994,-1.66896 -1.87085,-2.86478 -3.14335,-4.02677 -1.68322,-1.40658 -3.65112,-2.32208 -5.6375,-3.2008 -0.26961,-0.10851 -0.53922,-0.21703 -0.80883,-0.32555 0,0 5.51141,-0.65131 5.51141,-0.65131 v 0 c 0.26501,0.11405 0.53002,0.22811 0.79503,0.34217 2.00868,0.91229 3.96624,1.93123 5.65165,3.38002 1.3314,1.24642 2.62795,2.56454 3.20811,4.3418 0.29511,1.17118 0.38985,2.3445 0.11709,3.53497 -0.21446,0.74406 -0.53576,1.3936 -1.26916,1.74428 -0.99428,0.60847 -2.17562,0.76595 -3.27421,1.11049 -0.85128,0.17974 -1.69071,0.36151 -2.55191,0.4882 -0.2877,0.0423 -0.57266,0.11888 -0.86339,0.12498 -2.11644,0.0444 -4.23375,0.0316 -6.35065,0.0264 -0.28457,-8e-4 -0.56837,-0.0295 -0.85256,-0.0442 -1.54363,-0.14861 -3.02801,-0.43944 -4.25534,-1.46384 -1.233167,-1.07212 -2.432421,-2.23842 -3.288048,-3.6418 -0.506587,-1.04294 -0.901834,-2.10225 -0.578844,-3.27108 0.360477,-1.49306 0.862224,-2.95243 1.396801,-4.39046 0.603477,-1.62219 1.200184,-3.35338 2.385331,-4.6476 0.16415,-0.13506 0.28105,-0.38294 0.49246,-0.40518 3.43052,-0.36093 5.66039,-0.68337 8.59141,0.32114 0,0 -5.56674,0.69895 -5.56674,0.69895 z"
       inkscape:connector-curvature="0"
       style="stroke-width:0.26458332"
       inkscape:export-xdpi="63.047184"
       inkscape:export-ydpi="63.047184" />
    <path
       id="path60"
       d="m 34.308719,81.621667 c 0.522226,1.932049 1.121405,3.84115 1.696349,5.757625 0.56691,1.83852 1.055145,3.699684 1.606791,5.543018 0.662641,2.315347 1.687489,4.493485 2.911708,6.559526 0.820624,1.441244 1.981248,2.600344 3.18085,3.721524 1.211842,1.04945 2.621865,1.81832 4.069831,2.48625 2.226855,0.99975 4.551498,1.62745 6.956949,1.99605 2.624526,0.33633 5.259014,0.54426 7.902191,0.64875 2.768193,0.0856 5.538073,0.0853 8.307298,0.0865 0.466741,2.4e-4 1.866958,7.9e-4 1.400217,7.9e-4 -8.48786,-7.9e-4 -1.716294,-0.0126 2.78611,0.052 1.335559,0.0192 2.677348,0.1276 4.012234,0.18166 2.446473,0.0314 4.882939,0.25313 7.325493,0.37278 2.973308,0.15518 5.943099,0.33849 8.920003,0.42592 0.603798,0.0126 1.207553,0.0272 1.811388,0.0378 1.85833,0.0326 3.716899,0.0453 5.575459,0.0546 0.69618,0.004 2.7845,0.0266 2.08854,0.009 -1.06384,-0.0269 -2.12822,-0.0246 -3.19233,-0.037 4.00878,-0.0821 8.00909,-0.37456 11.99887,-0.75941 3.41971,-0.40855 6.84882,-0.7246 10.27563,-1.06506 2.48946,-0.24452 4.97577,-0.51715 7.46613,-0.75403 2.69359,-0.21331 5.39112,-0.37718 8.08779,-0.54926 2.91222,-0.15263 5.82132,-0.36146 8.72812,-0.59454 3.05812,-0.2001 6.10792,-0.50125 9.15331,-0.84064 2.54957,-0.2481 5.07998,-0.63711 7.60626,-1.0533 1.2443,-0.23016 2.53035,-0.38589 3.67778,-0.94915 0.67889,-0.41455 1.27779,-0.93033 1.74231,-1.57563 0.55031,-1.014 0.77819,-2.138654 0.92568,-3.270388 0.13194,-1.475142 -0.295,-2.875222 -0.66645,-4.281332 -0.43517,-1.48037 -0.88644,-2.962028 -1.57785,-4.344998 -0.47115,-1.253797 -1.25521,-2.313508 -2.1097,-3.327479 -1.01021,-1.141643 -2.16515,-2.092582 -3.43562,-2.926837 -1.36043,-0.878049 -2.85576,-1.521417 -4.37868,-2.058762 -1.8502,-0.591579 -3.76123,-0.776806 -5.68863,-0.892556 -2.92052,-0.126312 -5.8448,-0.116139 -8.76741,-0.118684 1.28113,1.74e-4 2.56225,0.0011 3.84337,5.29e-4 0.59222,-2.46e-4 -1.18444,-0.0011 -1.77666,-0.0013 -2.89938,-0.0013 -5.79772,-0.0095 -8.69675,0.0392 -6.18981,0.124526 -12.3726,0.455202 -18.55718,0.723027 -5.38684,0.341884 -10.76647,0.758984 -16.16051,0.971997 -4.122574,0.105317 -8.244446,0.193733 -12.366236,0.331399 -4.133966,0.111302 -8.26312,0.339426 -12.396742,0.464761 -4.614588,0.101288 -9.230519,0.110829 -13.846009,0.118557 -4.421449,0.0033 -8.842901,-0.0016 -13.264348,-0.0048 -1.074938,-7.94e-4 -2.151941,-0.06936 -3.224818,-0.0028 -0.644644,0.03999 2.571888,-0.02983 1.93589,0.08276 -1.016426,0.17993 -2.062848,0.08154 -3.094273,0.122303 -3.418729,0.156705 -6.837188,0.319133 -10.256043,0.47303 0,0 -5.42825,-0.837311 -5.42825,-0.837311 v 0 c 3.502284,-0.125833 7.003557,-0.276733 10.504524,-0.43489 4.915257,-0.199123 9.830903,-0.193254 14.749132,-0.224446 0.728464,-0.0046 -2.913793,0.008 -2.185432,-0.0051 1.661784,-0.02996 3.324373,0.02753 4.986165,-0.0037 4.596691,-0.0077 9.193895,-0.01161 13.789702,-0.112562 4.136684,-0.114247 8.268362,-0.33878 12.40453,-0.46133 4.136389,-0.13517 8.271996,-0.249801 12.409979,-0.322167 5.432979,-0.19385 10.853239,-0.582978 16.276679,-0.9515 6.14826,-0.255117 12.29329,-0.598966 18.44535,-0.752605 5.76401,-0.128275 11.53097,-0.0209 17.29581,-0.06556 2.94019,0.0055 5.88292,-0.008 8.81998,0.146618 1.9585,0.142897 3.90472,0.377521 5.76588,1.043165 1.52859,0.594585 3.0358,1.257813 4.3933,2.190737 1.27872,0.887637 2.44612,1.898483 3.46118,3.084303 0.86132,1.061141 1.63135,2.175571 2.12229,3.462288 0.66169,1.430022 1.11957,2.939441 1.55967,4.450143 0.39676,1.47538 0.82468,2.946672 0.69471,4.495358 -0.14478,1.208479 -0.38912,2.399932 -0.9108,3.509112 -0.41447,0.77695 -1.05644,1.3325 -1.75817,1.8531 -1.12116,0.74517 -2.47685,0.89641 -3.77499,1.14283 -2.55798,0.39874 -5.11212,0.82577 -7.69183,1.06604 -3.04227,0.35583 -6.09137,0.65941 -9.14811,0.85999 -2.90149,0.23281 -5.80415,0.4598 -8.71138,0.60692 -2.69613,0.16399 -5.39068,0.34981 -8.08543,0.532 -2.49359,0.2331 -4.98173,0.51714 -7.47491,0.75087 -3.45468,0.33168 -6.91268,0.63029 -10.35798,1.05298 -3.99602,0.39315 -7.99995,0.71392 -12.01645,0.79897 -5.65259,0.0349 -11.306724,0.0934 -16.958308,-0.0624 -2.999679,-0.094 -5.992958,-0.28033 -8.990095,-0.42648 -2.437312,-0.12895 -4.870936,-0.32491 -7.312278,-0.36952 -3.276883,-0.13861 0.540784,0.0254 -2.648136,-0.11944 -0.451241,-0.0205 -1.805302,-0.0422 -1.353875,-0.0582 1.545386,-0.0547 13.322493,-0.0367 -2.784774,-0.035 -0.470617,5e-5 -0.941231,2.7e-4 -1.411846,5.3e-4 -2.768481,-0.006 -5.537819,-0.008 -8.304826,-0.10987 -2.649281,-0.12158 -5.292471,-0.34186 -7.919511,-0.71301 -2.425303,-0.42707 -4.775811,-1.11124 -7.018483,-2.14397 -1.475544,-0.72143 -2.927919,-1.52466 -4.133509,-2.65752 -1.199345,-1.16664 -2.31894,-2.40264 -3.128092,-3.882271 -1.208696,-2.12122 -2.213808,-4.348575 -2.927304,-6.687706 -0.560748,-1.841995 -1.066777,-3.699047 -1.613104,-5.545079 -0.567441,-1.924648 -1.131732,-3.851569 -1.769436,-5.754188 0,0 5.602116,-0.163322 5.602116,-0.163322 z"
       inkscape:connector-curvature="0"
       style="stroke-width:0.26458332"
       inkscape:export-xdpi="63.047184"
       inkscape:export-ydpi="63.047184" />
    <path
       id="path62"
       d="m 47.752997,81.283623 c -0.267957,-1.33716 -0.282234,-2.708995 -0.287888,-4.067877 0.05271,-1.555453 -0.104222,-3.104507 -0.205367,-4.654735 5.29e-4,-1.361633 -0.258294,-2.756185 -0.0864,-4.116459 0.04308,-0.340928 0.134356,-0.674023 0.201534,-1.011033 0.658222,-2.271872 1.912709,-4.293664 3.176473,-6.269633 1.084043,-1.570456 2.222087,-3.098186 3.095424,-4.798597 0.720241,-1.52132 1.410944,-3.056239 2.131991,-4.577241 0.655659,-1.416598 1.379511,-2.7908 2.230041,-4.100181 1.005634,-1.419176 2.224474,-2.65225 3.475157,-3.851872 1.29768,-1.203052 2.536581,-2.468318 3.837127,-3.667928 1.141413,-1.130076 2.514465,-1.913992 3.978037,-2.542345 2.363716,-0.83091 4.831136,-1.311307 7.275867,-1.835879 2.630411,-0.515758 5.26493,-1.010568 7.907636,-1.459213 2.514764,-0.438157 5.060172,-0.608484 7.607255,-0.703549 2.691106,-0.05546 5.381115,-0.05266 8.071136,-0.154911 2.63565,-0.09099 5.26697,-0.299426 7.88617,-0.604236 1.89517,-0.243844 3.80199,-0.350749 5.71074,-0.401844 2.73967,-0.02633 5.47734,-0.0173 8.21547,-0.12432 2.59506,-0.109505 5.19084,-0.198113 7.7876,-0.25371 0.27066,-0.0048 0.54128,-0.01563 0.81198,-0.01437 4.97305,0.02318 5.46693,-0.526475 8.86074,0.971762 1.70126,0.67268 3.2361,1.636502 4.64871,2.787002 1.81568,1.376492 3.19494,3.212004 4.4609,5.083389 1.2854,1.881769 2.18405,3.98457 3.11351,6.055117 0.9717,2.163304 1.79674,4.383645 2.53729,6.635159 0.82409,2.196219 1.3215,4.493451 1.88784,6.764443 0.55017,2.164893 1.21735,4.298934 1.97069,6.401237 0.55987,1.845003 1.21907,3.656343 1.84775,5.478288 0.50828,1.327724 1.09922,2.619875 1.699,3.90767 0.41571,1.034349 0.87225,2.051297 1.32655,3.069315 0.38831,0.99146 0.89719,1.929945 1.27511,2.925072 0.22256,0.436433 0.0929,0.243951 0.37634,0.585774 0,0 -5.61073,0.340498 -5.61073,0.340498 v 0 c -0.27106,-0.455864 -0.14712,-0.216495 -0.36866,-0.719735 -0.38459,-0.978998 -0.86213,-1.918936 -1.25413,-2.895278 -0.46038,-1.013272 -0.90937,-2.031838 -1.3244,-3.064602 -0.59456,-1.30497 -1.1751,-2.617563 -1.66602,-3.96585 -0.61728,-1.820939 -1.25654,-3.634134 -1.81762,-5.473658 -0.74049,-2.12431 -1.4187,-4.271774 -1.9677,-6.454277 -0.55997,-2.256896 -1.05361,-4.536665 -1.86357,-6.722158 -0.75378,-2.230091 -1.59728,-4.424399 -2.54852,-6.578409 -0.92811,-2.042533 -1.83426,-4.111479 -3.12421,-5.959001 -1.25519,-1.834947 -2.64187,-3.592327 -4.45451,-4.913643 -1.43755,-1.089645 -2.98787,-1.991888 -4.67985,-2.633798 -0.62013,-0.246969 -1.24068,-0.494668 -1.89774,-0.628898 -0.22909,-0.0468 -0.92719,-0.09771 -0.69349,-0.105425 1.30731,-0.04314 6.99255,-0.04355 3.92403,-0.0196 -2.6213,0.03974 -5.24191,0.114588 -7.86104,0.229826 -2.71325,0.114733 -5.42523,0.139842 -8.14077,0.145509 -1.91052,0.03826 -3.82118,0.115515 -5.71956,0.348466 -2.64185,0.310846 -5.2944,0.542388 -7.95361,0.636423 -2.67678,0.113828 -5.35192,0.141937 -8.030948,0.164832 -2.543884,0.07582 -5.088768,0.211422 -7.603452,0.629152 -2.646493,0.450999 -5.28814,0.927026 -7.924795,1.432866 -2.408783,0.518916 -4.83344,0.999139 -7.183723,1.748417 -1.444078,0.568043 -2.822504,1.259637 -3.949295,2.353369 -1.327402,1.17046 -2.556502,2.448052 -3.855683,3.649585 -1.22578,1.173647 -2.432884,2.360652 -3.44691,3.728781 -0.854453,1.281679 -1.577618,2.630282 -2.233657,4.022897 -0.725226,1.524209 -1.422456,3.061179 -2.135013,4.591278 -0.87567,1.75205 -1.993482,3.267369 -3.134098,4.854821 -1.248079,1.909043 -2.497855,3.853103 -3.150479,6.060866 -0.06003,0.308559 -0.142036,0.613645 -0.180101,0.925676 -0.163651,1.341393 0.09194,2.715025 0.08802,4.05782 0.102706,1.56107 0.271344,3.119778 0.223345,4.686509 0.01622,1.319712 -0.0068,2.662676 0.325247,3.949739 0,0 -5.610772,0.122709 -5.610772,0.122709 z"
       inkscape:connector-curvature="0"
       style="stroke-width:0.26458332"
       inkscape:export-xdpi="63.047184"
       inkscape:export-ydpi="63.047184" />
    <path
       id="path64"
       d="m 87.818472,31.693133 c -0.24312,-1.252776 -0.44364,-2.512222 -0.572127,-3.781904 -0.110437,-0.91058 0.04665,-1.814755 0.282459,-2.691632 0.272962,-0.927439 0.879715,-1.674571 1.500933,-2.392318 0.77333,-0.872578 1.691487,-1.601016 2.609027,-2.314386 1.080725,-0.803813 2.18957,-1.569596 3.324977,-2.293932 1.238184,-0.826754 2.541902,-1.544467 3.835188,-2.279063 1.212411,-0.741122 2.450731,-1.390707 3.827641,-1.753038 1.54083,-0.310932 3.12099,-0.332103 4.68716,-0.356438 2.87881,0.143048 5.93698,-0.505697 8.75445,0.338303 0.89006,0.200946 1.73309,0.535296 2.54925,0.938902 0.76271,0.349315 1.54843,0.690415 2.19993,1.226755 0.65562,0.426045 1.21891,0.9746 1.78334,1.511188 0.69604,0.733859 1.21744,1.598336 1.68442,2.489392 0.47174,0.851385 0.88789,1.731936 1.33464,2.596377 0.48848,0.955374 0.9674,1.915746 1.36938,2.911297 0.50909,1.095199 0.90225,2.238723 1.31296,3.373002 0.35911,1.000686 0.75571,1.97889 0.97328,3.022579 0.14269,0.786556 0.15527,1.587394 0.1632,2.384242 0.0471,0.98198 -0.20327,1.553419 -1.00339,2.117326 -1.47879,0.633507 -3.15785,0.654441 -4.74193,0.784717 -4.47944,0.303299 -8.97439,0.223025 -13.45797,0.04761 -2.33902,-0.168579 -4.67518,-0.370589 -7.01715,-0.495144 -1.04619,-0.05568 -2.09378,-0.06777 -3.1412,-0.06871 -0.129201,1.85e-4 -0.516813,5.29e-4 -0.387609,5.29e-4 12.979509,0.0032 -0.816517,0.06073 -1.875218,-0.149862 -0.744,-0.209868 -1.523183,-0.348351 -2.257198,-0.596485 -0.975659,-0.248518 -1.963385,-0.441753 -2.94138,-0.67946 -1.084408,-0.251572 -2.189867,-0.438674 -3.254772,-0.76544 -1.024755,-0.203605 -2.010384,-0.544539 -3.015099,-0.822235 -0.68484,-0.276968 -1.410618,-0.404572 -2.102144,-0.65841 0,0 5.556994,-0.696923 5.556994,-0.696923 v 0 c 0.697827,0.21064 1.400161,0.405384 2.092142,0.635341 1.000001,0.298664 2.007891,0.564213 3.020547,0.816144 1.075602,0.265949 2.157462,0.504389 3.239653,0.741765 0.995961,0.213886 1.989604,0.441449 2.972944,0.707707 0.74952,0.181139 1.48602,0.418968 2.25038,0.530548 2.08337,0.276233 0.49526,0.04885 -4.811367,0.06112 -0.248666,5.29e-4 0.497334,-0.0016 0.746,-0.0016 5.886187,-5.29e-4 3.961507,-0.0093 6.311637,0.0021 1.02996,0.01045 2.05967,0.04035 3.08771,0.10686 2.31368,0.147457 4.62204,0.365678 6.9368,0.496165 1.7793,0.06591 7.07867,0.15276 -1.18167,0.115398 -0.43812,-0.0019 0.87603,-0.02029 1.31393,-0.03452 0.4125,-0.01341 0.82493,-0.02948 1.23722,-0.04839 0.40715,-0.01868 0.81402,-0.04292 1.22103,-0.06437 1.54379,-0.115644 3.10994,-0.210688 4.62024,-0.560679 0.80466,-0.31718 1.0079,-0.634497 0.96332,-1.51561 -0.007,-0.759661 -0.0161,-1.523616 -0.15427,-2.273236 -0.21586,-1.013466 -0.60494,-1.967638 -0.94294,-2.944572 -0.41142,-1.128718 -0.81887,-2.259428 -1.32732,-3.349329 -0.40872,-0.977051 -0.88157,-1.926085 -1.37043,-2.865188 -0.43682,-0.865905 -0.87578,-1.730774 -1.3359,-2.584552 -0.46148,-0.836823 -0.97314,-1.64699 -1.67619,-2.305525 -0.56871,-0.517745 -1.15352,-1.014985 -1.7943,-1.442758 -0.69037,-0.435046 -1.42248,-0.79155 -2.16993,-1.118132 -0.82343,-0.351179 -1.66317,-0.64339 -2.54062,-0.830334 -0.45403,-0.08325 -0.90974,-0.158659 -1.37071,-0.193041 -0.18031,-0.01345 -0.7227,-0.02308 -0.54189,-0.02416 0.13129,-7.93e-4 7.23119,-0.0026 4.21659,-0.0018 -1.55783,0.01 -3.12475,0.01526 -4.66917,0.241438 -1.38653,0.25376 -2.61667,0.843368 -3.81106,1.586866 -1.28241,0.739977 -2.59749,1.426168 -3.82583,2.256779 -1.132374,0.702166 -2.225405,1.463528 -3.307029,2.24121 -0.897366,0.691411 -1.808477,1.381736 -2.584612,2.210924 -0.582586,0.644106 -1.183854,1.302897 -1.47453,2.137864 -0.228214,0.809996 -0.400828,1.640676 -0.300472,2.487549 0.112324,1.249029 0.284343,2.494298 0.58883,3.712527 0,0 -5.610775,0.122711 -5.610775,0.122711 z"
       inkscape:connector-curvature="0"
       style="stroke-width:0.26458332"
       inkscape:export-xdpi="63.047184"
       inkscape:export-ydpi="63.047184" />
  </g>
</svg>
