<?xml version="1.0" encoding="UTF-8" standalone="no"?>
<!-- Created with Inkscape (http://www.inkscape.org/) -->

<svg
   xmlns:dc="http://purl.org/dc/elements/1.1/"
   xmlns:cc="http://creativecommons.org/ns#"
   xmlns:rdf="http://www.w3.org/1999/02/22-rdf-syntax-ns#"
   xmlns:svg="http://www.w3.org/2000/svg"
   xmlns="http://www.w3.org/2000/svg"
   xmlns:sodipodi="http://sodipodi.sourceforge.net/DTD/sodipodi-0.dtd"
   xmlns:inkscape="http://www.inkscape.org/namespaces/inkscape"
   width="210mm"
   height="297mm"
   viewBox="0 0 210 297"
   version="1.1"
   id="svg8"
   inkscape:version="0.92.1 r15371"
   sodipodi:docname="street.svg">
  <defs
     id="defs2" />
  <sodipodi:namedview
     id="base"
     pagecolor="#ffffff"
     bordercolor="#666666"
     borderopacity="1.0"
     inkscape:pageopacity="0.0"
     inkscape:pageshadow="2"
     inkscape:zoom="0.64121094"
     inkscape:cx="444.31915"
     inkscape:cy="379.23506"
     inkscape:document-units="mm"
     inkscape:current-layer="layer1"
     showgrid="false"
     showguides="true"
     inkscape:guide-bbox="true"
     inkscape:window-width="1875"
     inkscape:window-height="1056"
     inkscape:window-x="45"
     inkscape:window-y="24"
     inkscape:window-maximized="1" />
  <metadata
     id="metadata5">
    <rdf:RDF>
      <cc:Work
         rdf:about="">
        <dc:format>image/svg+xml</dc:format>
        <dc:type
           rdf:resource="http://purl.org/dc/dcmitype/StillImage" />
        <dc:title></dc:title>
      </cc:Work>
    </rdf:RDF>
  </metadata>
  <g
     inkscape:label="Layer 1"
     inkscape:groupmode="layer"
     id="layer1">
    <path
       style="fill:#948f82;fill-opacity:1;stroke:#6c613d;stroke-width:5.34511232;stroke-linecap:butt;stroke-linejoin:bevel;stroke-miterlimit:4;stroke-dasharray:none;stroke-opacity:0"
       d="M -0.41263072,296.61913 0.41263072,-0.88762082 81.700882,-1.7128808 78.526078,297.82543 Z"
       id="path37"
       inkscape:connector-curvature="0" />
    <path
       inkscape:connector-curvature="0"
       id="path844"
       d="M 132.45446,297.44439 133.27972,-0.06235937 214.56798,-0.88761935 211.39317,298.65069 Z"
       style="fill:#948f82;fill-opacity:1;stroke:#6c613d;stroke-width:5.34511232;stroke-linecap:butt;stroke-linejoin:bevel;stroke-miterlimit:4;stroke-dasharray:none;stroke-opacity:0" />
  </g>
  <g
     inkscape:groupmode="layer"
     id="layer3"
     inkscape:label="Layer 3"
     sodipodi:insensitive="true">
    <path
       style="fill:#3d3326;fill-opacity:1;stroke:#909090;stroke-width:0.26458332px;stroke-linecap:butt;stroke-linejoin:miter;stroke-opacity:0"
       d="M 74.812143,-1.7128808 78.526078,297.82542 132.45446,297.44439 133.27972,-0.06235937 Z"
       id="path878"
       inkscape:connector-curvature="0" />
  </g>
  <g
     inkscape:groupmode="layer"
     id="layer2"
     inkscape:label="Layer 2"
     sodipodi:insensitive="true">
    <path
       style="opacity:1;vector-effect:none;fill:#473f3f;fill-opacity:1;fill-rule:nonzero;stroke:#000000;stroke-width:0.28052199px;stroke-linecap:butt;stroke-linejoin:miter;stroke-miterlimit:4;stroke-dasharray:none;stroke-dashoffset:0;stroke-opacity:0"
       id="path18"
       d="m 81.700882,-1.7128808 c -0.07152,2.14980474 -0.05818,4.3010446 -0.05867,6.4515541 0.0024,2.1291923 0.01163,4.2583639 0.01981,6.3875427 0.01171,1.917473 -0.0024,3.834947 -0.01023,5.752407 -0.161501,2.517706 -0.310051,5.035011 -0.398906,7.555752 -0.108612,2.24888 0.01704,4.503061 -0.109737,6.75048 -0.150705,1.588064 -0.283972,3.176299 -0.344609,4.769257 -0.01424,1.890059 -0.197812,3.774599 -0.415595,5.653649 -0.23033,2.254829 -0.490152,4.506269 -0.737662,6.759683 -0.174494,2.344505 -0.341503,4.688748 -0.520746,7.033369 -0.163915,2.031285 -0.192717,4.067908 -0.233035,6.10322 0.134705,1.916298 0.2815,3.82982 0.353794,5.74951 0.0801,2.1801 0.07671,4.361542 0.08873,6.542503 1.48e-4,1.989619 0.01437,3.979214 0.01034,5.968828 -0.01648,1.91638 -0.0058,3.832913 0.0082,5.749287 0.02852,1.590106 -0.04785,3.18167 0.05205,4.769789 0.185589,1.993384 0.284436,3.990994 0.340759,5.990209 0.05152,2.095889 0.0564,4.192481 0.05649,6.288791 -0.121982,2.09385 -0.297608,4.18402 -0.382858,6.27966 -0.05861,2.29854 -0.139517,4.59849 -0.0493,6.89678 0.096,2.3898 0.349298,4.76775 0.576951,7.14912 0.133751,2.25848 0.404658,4.50732 0.578337,6.76322 0.239477,2.11715 0.450214,4.23569 0.711552,6.35066 0.285347,2.14453 0.511389,4.29517 0.780244,6.44146 0.250967,2.14622 0.488981,4.2933 0.725713,6.44105 0.315421,2.13738 0.533103,4.28366 0.803298,6.42553 0.267536,1.98384 0.355805,3.98077 0.412347,5.97659 0.03376,1.87742 0.02995,3.75506 0.02868,5.63263 -0.0054,1.94031 -0.0081,3.88063 -0.0056,5.82095 0.06963,1.94564 -0.06103,3.8826 -0.215327,5.82183 -0.104845,2.43226 -0.388909,4.85125 -0.679707,7.27007 -0.309874,2.78279 -0.624545,5.56518 -0.960523,8.34566 -0.252316,2.45986 -0.451541,4.92396 -0.66257,7.38709 -0.174936,1.92731 -0.228571,3.86048 -0.255957,5.79315 0.05021,1.64324 -0.03597,3.27499 -0.206243,4.91017 -0.125271,1.12465 -0.182192,2.25337 -0.218004,3.38261 -0.08933,1.15754 -0.362815,2.28884 -0.611955,3.42432 -0.233848,1.10101 -0.287342,2.22177 -0.319037,3.3391 -0.01532,0.94377 -0.01424,1.88773 -0.01437,2.83159 0.0018,1.01511 0.0042,2.03024 -9.8e-5,3.04535 -0.01344,1.39527 -0.01189,2.79061 -0.01746,4.18592 0.0069,1.80822 -0.02078,3.61634 -0.02189,5.4245 -0.03261,1.88621 0.191267,3.76534 0.481663,5.63067 0.325161,1.68985 0.684307,3.37303 1.026852,5.06013 0.260755,1.52427 0.324501,3.06599 0.48724,4.59988 0.192364,2.18763 0.251574,4.38061 0.414756,6.57009 0.190999,2.98172 0.264952,5.96678 0.432195,8.94961 0.146185,3.45456 0.335624,6.90642 0.534004,10.35886 0.144903,3.75148 0.211761,7.50488 0.282401,11.25792 0.04287,2.41602 0.04784,4.83245 0.05548,7.24871 -0.06818,1.85579 0.06167,3.6994 0.219321,5.54776 0.133467,1.50733 0.212516,3.01715 0.259366,4.52837 0.03915,0.36062 -0.0099,0.7248 0.02213,1.08561 0.01034,0.11692 0.0096,0.24146 0.06805,0.34655 0.02145,0.0385 0.189438,0.0311 0.141143,0.0295 -2.229834,-0.074 -4.458938,-0.16454 -6.688407,-0.2468 0,0 6.88473,0.66026 6.88473,0.66026 v 0 c -6.813257,-0.0421 -7.279497,1.76335 -7.289552,-1.86221 -0.02478,-1.4995 -0.08474,-2.99879 -0.216687,-4.49416 -0.167156,-1.86344 -0.268933,-3.7247 -0.194296,-5.5952 0.01057,-2.41451 0.01966,-4.82899 0.02539,-7.2435 0.0015,-3.74509 -0.03394,-7.49181 -0.254606,-11.23262 -0.196045,-3.45223 -0.394741,-6.90343 -0.549967,-10.35732 -0.189544,-2.97942 -0.270053,-5.9622 -0.492494,-8.93993 -0.175692,-2.18348 -0.258015,-4.37098 -0.479736,-6.55124 -0.178673,-1.51801 -0.24112,-3.04443 -0.497951,-4.5545 -0.324512,-1.69648 -0.682381,-3.38757 -1.0101,-5.08359 -0.285297,-1.89309 -0.492573,-3.80016 -0.45473,-5.71285 -0.0012,-1.80816 -0.0287,-3.61627 -0.02186,-5.42449 -0.0056,-1.39521 -0.004,-2.79045 -0.0185,-4.18561 -0.0054,-1.01491 -0.0051,-2.02985 -0.008,-3.04477 -0.0033,-0.95009 -0.01102,-1.90033 0.0204,-2.85018 0.04212,-1.15061 0.0981,-2.30458 0.324801,-3.4404 0.246368,-1.10066 0.521935,-2.19704 0.603517,-3.32066 0.02826,-1.14437 0.118543,-2.28615 0.252154,-3.42465 0.175303,-1.6182 0.285504,-3.23302 0.239769,-4.86065 0.02915,-1.94712 0.07649,-3.89583 0.282505,-5.83577 0.253456,-2.46693 0.420683,-4.93854 0.693552,-7.4035 0.362321,-2.77649 0.666655,-5.55865 0.972623,-8.34032 0.268577,-2.41278 0.532585,-4.82529 0.620122,-7.25004 0.144365,-1.92594 0.273357,-3.84872 0.206249,-5.78055 0.0042,-1.94035 0.0046,-3.88071 0.0033,-5.82106 0.0012,-1.87279 0.0061,-3.7458 -0.02951,-5.61838 -0.04596,-1.97785 -0.132958,-3.95613 -0.390582,-5.92261 -0.273579,-2.14485 -0.481164,-4.29549 -0.804945,-6.43527 -0.229053,-2.14509 -0.475103,-4.28859 -0.720642,-6.4321 -0.269567,-2.14661 -0.497424,-4.29733 -0.788644,-6.44187 -0.266311,-2.12273 -0.458602,-4.25095 -0.701395,-6.37596 -0.174354,-2.25246 -0.435228,-4.49846 -0.5707,-6.75332 -0.229743,-2.3906 -0.466513,-4.77935 -0.556433,-7.17855 -0.09828,-2.31272 -0.06086,-4.62784 0.01371,-6.941 0.08883,-2.08783 0.244926,-4.17114 0.380841,-6.25671 -0.0045,-2.09114 -0.0021,-4.182492 -0.05404,-6.273254 -0.0635,-1.993421 -0.16853,-3.985038 -0.371624,-5.971604 -0.105296,-1.59979 -0.05303,-3.202606 -0.05875,-4.804574 0.01437,-1.916451 0.0257,-3.833053 0.01102,-5.74952 -0.0021,-1.989021 0.01657,-3.978013 0.01045,-5.967039 -1.7e-4,-2.17414 -0.01496,-4.348599 -0.08932,-6.521874 -0.08637,-1.929236 -0.266522,-3.851785 -0.37677,-5.779672 0.02046,-2.047967 0.134639,-4.093543 0.271864,-6.137762 0.194075,-2.34942 0.346376,-4.699857 0.50215,-7.051365 0.261748,-2.252321 0.538057,-4.502864 0.747073,-6.759832 0.207083,-1.865751 0.348721,-3.739621 0.361953,-5.614942 0.06915,-1.597319 0.183303,-3.19115 0.366746,-4.781648 0.160313,-2.240653 0.06646,-4.490551 0.173224,-6.733704 0.07729,-2.51442 0.234139,-5.025458 0.360652,-7.538127 -0.0078,-1.91746 -0.02195,-3.834934 -0.01023,-5.752407 0.0082,-2.1291788 0.01755,-4.2583504 0.01981,-6.3875427 -5.82e-4,-2.1505095 0.01285,-4.30174936 -0.05868,-6.4515541 0,0 6.888718,0 6.888718,0 z"
       inkscape:connector-curvature="0" />
    <path
       style="opacity:1;vector-effect:none;fill:#473f3f;fill-opacity:1;fill-rule:nonzero;stroke:#000000;stroke-width:0.29283342px;stroke-linecap:butt;stroke-linejoin:miter;stroke-miterlimit:4;stroke-dasharray:none;stroke-dashoffset:0;stroke-opacity:0"
       id="path35"
       d="m 131.18439,-29.679594 c -0.41388,2.452062 -0.82959,4.903589 -1.21191,7.361437 -0.24613,2.010837 -0.5748,4.009403 -0.79207,6.024082 -0.16801,1.652956 -0.19316,3.315854 -0.20256,4.976384 -9.3e-4,1.5531765 -0.002,3.1063825 9.4e-4,4.6595545 -0.0427,1.669883 0.0975,3.338068 0.31728,4.991032 0.26571,2.05209597 0.53718,4.101055 0.95086,6.127306 0.59587,2.86044 1.1932,5.7209475 1.8019,8.5785065 0.48037,2.532495 0.88407,5.081345 1.15617,7.647415 0.13112,1.810617 0.4349,3.600464 0.591,5.408623 0.11262,1.763739 0.10123,3.533482 0.10795,5.300355 0.003,1.854888 0.003,3.709743 -1.9e-4,5.56462 -0.009,2.149031 -0.0151,4.298095 -0.015,6.447148 -0.077,2.382462 0.13413,4.756126 0.26489,7.131965 0.13375,2.394011 0.15696,4.792295 0.169,7.189622 0.0273,2.689291 -0.0497,5.3798 0.053,8.067467 0.16876,2.809971 0.28541,5.622039 0.33752,8.436872 0.0462,3.027034 0.0489,6.054624 0.0465,9.081974 -0.0227,3.08728 0.0535,6.17631 -0.0527,9.26206 -0.15211,3.00501 -0.255,6.01061 -0.46906,9.011681 -0.13398,2.56269 -0.32461,5.11867 -0.5319,7.67583 -0.18494,2.32408 -0.22742,4.65606 -0.25772,6.98666 0.059,2.20486 -0.14246,4.39944 -0.277,6.59691 -0.12364,2.13354 -0.15825,4.27138 -0.16564,6.40834 0.0768,1.80141 -0.14066,3.58863 -0.27308,5.38069 -0.15662,2.3606 -0.1757,4.72784 -0.19587,7.09299 -0.0173,2.61042 -0.01,5.22092 4.7e-4,7.83135 0.002,1.93743 0.0219,3.87476 0.0286,5.81214 0.01,1.73861 -0.008,3.47726 -0.0165,5.21585 -0.0429,3.04527 -0.0208,6.08751 0.0563,9.13183 0.17179,4.58022 0.57192,9.14607 0.98475,13.70829 0.35471,4.02087 0.62077,8.0484 1.11903,12.05367 0.22387,1.66419 0.44584,3.32896 0.54021,5.00722 0.0423,0.93748 0.0368,1.87628 0.0347,2.81449 -0.003,1.26456 -0.0176,2.52899 -0.0403,3.79334 -0.0922,3.48088 0.0803,6.96065 0.19959,10.43868 0.079,3.51359 0.24262,7.02235 0.38559,10.53343 0.068,3.10613 0.31899,6.1995 0.55146,9.2955 0.20162,2.61177 0.12561,5.23247 0.21483,7.84808 0.13638,2.9335 0.27356,5.8667 0.38241,8.80147 0.0807,1.86218 0.0165,3.72851 0.11643,5.5891 0.13311,2.79474 0.24546,5.58967 0.31263,8.38692 0.0212,2.12176 0.26685,4.23123 0.41182,6.34578 0.0861,2.48005 0.0704,4.96367 0.0955,7.44536 0.0139,1.91153 0.0213,3.82304 0.0361,5.7345 0.009,1.08869 0.0132,2.17747 0.0151,3.26615 -0.0317,1.29871 0.0142,2.58992 0.0918,3.88589 0.14185,2.68487 0.18012,5.37098 0.40229,8.05062 0.14954,1.57656 0.2987,3.15309 0.37084,4.73585 0.007,1.21718 0.0394,2.42475 0.14197,3.63728 0.20701,3.09279 0.14127,6.19483 0.26899,9.29096 0.11601,2.55627 0.31558,5.10725 0.4482,7.6625 0.01,0.22654 0.0192,0.45304 0.0289,0.67963 0,0 -6.63228,0.0224 -6.63228,0.0224 v 0 c -0.004,-0.2247 -0.009,-0.44937 -0.0134,-0.67407 -0.0667,-2.5556 -0.18399,-5.10927 -0.30307,-7.66272 -0.11729,-3.0843 -0.11207,-6.17774 -0.41497,-9.25141 -0.12759,-1.2244 -0.17642,-2.44484 -0.17253,-3.67667 -0.0502,-1.57258 -0.1581,-3.14183 -0.27662,-4.71029 -0.18351,-2.68259 -0.22938,-5.37099 -0.43606,-8.05199 -0.1137,-1.31135 -0.20685,-2.62005 -0.16313,-3.938 0.002,-1.08891 0.008,-2.17777 0.0187,-3.26657 0.0178,-1.91039 0.029,-3.82078 0.0327,-5.73125 0.007,-2.468 -4.7e-4,-4.9379 -0.1457,-7.40222 -0.12823,-2.12444 -0.34613,-4.24597 -0.34262,-6.37621 -0.055,-2.78962 -0.14107,-5.58058 -0.37114,-8.36145 -0.11434,-1.86803 -0.0408,-3.74048 -0.0924,-5.61113 -0.0471,-2.93318 -0.16084,-5.8644 -0.31706,-8.79349 -0.11048,-2.60871 -0.11481,-5.22113 -0.26799,-7.82814 -0.17786,-3.10257 -0.40411,-6.20218 -0.46597,-9.31075 -0.17451,-3.51285 -0.34253,-7.0233 -0.36491,-10.54188 -0.11171,-3.4876 -0.32119,-6.97208 -0.3387,-10.4621 -0.0214,-1.26478 -0.034,-2.52961 -0.0291,-3.79461 0.002,-0.92601 0.007,-1.85233 -0.0227,-2.77797 -0.0681,-1.66021 -0.23348,-3.31281 -0.40559,-4.96443 -0.39323,-4.01915 -0.65707,-8.05028 -1.04898,-12.06976 -0.39944,-4.57568 -0.70817,-9.16003 -0.97935,-13.7457 -0.13548,-3.05107 -0.22855,-6.10107 -0.19889,-9.15603 -0.009,-1.73855 -0.0266,-3.47714 -0.017,-5.21569 0.007,-1.93734 0.0241,-3.87464 0.0243,-5.81201 0.009,-2.61209 0.0109,-5.22418 0.0167,-7.83627 0.011,-2.38 0.0147,-4.76191 0.14438,-7.13886 0.12159,-1.77779 0.33104,-3.55057 0.28268,-5.33623 0.0291,-2.14959 0.0476,-4.30007 0.17254,-6.44667 0.13982,-2.1852 0.33899,-4.36819 0.29134,-6.56099 0.0255,-2.34695 0.0734,-4.69554 0.26338,-7.03543 0.20712,-2.55557 0.41713,-5.10905 0.56396,-7.66947 0.21949,-2.992161 0.33373,-5.988901 0.47632,-8.986001 0.11472,-3.07708 0.034,-6.15757 0.0585,-9.23639 -0.007,-3.02259 -0.004,-6.04542 -0.0597,-9.067626 -0.0664,-2.810411 -0.17415,-5.618892 -0.34642,-8.424679 -0.10372,-2.694987 -0.0331,-5.392884 -0.0709,-8.089484 -0.0218,-2.385776 -0.0501,-4.772343 -0.17558,-7.155164 -0.1353,-2.3888 -0.33603,-4.775997 -0.27478,-7.171497 4.7e-4,-2.149222 -0.004,-4.298445 -0.011,-6.447656 -9.3e-4,-1.853749 0.005,-3.707465 0.002,-5.561225 -0.008,-1.748226 -0.01,-3.498356 -0.13505,-5.242809 -0.14979,-1.802154 -0.40913,-3.591694 -0.53385,-5.396163 -0.25493,-2.542341 -0.6514,-5.066946 -1.12363,-7.575047 -0.58896,-2.86539 -1.17523,-5.7310095 -1.83394,-8.5803685 -0.42222,-2.042283 -0.71429,-4.10740503 -0.98468,-6.176664 -0.22384,-1.684409 -0.38163,-3.381616 -0.33602,-5.084077 -9.4e-4,-1.555684 -0.0109,-3.111375 0.005,-4.6670465 0.0213,-1.684917 0.0216,-3.374408 0.20671,-5.050785 0.24357,-2.024395 0.56968,-4.035483 0.84907,-6.054595 0.39643,-2.434636 0.82529,-4.868772 1.11496,-7.318784 0,0 6.64764,0.06881 6.64764,0.06881 z"
       inkscape:connector-curvature="0" />
  </g>
</svg>
