<?xml version="1.0" encoding="UTF-8" standalone="no"?>
<!-- Created with Inkscape (http://www.inkscape.org/) -->

<svg
   xmlns:dc="http://purl.org/dc/elements/1.1/"
   xmlns:cc="http://creativecommons.org/ns#"
   xmlns:rdf="http://www.w3.org/1999/02/22-rdf-syntax-ns#"
   xmlns:svg="http://www.w3.org/2000/svg"
   xmlns="http://www.w3.org/2000/svg"
   xmlns:sodipodi="http://sodipodi.sourceforge.net/DTD/sodipodi-0.dtd"
   xmlns:inkscape="http://www.inkscape.org/namespaces/inkscape"
   width="210mm"
   height="297mm"
   viewBox="0 0 210 297"
   version="1.1"
   id="svg6717"
   inkscape:version="0.92.1 r15371"
   sodipodi:docname="swing.svg">
  <defs
     id="defs6711" />
  <sodipodi:namedview
     id="base"
     pagecolor="#ffffff"
     bordercolor="#666666"
     borderopacity="1.0"
     inkscape:pageopacity="0.0"
     inkscape:pageshadow="2"
     inkscape:zoom="1.2824219"
     inkscape:cx="281.86415"
     inkscape:cy="560"
     inkscape:document-units="mm"
     inkscape:current-layer="layer1"
     showgrid="false"
     inkscape:window-width="1875"
     inkscape:window-height="1056"
     inkscape:window-x="45"
     inkscape:window-y="24"
     inkscape:window-maximized="1" />
  <metadata
     id="metadata6714">
    <rdf:RDF>
      <cc:Work
         rdf:about="">
        <dc:format>image/svg+xml</dc:format>
        <dc:type
           rdf:resource="http://purl.org/dc/dcmitype/StillImage" />
        <dc:title></dc:title>
      </cc:Work>
    </rdf:RDF>
  </metadata>
  <g
     inkscape:label="Layer 1"
     inkscape:groupmode="layer"
     id="layer1">
    <path
       style="opacity:1;vector-effect:none;fill:#000000;fill-opacity:1;fill-rule:nonzero;stroke:#000000;stroke-width:0.26458332px;stroke-linecap:butt;stroke-linejoin:miter;stroke-miterlimit:4;stroke-dasharray:none;stroke-dashoffset:0;stroke-opacity:0"
       id="path6719"
       d="m 38.122582,125.25303 c 1.602211,1.37109 3.253401,2.68269 4.911981,3.98444 2.123745,1.67299 4.386146,3.15447 6.690651,4.56337 1.474057,0.87204 2.957407,1.75567 4.552934,2.39174 0.890434,0.35498 1.368349,0.47826 2.279296,0.75322 2.334024,0.73981 4.756703,1.08807 7.18589,1.32013 0.511704,0.0421 1.023019,0.0892 1.535115,0.12618 1.834774,0.1325 3.672877,0.20295 5.511652,0.24863 2.298848,0.0571 2.920613,0.31597 2.125863,0.003 5.528353,-0.1108 11.046526,-0.69717 16.482274,-1.71119 1.278433,-0.23849 2.546874,-0.52772 3.820311,-0.79157 7.042411,-1.60571 13.844461,-4.09406 20.462271,-6.96275 1.27224,-0.55149 2.52914,-1.1377 3.79371,-1.70655 5.30008,-2.49972 10.52152,-5.1996 15.50222,-8.29415 0.70152,-0.43586 1.38757,-0.89614 2.08135,-1.34421 2.12364,-1.4452 1.1371,-0.74687 2.96819,-2.08285 0,0 2.85914,0.27283 2.85914,0.27283 v 0 c -1.91639,1.33634 -0.88801,0.6377 -3.09217,2.08556 -5.72593,3.59194 -11.67651,6.82144 -17.81636,9.65158 -1.27275,0.5701 -2.5382,1.15676 -3.81824,1.71028 -6.6075,2.85726 -13.3868,5.37482 -20.406056,7.01807 -1.26492,0.26862 -2.524646,0.56299 -3.794765,0.80584 -5.387118,1.03005 -10.859053,1.63641 -16.341879,1.77201 -1.782336,0.0162 -3.564596,0.0472 -5.347006,0.0486 -3.134069,0.002 -6.27094,-0.16671 -9.393254,-0.42376 -2.445247,-0.24604 -4.882173,-0.60818 -7.226612,-1.37408 -0.950447,-0.30149 -1.341355,-0.40328 -2.270405,-0.7894 -1.591027,-0.66124 -3.074877,-1.55111 -4.551704,-2.43026 -2.305497,-1.41839 -4.558535,-2.92475 -6.689561,-4.59662 -1.690539,-1.31611 -3.366706,-2.6499 -5.044699,-3.98192 0,0 3.029863,-0.26611 3.029863,-0.26611 z"
       inkscape:connector-curvature="0" />
    <path
       style="opacity:1;vector-effect:none;fill:#000000;fill-opacity:1;fill-rule:nonzero;stroke:#000000;stroke-width:0.26458332px;stroke-linecap:butt;stroke-linejoin:miter;stroke-miterlimit:4;stroke-dasharray:none;stroke-dashoffset:0;stroke-opacity:0"
       id="path6723"
       d="m 38.216546,143.51755 c 1.596337,1.27374 3.357914,2.29153 5.151816,3.25538 3.478448,1.70816 7.164678,2.99618 10.949347,3.83466 0.946354,0.20966 1.90432,0.36296 2.856478,0.54445 3.248764,0.59121 6.538024,0.9092 9.830232,1.12865 3.000139,0.19998 6.002147,0.3358 9.007826,0.20454 5.427528,-0.2054 10.822522,-0.97416 16.099753,-2.25442 1.184802,-0.28743 2.366407,-0.59256 3.53182,-0.95059 1.095166,-0.33644 2.163643,-0.75431 3.245464,-1.13147 2.666868,-1.02474 5.183498,-2.37329 7.472848,-4.08391 1.63922,-1.22484 3.09126,-2.64907 4.51411,-4.11066 1.64528,-1.69268 3.07408,-3.57312 4.57361,-5.39088 0.72535,-0.84938 1.40937,-1.73145 2.10511,-2.60461 0,0 3.01181,0.20581 3.01181,0.20581 v 0 c -0.71894,0.86789 -1.40474,1.76305 -2.15476,2.60557 -1.54537,1.81979 -3.00189,3.71945 -4.70034,5.40455 -1.46091,1.47741 -2.953,2.91291 -4.6259,4.15539 -2.33156,1.73168 -4.88535,3.10471 -7.59853,4.14119 -1.09282,0.38219 -2.17172,0.80675 -3.278443,1.14657 -1.178684,0.36192 -2.374818,0.66624 -3.572999,0.95717 -5.278694,1.28171 -10.671524,2.07802 -16.100637,2.30586 -2.147517,0.0202 -4.294939,0.0623 -6.442551,0.0607 -5.882727,-0.004 -11.782734,-0.43342 -17.583867,-1.41892 -0.962821,-0.18564 -1.931548,-0.34291 -2.888461,-0.55692 -3.834088,-0.85751 -7.567893,-2.16284 -11.098131,-3.88406 -1.855343,-0.98493 -3.685283,-2.02084 -5.357555,-3.30028 0,0 3.05195,-0.26378 3.05195,-0.26378 z"
       inkscape:connector-curvature="0" />
    <path
       style="opacity:1;vector-effect:none;fill:#000000;fill-opacity:1;fill-rule:nonzero;stroke:#000000;stroke-width:0.26458332px;stroke-linecap:butt;stroke-linejoin:miter;stroke-miterlimit:4;stroke-dasharray:none;stroke-dashoffset:0;stroke-opacity:0"
       id="path6725"
       d="m 24.689278,157.4799 c 1.041569,0.53887 2.175807,0.86868 3.309052,1.15216 0.487198,0.12187 0.974087,0.24859 1.468448,0.33703 0.6747,0.12069 1.357135,0.19322 2.035704,0.28984 7.208454,0.88015 14.474388,1.12087 21.726921,1.33286 8.76875,0.15654 17.558989,-0.12246 26.285643,-1.02716 1.898808,-0.19685 3.78982,-0.46279 5.684729,-0.69418 7.15088,-1.10774 14.340567,-2.4505 21.103015,-5.11472 4.21741,-1.66154 5.02311,-2.2977 8.89868,-4.50309 6.44334,-4.04728 12.01813,-9.27198 17.30264,-14.70386 2.10112,-2.36808 4.25839,-4.802 5.57646,-7.71775 0.15265,-0.33769 0.27088,-0.6899 0.40632,-1.03484 0.34876,-0.99082 0.49578,-2.03086 0.61834,-3.0686 0,0 3.00058,0.0366 3.00058,0.0366 v 0 c -0.13563,1.06583 -0.30193,2.13272 -0.6822,3.14411 -0.14504,0.35382 -0.27174,0.71572 -0.43513,1.06145 -1.3939,2.94939 -3.63741,5.39695 -5.80486,7.78782 -5.4048,5.4218 -11.06189,10.67005 -17.57516,14.74957 -3.82208,2.17356 -4.79676,2.90091 -8.94473,4.54317 -1.6113,0.63794 -3.26186,1.17608 -4.91917,1.68263 -5.314793,1.62443 -10.781196,2.63178 -16.266966,3.46994 -1.90645,0.23236 -3.809201,0.49742 -5.719355,0.69707 -10.275306,1.074 -20.61758,1.22993 -30.939497,1.0665 -7.373831,-0.20884 -14.761768,-0.43153 -22.092882,-1.30803 -0.705916,-0.10088 -1.415849,-0.17684 -2.117754,-0.30264 -1.68754,-0.30246 -3.389692,-0.81935 -4.952439,-1.5273 0,0 3.033611,-0.34862 3.033611,-0.34862 z"
       inkscape:connector-curvature="0" />
  </g>
</svg>
